Demo Font.ufo
<glyph name="exclam" format="1">
  <advance width="278"/>
  <unicode hex="0021"/>
  <outline>
    <contour>
      <point x="192" y="215" type="line"/>
      <point x="204" y="750" type="line"/>
      <point x="74" y="750" type="line"/>
      <point x="86" y="215" type="line"/>
    </contour>
    <contour>
      <point x="207" y="155" type="line"/>
      <point x="71" y="155" type="line"/>
      <point x="71" y="0" type="line"/>
      <point x="207" y="0" type="line"/>
    </contour>
  </outline>
</glyph>
<glyph name="slash" format="1">
  <advance width="378"/>
  <unicode hex="002F"/>
  <outline>
    <contour>
      <point x="73" y="-70" type="line"/>
      <point x="361" y="820" type="line"/>
      <point x="305" y="820" type="line"/>
      <point x="16" y="-70" type="line"/>
    </contour>
  </outline>
</glyph>
<glyph name="zero" format="1">
  <advance width="602"/>
  <unicode hex="0030"/>
  <outline>
    <contour>
      <point x="296" y="760" type="line"/>
      <point x="149" y="760"/>
      <point x="40" y="678"/>
      <point x="40" y="494" type="curve" smooth="yes"/>
      <point x="40" y="256" type="line"/>
      <point x="40" y="73"/>
      <point x="149" y="-10"/>
      <point x="296" y="-10" type="curve"/>
      <point x="306" y="-10" type="line"/>
      <point x="453" y="-10"/>
      <point x="563" y="73"/>
      <point x="563" y="256" type="curve"/>
      <point x="563" y="494" type="line"/>
      <point x="563" y="678"/>
      <point x="453" y="760"/>
      <point x="306" y="760" type="curve"/>
    </contour>
    <contour>
      <point x="430" y="82"/>
      <point x="389" y="30"/>
      <point x="301" y="30" type="curve"/>
      <point x="214" y="30"/>
      <point x="172" y="82"/>
      <point x="172" y="203" type="curve"/>
      <point x="172" y="547" type="line" smooth="yes"/>
      <point x="172" y="668"/>
      <point x="214" y="720"/>
      <point x="301" y="720" type="curve"/>
      <point x="389" y="720"/>
      <point x="430" y="668"/>
      <point x="430" y="547" type="curve" smooth="yes"/>
      <point x="430" y="203" type="line"/>
    </contour>
  </outline>
</glyph>
<glyph name="one" format="1">
  <advance width="384"/>
  <unicode hex="0031"/>
  <outline>
    <contour>
      <point x="138" y="0" type="line"/>
      <point x="266" y="0" type="line"/>
      <point x="266" y="750" type="line"/>
      <point x="164" y="750" type="line"/>
      <point x="129" y="693"/>
      <point x="77" y="630"/>
      <point x="25" y="586" type="curve"/>
      <point x="25" y="533" type="line"/>
      <point x="69" y="566"/>
      <point x="110" y="606"/>
      <point x="138" y="643" type="curve"/>
    </contour>
  </outline>
</glyph>
<glyph name="two" format="1">
  <advance width="519"/>
  <unicode hex="0032"/>
  <outline>
    <contour>
      <point x="490" y="0" type="line"/>
      <point x="490" y="110" type="line"/>
      <point x="74" y="110" type="line"/>
      <point x="74" y="153"/>
      <point x="89" y="176"/>
      <point x="126" y="200" type="curve" smooth="yes"/>
      <point x="336" y="317" type="line" smooth="yes"/>
      <point x="449" y="370"/>
      <point x="492" y="438"/>
      <point x="492" y="527" type="curve" smooth="yes"/>
      <point x="492" y="557" type="line" smooth="yes"/>
      <point x="492" y="690"/>
      <point x="400" y="760"/>
      <point x="271" y="760" type="curve" smooth="yes"/>
      <point x="259" y="760" type="line" smooth="yes"/>
      <point x="124" y="760"/>
      <point x="29" y="699"/>
      <point x="29" y="563" type="curve" smooth="yes"/>
      <point x="29" y="513" type="line"/>
      <point x="155" y="513" type="line"/>
      <point x="155" y="596" type="line" smooth="yes"/>
      <point x="155" y="684"/>
      <point x="192" y="720"/>
      <point x="266" y="720" type="curve"/>
      <point x="340" y="720"/>
      <point x="379" y="676"/>
      <point x="379" y="600" type="curve"/>
      <point x="379" y="561" type="line" smooth="yes"/>
      <point x="379" y="509"/>
      <point x="362" y="481"/>
      <point x="290" y="420" type="curve" smooth="yes"/>
      <point x="121" y="290" type="line" smooth="yes"/>
      <point x="44" y="233"/>
      <point x="24" y="191"/>
      <point x="24" y="113" type="curve" smooth="yes"/>
      <point x="24" y="0" type="line"/>
    </contour>
  </outline>
</glyph>
<glyph name="three" format="1">
  <advance width="553"/>
  <unicode hex="0033"/>
  <outline>
    <contour>
      <point x="275" y="-10" type="line"/>
      <point x="420" y="-10"/>
      <point x="522" y="62"/>
      <point x="522" y="189" type="curve"/>
      <point x="522" y="216" type="line" smooth="yes"/>
      <point x="522" y="317"/>
      <point x="454" y="378"/>
      <point x="363" y="393" type="curve"/>
      <point x="448" y="407"/>
      <point x="505" y="472"/>
      <point x="505" y="563" type="curve" smooth="yes"/>
      <point x="505" y="572" type="line" smooth="yes"/>
      <point x="505" y="686"/>
      <point x="409" y="760"/>
      <point x="271" y="760" type="curve"/>
      <point x="259" y="760" type="line"/>
      <point x="124" y="760"/>
      <point x="29" y="699"/>
      <point x="29" y="563" type="curve" smooth="yes"/>
      <point x="29" y="514" type="line"/>
      <point x="155" y="514" type="line"/>
      <point x="155" y="596" type="line" smooth="yes"/>
      <point x="155" y="684"/>
      <point x="191" y="720"/>
      <point x="267" y="720" type="curve"/>
      <point x="340" y="720"/>
      <point x="379" y="677"/>
      <point x="379" y="598" type="curve"/>
      <point x="379" y="532" type="line"/>
      <point x="379" y="453"/>
      <point x="332" y="409"/>
      <point x="262" y="409" type="curve"/>
      <point x="178" y="409" type="line"/>
      <point x="178" y="368" type="line"/>
      <point x="262" y="368" type="line"/>
      <point x="349" y="368"/>
      <point x="391" y="324"/>
      <point x="391" y="245" type="curve"/>
      <point x="391" y="158" type="line"/>
      <point x="391" y="75"/>
      <point x="343" y="30"/>
      <point x="271" y="30" type="curve"/>
      <point x="188" y="30"/>
      <point x="151" y="66"/>
      <point x="151" y="155" type="curve" smooth="yes"/>
      <point x="151" y="246" type="line"/>
      <point x="25" y="246" type="line"/>
      <point x="25" y="187" type="line" smooth="yes"/>
      <point x="25" y="51"/>
      <point x="120" y="-10"/>
      <point x="263" y="-10" type="curve"/>
    </contour>
  </outline>
</glyph>
<glyph name="four" format="1">
  <advance width="586"/>
  <unicode hex="0034"/>
  <outline>
    <contour>
      <point x="362" y="0" type="line"/>
      <point x="491" y="0" type="line"/>
      <point x="491" y="215" type="line"/>
      <point x="572" y="215" type="line"/>
      <point x="572" y="256" type="line"/>
      <point x="491" y="256" type="line"/>
      <point x="491" y="750" type="line"/>
      <point x="471" y="750" type="line"/>
      <point x="446" y="698"/>
      <point x="408" y="635"/>
      <point x="362" y="574" type="curve"/>
      <point x="362" y="256" type="line"/>
      <point x="59" y="256" type="line"/>
      <point x="116" y="340" type="line" smooth="yes"/>
      <point x="256" y="557"/>
      <point x="311" y="660"/>
      <point x="336" y="750" type="curve"/>
      <point x="189" y="750" type="line"/>
      <point x="175" y="611"/>
      <point x="138" y="489"/>
      <point x="61" y="344" type="curve" smooth="yes"/>
      <point x="11" y="245" type="line"/>
      <point x="11" y="215" type="line"/>
      <point x="362" y="215" type="line"/>
    </contour>
  </outline>
</glyph>
<glyph name="five" format="1">
  <advance width="556"/>
  <unicode hex="0035"/>
  <outline>
    <contour>
      <point x="277" y="-10" type="line"/>
      <point x="411" y="-10"/>
      <point x="522" y="67"/>
      <point x="522" y="198" type="curve" smooth="yes"/>
      <point x="522" y="269" type="line"/>
      <point x="522" y="411"/>
      <point x="433" y="479"/>
      <point x="292" y="479" type="curve" smooth="yes"/>
      <point x="283" y="479" type="line" smooth="yes"/>
      <point x="207" y="479"/>
      <point x="140" y="449"/>
      <point x="90" y="397" type="curve"/>
      <point x="114" y="641" type="line"/>
      <point x="479" y="641" type="line"/>
      <point x="479" y="750" type="line"/>
      <point x="82" y="750" type="line"/>
      <point x="43" y="347" type="line"/>
      <point x="78" y="336" type="line"/>
      <point x="137" y="405"/>
      <point x="197" y="439"/>
      <point x="263" y="439" type="curve"/>
      <point x="345" y="439"/>
      <point x="390" y="394"/>
      <point x="390" y="302" type="curve" smooth="yes"/>
      <point x="390" y="159" type="line"/>
      <point x="390" y="72"/>
      <point x="349" y="30"/>
      <point x="273" y="30" type="curve" smooth="yes"/>
      <point x="192" y="30"/>
      <point x="156" y="66"/>
      <point x="156" y="154" type="curve" smooth="yes"/>
      <point x="156" y="243" type="line"/>
      <point x="30" y="243" type="line"/>
      <point x="30" y="187" type="line" smooth="yes"/>
      <point x="30" y="51"/>
      <point x="125" y="-10"/>
      <point x="265" y="-10" type="curve"/>
    </contour>
  </outline>
</glyph>
<glyph name="seven" format="1">
  <advance width="495"/>
  <unicode hex="0037"/>
  <outline>
    <contour>
      <point x="140" y="0" type="line"/>
      <point x="275" y="0" type="line"/>
      <point x="275" y="49" type="line" smooth="yes"/>
      <point x="275" y="346"/>
      <point x="321" y="504"/>
      <point x="478" y="649" type="curve"/>
      <point x="478" y="750" type="line"/>
      <point x="16" y="750" type="line"/>
      <point x="16" y="641" type="line"/>
      <point x="421" y="641" type="line"/>
      <point x="232" y="494"/>
      <point x="140" y="322"/>
      <point x="140" y="49" type="curve"/>
    </contour>
  </outline>
</glyph>
<glyph name="nine" format="1">
  <advance width="589"/>
  <unicode hex="0039"/>
  <outline>
    <contour>
      <point x="162" y="557" type="line"/>
      <point x="162" y="668"/>
      <point x="205" y="720"/>
      <point x="290" y="720" type="curve"/>
      <point x="375" y="720"/>
      <point x="417" y="668"/>
      <point x="417" y="546" type="curve"/>
      <point x="417" y="487" type="line"/>
      <point x="417" y="387"/>
      <point x="369" y="330"/>
      <point x="285" y="330" type="curve"/>
      <point x="197" y="330"/>
      <point x="162" y="380"/>
      <point x="162" y="481" type="curve"/>
    </contour>
    <contour>
      <point x="301" y="-10" type="line"/>
      <point x="441" y="-10"/>
      <point x="550" y="73"/>
      <point x="550" y="256" type="curve" smooth="yes"/>
      <point x="550" y="498" type="line"/>
      <point x="550" y="681"/>
      <point x="440" y="760"/>
      <point x="296" y="760" type="curve"/>
      <point x="286" y="760" type="line"/>
      <point x="142" y="760"/>
      <point x="31" y="687"/>
      <point x="31" y="529" type="curve"/>
      <point x="31" y="512" type="line"/>
      <point x="31" y="359"/>
      <point x="117" y="290"/>
      <point x="257" y="290" type="curve" smooth="yes"/>
      <point x="264" y="290" type="line" smooth="yes"/>
      <point x="336" y="290"/>
      <point x="391" y="322"/>
      <point x="417" y="374" type="curve"/>
      <point x="417" y="203" type="line" smooth="yes"/>
      <point x="417" y="82"/>
      <point x="376" y="30"/>
      <point x="295" y="30" type="curve"/>
      <point x="210" y="30"/>
      <point x="172" y="66"/>
      <point x="172" y="154" type="curve" smooth="yes"/>
      <point x="172" y="230" type="line"/>
      <point x="46" y="230" type="line"/>
      <point x="46" y="187" type="line" smooth="yes"/>
      <point x="46" y="51"/>
      <point x="143" y="-10"/>
      <point x="288" y="-10" type="curve"/>
    </contour>
  </outline>
</glyph>
<glyph name="question" format="1">
  <advance width="543"/>
  <unicode hex="003F"/>
  <outline>
    <contour>
      <point x="301" y="290"/>
      <point x="307" y="303"/>
      <point x="330" y="314" type="curve" smooth="yes"/>
      <point x="369" y="333" type="line" smooth="yes"/>
      <point x="470" y="379"/>
      <point x="504" y="447"/>
      <point x="504" y="526" type="curve" smooth="yes"/>
      <point x="504" y="557" type="line" smooth="yes"/>
      <point x="504" y="691"/>
      <point x="408" y="760"/>
      <point x="271" y="760" type="curve" smooth="yes"/>
      <point x="261" y="760" type="line" smooth="yes"/>
      <point x="128" y="760"/>
      <point x="31" y="699"/>
      <point x="31" y="563" type="curve" smooth="yes"/>
      <point x="31" y="513" type="line"/>
      <point x="157" y="513" type="line"/>
      <point x="157" y="596" type="line" smooth="yes"/>
      <point x="157" y="682"/>
      <point x="195" y="720"/>
      <point x="268" y="720" type="curve"/>
      <point x="343" y="720"/>
      <point x="381" y="677"/>
      <point x="381" y="600" type="curve"/>
      <point x="381" y="550" type="line" smooth="yes"/>
      <point x="381" y="489"/>
      <point x="364" y="457"/>
      <point x="307" y="427" type="curve" smooth="yes"/>
      <point x="262" y="406" type="line" smooth="yes"/>
      <point x="202" y="377"/>
      <point x="183" y="351"/>
      <point x="183" y="273" type="curve" smooth="yes"/>
      <point x="183" y="215" type="line"/>
      <point x="301" y="215" type="line"/>
      <point x="301" y="264" type="line" smooth="yes"/>
    </contour>
    <contour>
      <point x="174" y="155" type="line"/>
      <point x="174" y="0" type="line"/>
      <point x="310" y="0" type="line"/>
      <point x="310" y="155" type="line"/>
    </contour>
  </outline>
</glyph>
<glyph name="at" format="1">
  <advance width="895"/>
  <unicode hex="0040"/>
  <outline>
    <contour>
      <point x="-13" y="-10"/>
      <point x="93" y="-117"/>
      <point x="324" y="-117" type="curve" smooth="yes"/>
      <point x="496" y="-117" type="line"/>
      <point x="505" y="-77" type="line"/>
      <point x="330" y="-77" type="line" smooth="yes"/>
      <point x="122" y="-77"/>
      <point x="38" y="15"/>
      <point x="91" y="212" type="curve" smooth="yes"/>
      <point x="135" y="377" type="line" smooth="yes"/>
      <point x="184" y="559"/>
      <point x="305" y="639"/>
      <point x="496" y="639" type="curve" smooth="yes"/>
      <point x="569" y="639" type="line" smooth="yes"/>
      <point x="773" y="639"/>
      <point x="862" y="555"/>
      <point x="814" y="372" type="curve" smooth="yes"/>
      <point x="752" y="141" type="line" smooth="yes"/>
      <point x="737" y="83"/>
      <point x="708" y="59"/>
      <point x="666" y="59" type="curve"/>
      <point x="629" y="59"/>
      <point x="614" y="82"/>
      <point x="628" y="134" type="curve" smooth="yes"/>
      <point x="731" y="520" type="line"/>
      <point x="618" y="520" type="line"/>
      <point x="596" y="446" type="line"/>
      <point x="581" y="498"/>
      <point x="536" y="530"/>
      <point x="465" y="530" type="curve"/>
      <point x="464" y="530" type="line"/>
      <point x="350" y="530"/>
      <point x="268" y="458"/>
      <point x="229" y="313" type="curve" smooth="yes"/>
      <point x="207" y="227" type="line" smooth="yes"/>
      <point x="169" y="81"/>
      <point x="234" y="10"/>
      <point x="352" y="10" type="curve" smooth="yes"/>
      <point x="353" y="10" type="line" smooth="yes"/>
      <point x="420" y="10"/>
      <point x="484" y="42"/>
      <point x="519" y="91" type="curve"/>
      <point x="524" y="36"/>
      <point x="571" y="17"/>
      <point x="636" y="17" type="curve" smooth="yes"/>
      <point x="639" y="17" type="line" smooth="yes"/>
      <point x="725" y="17"/>
      <point x="773" y="57"/>
      <point x="794" y="137" type="curve" smooth="yes"/>
      <point x="857" y="372" type="line" smooth="yes"/>
      <point x="911" y="575"/>
      <point x="803" y="678"/>
      <point x="575" y="678" type="curve" smooth="yes"/>
      <point x="503" y="678" type="line" smooth="yes"/>
      <point x="283" y="678"/>
      <point x="148" y="587"/>
      <point x="92" y="377" type="curve" smooth="yes"/>
      <point x="48" y="215" type="line" smooth="yes"/>
    </contour>
    <contour>
      <point x="519" y="176" type="line" smooth="yes"/>
      <point x="500" y="99"/>
      <point x="443" y="52"/>
      <point x="385" y="52" type="curve"/>
      <point x="314" y="52"/>
      <point x="293" y="95"/>
      <point x="318" y="188" type="curve" smooth="yes"/>
      <point x="362" y="352" type="line" smooth="yes"/>
      <point x="387" y="444"/>
      <point x="422" y="488"/>
      <point x="484" y="488" type="curve"/>
      <point x="555" y="488"/>
      <point x="586" y="432"/>
      <point x="565" y="352" type="curve"/>
    </contour>
  </outline>
</glyph>
<glyph name="A" format="1">
  <advance width="588"/>
  <unicode hex="0041"/>
  <outline>
    <contour>
      <point x="349" y="285" type="line"/>
      <point x="147" y="285" type="line"/>
      <point x="248" y="637" type="line"/>
    </contour>
    <contour>
      <point x="135" y="242" type="line"/>
      <point x="361" y="242" type="line"/>
      <point x="431" y="0" type="line"/>
      <point x="570" y="0" type="line"/>
      <point x="354" y="750" type="line"/>
      <point x="234" y="750" type="line" smooth="yes"/>
      <point x="18" y="0" type="line"/>
      <point x="66" y="0" type="line"/>
    </contour>
  </outline>
</glyph>
<glyph name="E" format="1">
  <advance width="515"/>
  <unicode hex="0045"/>
  <outline>
    <contour>
      <point x="54" y="0" type="line"/>
      <point x="475" y="0" type="line"/>
      <point x="475" y="43" type="line"/>
      <point x="187" y="43" type="line"/>
      <point x="187" y="367" type="line"/>
      <point x="451" y="367" type="line"/>
      <point x="451" y="411" type="line"/>
      <point x="187" y="411" type="line"/>
      <point x="187" y="707" type="line"/>
      <point x="475" y="707" type="line"/>
      <point x="475" y="750" type="line"/>
      <point x="54" y="750" type="line" smooth="yes"/>
    </contour>
    <contour>
      <point x="274" y="375" type="move" name="center"/>
    </contour>
  </outline>
</glyph>
<glyph name="F" format="1">
  <advance width="498"/>
  <unicode hex="0046"/>
  <outline>
    <contour>
      <point x="54" y="0" type="line"/>
      <point x="187" y="0" type="line"/>
      <point x="187" y="363" type="line"/>
      <point x="447" y="363" type="line"/>
      <point x="447" y="406" type="line"/>
      <point x="187" y="406" type="line"/>
      <point x="187" y="707" type="line"/>
      <point x="471" y="707" type="line"/>
      <point x="471" y="750" type="line"/>
      <point x="54" y="750" type="line" smooth="yes"/>
    </contour>
  </outline>
</glyph>
<glyph name="G" format="1">
  <advance width="630"/>
  <unicode hex="0047"/>
  <outline>
    <contour>
      <point x="459" y="0" type="line"/>
      <point x="581" y="0" type="line" smooth="yes"/>
      <point x="581" y="379" type="line"/>
      <point x="303" y="379" type="line"/>
      <point x="303" y="336" type="line"/>
      <point x="449" y="336" type="line"/>
      <point x="449" y="194" type="line"/>
      <point x="449" y="93"/>
      <point x="404" y="36"/>
      <point x="315" y="36" type="curve"/>
      <point x="219" y="36"/>
      <point x="180" y="91"/>
      <point x="180" y="205" type="curve"/>
      <point x="180" y="538" type="line" smooth="yes"/>
      <point x="180" y="657"/>
      <point x="224" y="718"/>
      <point x="316" y="718" type="curve"/>
      <point x="409" y="718"/>
      <point x="448" y="666"/>
      <point x="448" y="553" type="curve" smooth="yes"/>
      <point x="448" y="487" type="line"/>
      <point x="577" y="487" type="line"/>
      <point x="577" y="546" type="line" smooth="yes"/>
      <point x="577" y="682"/>
      <point x="482" y="760"/>
      <point x="321" y="760" type="curve" smooth="yes"/>
      <point x="311" y="760" type="line" smooth="yes"/>
      <point x="145" y="760"/>
      <point x="44" y="669"/>
      <point x="44" y="479" type="curve" smooth="yes"/>
      <point x="44" y="249" type="line" smooth="yes"/>
      <point x="44" y="68"/>
      <point x="134" y="-10"/>
      <point x="284" y="-10" type="curve" smooth="yes"/>
      <point x="294" y="-10" type="line" smooth="yes"/>
      <point x="376" y="-10"/>
      <point x="431" y="23"/>
      <point x="457" y="72" type="curve"/>
    </contour>
  </outline>
</glyph>
<glyph name="H" format="1">
  <advance width="637"/>
  <unicode hex="0048"/>
  <outline>
    <contour>
      <point x="54" y="0" type="line"/>
      <point x="187" y="0" type="line"/>
      <point x="187" y="368" type="line"/>
      <point x="450" y="368" type="line"/>
      <point x="450" y="0" type="line"/>
      <point x="583" y="0" type="line"/>
      <point x="583" y="750" type="line"/>
      <point x="450" y="750" type="line"/>
      <point x="450" y="411" type="line"/>
      <point x="187" y="411" type="line"/>
      <point x="187" y="750" type="line"/>
      <point x="54" y="750" type="line"/>
    </contour>
  </outline>
</glyph>
<glyph name="I" format="1">
  <advance width="245"/>
  <unicode hex="0049"/>
  <outline>
    <contour>
      <point x="189" y="0" type="line"/>
      <point x="189" y="750" type="line"/>
      <point x="56" y="750" type="line" smooth="yes"/>
      <point x="56" y="0" type="line"/>
    </contour>
  </outline>
</glyph>
<glyph name="J" format="1">
  <advance width="350"/>
  <unicode hex="004A"/>
  <outline>
    <contour>
      <point x="301" y="750" type="line"/>
      <point x="168" y="750" type="line"/>
      <point x="168" y="155" type="line" smooth="yes"/>
      <point x="168" y="76"/>
      <point x="135" y="43"/>
      <point x="80" y="43" type="curve" smooth="yes"/>
      <point x="25" y="43" type="line"/>
      <point x="25" y="0" type="line"/>
      <point x="81" y="0" type="line" smooth="yes"/>
      <point x="216" y="0"/>
      <point x="301" y="56"/>
      <point x="301" y="184" type="curve" smooth="yes"/>
    </contour>
  </outline>
</glyph>
<glyph name="L" format="1">
  <advance width="501"/>
  <unicode hex="004C"/>
  <outline>
    <contour>
      <point x="54" y="0" type="line"/>
      <point x="476" y="0" type="line"/>
      <point x="476" y="43" type="line"/>
      <point x="187" y="43" type="line"/>
      <point x="187" y="750" type="line"/>
      <point x="54" y="750" type="line"/>
    </contour>
  </outline>
</glyph>
<glyph name="M" format="1">
  <advance width="770"/>
  <unicode hex="004D"/>
  <outline>
    <contour>
      <point x="101" y="614" type="line"/>
      <point x="297" y="0" type="line"/>
      <point x="388" y="0" type="line"/>
      <point x="584" y="606" type="line"/>
      <point x="584" y="0" type="line"/>
      <point x="717" y="0" type="line"/>
      <point x="717" y="750" type="line" smooth="yes"/>
      <point x="584" y="750" type="line"/>
      <point x="387" y="157" type="line"/>
      <point x="192" y="750" type="line"/>
      <point x="54" y="750" type="line" smooth="yes"/>
      <point x="54" y="0" type="line"/>
      <point x="101" y="0" type="line"/>
    </contour>
  </outline>
</glyph>
<glyph name="N" format="1">
  <advance width="597"/>
  <unicode hex="004E"/>
  <outline>
    <contour>
      <point x="101" y="608" type="line"/>
      <point x="437" y="0" type="line"/>
      <point x="543" y="0" type="line"/>
      <point x="543" y="750" type="line"/>
      <point x="496" y="750" type="line"/>
      <point x="496" y="175" type="line"/>
      <point x="178" y="750" type="line"/>
      <point x="54" y="750" type="line" smooth="yes"/>
      <point x="54" y="0" type="line"/>
      <point x="101" y="0" type="line"/>
    </contour>
  </outline>
</glyph>
<glyph name="P" format="1">
  <advance width="581"/>
  <unicode hex="0050"/>
  <outline>
    <contour>
      <point x="54" y="0" type="line"/>
      <point x="187" y="0" type="line"/>
      <point x="187" y="311" type="line"/>
      <point x="323" y="311" type="line"/>
      <point x="468" y="311"/>
      <point x="554" y="368"/>
      <point x="554" y="491" type="curve" smooth="yes"/>
      <point x="554" y="570" type="line" smooth="yes"/>
      <point x="554" y="692"/>
      <point x="468" y="750"/>
      <point x="323" y="750" type="curve" smooth="yes"/>
      <point x="54" y="750" type="line" smooth="yes"/>
    </contour>
    <contour>
      <point x="187" y="707" type="line"/>
      <point x="303" y="707" type="line"/>
      <point x="379" y="707"/>
      <point x="418" y="671"/>
      <point x="418" y="591" type="curve" smooth="yes"/>
      <point x="418" y="470" type="line"/>
      <point x="418" y="390"/>
      <point x="379" y="354"/>
      <point x="303" y="354" type="curve" smooth="yes"/>
      <point x="187" y="354" type="line"/>
    </contour>
  </outline>
</glyph>
<glyph name="Q" format="1">
  <advance width="649"/>
  <unicode hex="0051"/>
  <outline>
    <contour>
      <point x="563" y="-155" type="line"/>
      <point x="563" y="-62" type="line"/>
      <point x="489" y="-62" type="line" smooth="yes"/>
      <point x="436" y="-62"/>
      <point x="417" y="-53"/>
      <point x="402" y="-31" type="curve" smooth="yes"/>
      <point x="385" y="-7" type="line"/>
      <point x="525" y="11"/>
      <point x="605" y="102"/>
      <point x="605" y="271" type="curve" smooth="yes"/>
      <point x="605" y="479" type="line" smooth="yes"/>
      <point x="605" y="669"/>
      <point x="504" y="760"/>
      <point x="330" y="760" type="curve" smooth="yes"/>
      <point x="320" y="760" type="line" smooth="yes"/>
      <point x="145" y="760"/>
      <point x="44" y="669"/>
      <point x="44" y="479" type="curve" smooth="yes"/>
      <point x="44" y="271" type="line" smooth="yes"/>
      <point x="44" y="81"/>
      <point x="145" y="-10"/>
      <point x="320" y="-10" type="curve" smooth="yes"/>
      <point x="330" y="-10" type="line" smooth="yes"/>
      <point x="338" y="-10" type="line"/>
      <point x="369" y="-70" type="line" smooth="yes"/>
      <point x="400" y="-131"/>
      <point x="440" y="-155"/>
      <point x="513" y="-155" type="curve"/>
    </contour>
    <contour>
      <point x="426" y="718"/>
      <point x="469" y="657"/>
      <point x="469" y="538" type="curve" smooth="yes"/>
      <point x="469" y="213" type="line" smooth="yes"/>
      <point x="469" y="93"/>
      <point x="426" y="32"/>
      <point x="325" y="32" type="curve" smooth="yes"/>
      <point x="224" y="32"/>
      <point x="180" y="93"/>
      <point x="180" y="213" type="curve" smooth="yes"/>
      <point x="180" y="538" type="line" smooth="yes"/>
      <point x="180" y="657"/>
      <point x="224" y="718"/>
      <point x="325" y="718" type="curve" smooth="yes"/>
    </contour>
  </outline>
</glyph>
<glyph name="R" format="1">
  <advance width="612"/>
  <unicode hex="0052"/>
  <outline>
    <contour>
      <point x="187" y="707" type="line"/>
      <point x="321" y="707" type="line"/>
      <point x="396" y="707"/>
      <point x="436" y="671"/>
      <point x="436" y="591" type="curve" smooth="yes"/>
      <point x="436" y="525" type="line"/>
      <point x="436" y="444"/>
      <point x="396" y="409"/>
      <point x="321" y="409" type="curve" smooth="yes"/>
      <point x="187" y="409" type="line"/>
    </contour>
    <contour>
      <point x="323" y="366" type="line" smooth="yes"/>
      <point x="398" y="366"/>
      <point x="438" y="330"/>
      <point x="438" y="249" type="curve" smooth="yes"/>
      <point x="438" y="0" type="line"/>
      <point x="571" y="0" type="line"/>
      <point x="571" y="219" type="line"/>
      <point x="571" y="313"/>
      <point x="518" y="368"/>
      <point x="418" y="388" type="curve"/>
      <point x="516" y="408"/>
      <point x="571" y="462"/>
      <point x="571" y="554" type="curve" smooth="yes"/>
      <point x="571" y="570" type="line" smooth="yes"/>
      <point x="571" y="693"/>
      <point x="485" y="750"/>
      <point x="340" y="750" type="curve" smooth="yes"/>
      <point x="54" y="750" type="line" smooth="yes"/>
      <point x="54" y="0" type="line"/>
      <point x="187" y="0" type="line"/>
      <point x="187" y="366" type="line"/>
    </contour>
  </outline>
</glyph>
<glyph name="T" format="1">
  <advance width="558"/>
  <unicode hex="0054"/>
  <outline>
    <contour>
      <point x="14" y="707" type="line"/>
      <point x="213" y="707" type="line"/>
      <point x="213" y="0" type="line"/>
      <point x="346" y="0" type="line"/>
      <point x="346" y="707" type="line"/>
      <point x="544" y="707" type="line"/>
      <point x="544" y="750" type="line"/>
      <point x="14" y="750" type="line"/>
    </contour>
  </outline>
</glyph>
<glyph name="U" format="1">
  <advance width="586"/>
  <unicode hex="0055"/>
  <outline>
    <contour>
      <point x="538" y="750" type="line"/>
      <point x="490" y="750" type="line"/>
      <point x="490" y="218" type="line"/>
      <point x="490" y="90"/>
      <point x="436" y="36"/>
      <point x="335" y="36" type="curve"/>
      <point x="226" y="36"/>
      <point x="182" y="83"/>
      <point x="182" y="203" type="curve"/>
      <point x="182" y="750" type="line"/>
      <point x="49" y="750" type="line"/>
      <point x="49" y="222" type="line" smooth="yes"/>
      <point x="49" y="55"/>
      <point x="138" y="-10"/>
      <point x="303" y="-10" type="curve"/>
      <point x="313" y="-10" type="line"/>
      <point x="461" y="-10"/>
      <point x="538" y="62"/>
      <point x="538" y="221" type="curve" smooth="yes"/>
    </contour>
    <contour>
      <point x="315" y="370" type="move" name="center"/>
    </contour>
  </outline>
</glyph>
<glyph name="V" format="1">
  <advance width="561"/>
  <unicode hex="0056"/>
  <outline>
    <contour>
      <point x="338" y="0" type="line"/>
      <point x="543" y="750" type="line"/>
      <point x="495" y="750" type="line"/>
      <point x="324" y="116" type="line"/>
      <point x="155" y="750" type="line"/>
      <point x="18" y="750" type="line"/>
      <point x="221" y="0" type="line"/>
    </contour>
  </outline>
</glyph>
<glyph name="W" format="1">
  <advance width="889"/>
  <unicode hex="0057"/>
  <outline>
    <contour>
      <point x="440" y="618" type="line"/>
      <point x="576" y="0" type="line"/>
      <point x="688" y="0" type="line" smooth="yes"/>
      <point x="855" y="750" type="line"/>
      <point x="807" y="750" type="line"/>
      <point x="675" y="143" type="line"/>
      <point x="537" y="750" type="line"/>
      <point x="427" y="750" type="line"/>
      <point x="302" y="146" type="line"/>
      <point x="171" y="750" type="line"/>
      <point x="34" y="750" type="line"/>
      <point x="201" y="0" type="line"/>
      <point x="315" y="0" type="line" smooth="yes"/>
    </contour>
    <contour>
      <point x="478" y="375" type="move" name="center"/>
    </contour>
  </outline>
</glyph>
<glyph name="X" format="1">
  <advance width="564"/>
  <unicode hex="0058"/>
  <outline>
    <contour>
      <point x="247" y="315" type="line"/>
      <point x="404" y="0" type="line"/>
      <point x="552" y="0" type="line"/>
      <point x="341" y="423" type="line"/>
      <point x="532" y="750" type="line"/>
      <point x="484" y="750" type="line"/>
      <point x="318" y="467" type="line"/>
      <point x="177" y="750" type="line"/>
      <point x="29" y="750" type="line"/>
      <point x="224" y="359" type="line"/>
      <point x="13" y="0" type="line"/>
      <point x="61" y="0" type="line"/>
    </contour>
  </outline>
</glyph>
<glyph name="Y" format="1">
  <advance width="552"/>
  <unicode hex="0059"/>
  <outline>
    <contour>
      <point x="343" y="0" type="line"/>
      <point x="343" y="273" type="line"/>
      <point x="538" y="750" type="line"/>
      <point x="490" y="750" type="line"/>
      <point x="323" y="339" type="line"/>
      <point x="156" y="750" type="line"/>
      <point x="14" y="750" type="line"/>
      <point x="210" y="268" type="line"/>
      <point x="210" y="0" type="line"/>
    </contour>
    <contour>
      <point x="303" y="375" type="move" name="center"/>
    </contour>
  </outline>
</glyph>
<glyph name="Z" format="1">
  <advance width="505"/>
  <unicode hex="005A"/>
  <outline>
    <contour>
      <point x="25" y="0" type="line" smooth="yes"/>
      <point x="480" y="0" type="line"/>
      <point x="480" y="43" type="line"/>
      <point x="167" y="43" type="line"/>
      <point x="475" y="717" type="line"/>
      <point x="475" y="750" type="line" smooth="yes"/>
      <point x="34" y="750" type="line"/>
      <point x="34" y="707" type="line"/>
      <point x="333" y="707" type="line"/>
      <point x="25" y="34" type="line"/>
    </contour>
  </outline>
</glyph>
<glyph name="a" format="1">
  <advance width="525"/>
  <unicode hex="0061"/>
  <outline>
    <contour>
      <point x="152" y="136" type="line"/>
      <point x="152" y="177" type="line"/>
      <point x="152" y="244"/>
      <point x="182" y="276"/>
      <point x="257" y="276" type="curve" smooth="yes"/>
      <point x="361" y="276" type="line"/>
      <point x="361" y="172" type="line"/>
      <point x="361" y="85"/>
      <point x="313" y="35"/>
      <point x="247" y="35" type="curve"/>
      <point x="192" y="35"/>
      <point x="159" y="61"/>
      <point x="153" y="118" type="curve"/>
    </contour>
    <contour>
      <point x="225" y="-10" type="line"/>
      <point x="294" y="-10"/>
      <point x="343" y="23"/>
      <point x="367" y="70" type="curve"/>
      <point x="369" y="0" type="line"/>
      <point x="485" y="0" type="line"/>
      <point x="485" y="365" type="line" smooth="yes"/>
      <point x="485" y="497"/>
      <point x="401" y="563"/>
      <point x="270" y="563" type="curve" smooth="yes"/>
      <point x="260" y="563" type="line" smooth="yes"/>
      <point x="134" y="563"/>
      <point x="52" y="504"/>
      <point x="52" y="399" type="curve" smooth="yes"/>
      <point x="52" y="370" type="line"/>
      <point x="171" y="370" type="line"/>
      <point x="171" y="414" type="line"/>
      <point x="171" y="490"/>
      <point x="200" y="523"/>
      <point x="265" y="523" type="curve"/>
      <point x="329" y="523"/>
      <point x="361" y="489"/>
      <point x="361" y="405" type="curve"/>
      <point x="361" y="316" type="line"/>
      <point x="234" y="316" type="line" smooth="yes"/>
      <point x="93" y="316"/>
      <point x="24" y="261"/>
      <point x="24" y="161" type="curve" smooth="yes"/>
      <point x="24" y="149" type="line" smooth="yes"/>
      <point x="24" y="46"/>
      <point x="96" y="-10"/>
      <point x="219" y="-10" type="curve" smooth="yes"/>
    </contour>
    <contour>
      <point x="266" y="276" type="move" name="center"/>
    </contour>
  </outline>
</glyph>
<glyph name="b" format="1">
  <advance width="561"/>
  <unicode hex="0062"/>
  <outline>
    <contour>
      <point x="306" y="-10" type="line"/>
      <point x="440" y="-10"/>
      <point x="526" y="68"/>
      <point x="526" y="228" type="curve"/>
      <point x="526" y="325" type="line"/>
      <point x="526" y="485"/>
      <point x="440" y="563"/>
      <point x="306" y="563" type="curve"/>
      <point x="303" y="563" type="line"/>
      <point x="244" y="563"/>
      <point x="195" y="536"/>
      <point x="169" y="487" type="curve"/>
      <point x="169" y="750" type="line"/>
      <point x="45" y="750" type="line"/>
      <point x="45" y="0" type="line"/>
      <point x="161" y="0" type="line"/>
      <point x="164" y="68" type="line"/>
      <point x="190" y="18"/>
      <point x="242" y="-10"/>
      <point x="303" y="-10" type="curve"/>
    </contour>
    <contour>
      <point x="217" y="30"/>
      <point x="169" y="85"/>
      <point x="169" y="173" type="curve"/>
      <point x="169" y="380" type="line" smooth="yes"/>
      <point x="169" y="468"/>
      <point x="217" y="523"/>
      <point x="284" y="523" type="curve"/>
      <point x="367" y="523"/>
      <point x="398" y="473"/>
      <point x="398" y="372" type="curve"/>
      <point x="398" y="181" type="line"/>
      <point x="398" y="80"/>
      <point x="367" y="30"/>
      <point x="284" y="30" type="curve"/>
    </contour>
  </outline>
</glyph>
<glyph name="c" format="1">
  <advance width="531"/>
  <unicode hex="0063"/>
  <outline>
    <contour>
      <point x="163" y="473"/>
      <point x="194" y="523"/>
      <point x="267" y="523" type="curve"/>
      <point x="341" y="523"/>
      <point x="377" y="491"/>
      <point x="377" y="415" type="curve"/>
      <point x="377" y="347" type="line"/>
      <point x="496" y="347" type="line"/>
      <point x="496" y="382" type="line" smooth="yes"/>
      <point x="496" y="504"/>
      <point x="407" y="563"/>
      <point x="272" y="563" type="curve" smooth="yes"/>
      <point x="262" y="563" type="line" smooth="yes"/>
      <point x="122" y="563"/>
      <point x="35" y="484"/>
      <point x="35" y="325" type="curve"/>
      <point x="35" y="228" type="line" smooth="yes"/>
      <point x="35" y="69"/>
      <point x="122" y="-10"/>
      <point x="262" y="-10" type="curve" smooth="yes"/>
      <point x="272" y="-10" type="line" smooth="yes"/>
      <point x="407" y="-10"/>
      <point x="496" y="48"/>
      <point x="496" y="171" type="curve" smooth="yes"/>
      <point x="496" y="208" type="line"/>
      <point x="377" y="208" type="line"/>
      <point x="377" y="137" type="line"/>
      <point x="377" y="62"/>
      <point x="341" y="30"/>
      <point x="267" y="30" type="curve"/>
      <point x="194" y="30"/>
      <point x="163" y="80"/>
      <point x="163" y="181" type="curve" smooth="yes"/>
      <point x="163" y="372" type="line"/>
    </contour>
  </outline>
</glyph>
<glyph name="d" format="1">
  <advance width="561"/>
  <unicode hex="0064"/>
  <outline>
    <contour>
      <point x="392" y="85"/>
      <point x="344" y="30"/>
      <point x="277" y="30" type="curve"/>
      <point x="194" y="30"/>
      <point x="163" y="80"/>
      <point x="163" y="181" type="curve"/>
      <point x="163" y="372" type="line"/>
      <point x="163" y="473"/>
      <point x="194" y="523"/>
      <point x="277" y="523" type="curve"/>
      <point x="344" y="523"/>
      <point x="392" y="468"/>
      <point x="392" y="380" type="curve" smooth="yes"/>
      <point x="392" y="173" type="line"/>
    </contour>
    <contour>
      <point x="258" y="-10" type="line"/>
      <point x="319" y="-10"/>
      <point x="372" y="18"/>
      <point x="398" y="69" type="curve"/>
      <point x="400" y="0" type="line"/>
      <point x="516" y="0" type="line"/>
      <point x="516" y="750" type="line"/>
      <point x="392" y="750" type="line"/>
      <point x="392" y="487" type="line"/>
      <point x="366" y="536"/>
      <point x="317" y="563"/>
      <point x="258" y="563" type="curve"/>
      <point x="256" y="563" type="line"/>
      <point x="121" y="563"/>
      <point x="35" y="485"/>
      <point x="35" y="325" type="curve"/>
      <point x="35" y="228" type="line"/>
      <point x="35" y="68"/>
      <point x="121" y="-10"/>
      <point x="256" y="-10" type="curve"/>
    </contour>
  </outline>
</glyph>
<glyph name="e" format="1">
  <advance width="542"/>
  <unicode hex="0065"/>
  <outline>
    <contour>
      <point x="386" y="392" type="line"/>
      <point x="386" y="324" type="line"/>
      <point x="163" y="324" type="line"/>
      <point x="163" y="372" type="line"/>
      <point x="163" y="473"/>
      <point x="197" y="523"/>
      <point x="273" y="523" type="curve"/>
      <point x="345" y="523"/>
      <point x="381" y="487"/>
      <point x="385" y="410" type="curve"/>
    </contour>
    <contour>
      <point x="416" y="-10"/>
      <point x="507" y="48"/>
      <point x="507" y="171" type="curve" smooth="yes"/>
      <point x="507" y="211" type="line"/>
      <point x="389" y="211" type="line"/>
      <point x="389" y="137" type="line"/>
      <point x="389" y="62"/>
      <point x="349" y="30"/>
      <point x="273" y="30" type="curve"/>
      <point x="197" y="30"/>
      <point x="163" y="80"/>
      <point x="163" y="181" type="curve" smooth="yes"/>
      <point x="163" y="285" type="line"/>
      <point x="507" y="285" type="line"/>
      <point x="507" y="346" type="line" smooth="yes"/>
      <point x="507" y="490"/>
      <point x="419" y="563"/>
      <point x="278" y="563" type="curve" smooth="yes"/>
      <point x="268" y="563" type="line" smooth="yes"/>
      <point x="125" y="563"/>
      <point x="35" y="484"/>
      <point x="35" y="325" type="curve" smooth="yes"/>
      <point x="35" y="228" type="line" smooth="yes"/>
      <point x="35" y="69"/>
      <point x="125" y="-10"/>
      <point x="268" y="-10" type="curve" smooth="yes"/>
      <point x="278" y="-10" type="line" smooth="yes"/>
    </contour>
  </outline>
</glyph>
<glyph name="g" format="1">
  <advance width="561"/>
  <unicode hex="0067"/>
  <outline>
    <contour>
      <point x="344" y="523"/>
      <point x="392" y="468"/>
      <point x="392" y="380" type="curve"/>
      <point x="392" y="215" type="line"/>
      <point x="392" y="127"/>
      <point x="344" y="72"/>
      <point x="277" y="72" type="curve"/>
      <point x="194" y="72"/>
      <point x="163" y="122"/>
      <point x="163" y="223" type="curve"/>
      <point x="163" y="372" type="line"/>
      <point x="163" y="473"/>
      <point x="194" y="523"/>
      <point x="277" y="523" type="curve"/>
    </contour>
    <contour>
      <point x="284" y="-190" type="line" smooth="yes"/>
      <point x="421" y="-190"/>
      <point x="516" y="-135"/>
      <point x="516" y="2" type="curve" smooth="yes"/>
      <point x="516" y="553" type="line"/>
      <point x="400" y="553" type="line"/>
      <point x="398" y="483" type="line"/>
      <point x="372" y="534"/>
      <point x="319" y="563"/>
      <point x="258" y="563" type="curve" smooth="yes"/>
      <point x="256" y="563" type="line" smooth="yes"/>
      <point x="121" y="563"/>
      <point x="35" y="485"/>
      <point x="35" y="325" type="curve" smooth="yes"/>
      <point x="35" y="270" type="line" smooth="yes"/>
      <point x="35" y="110"/>
      <point x="121" y="32"/>
      <point x="256" y="32" type="curve" smooth="yes"/>
      <point x="258" y="32" type="line"/>
      <point x="317" y="32"/>
      <point x="366" y="59"/>
      <point x="392" y="108" type="curve"/>
      <point x="392" y="-41" type="line"/>
      <point x="392" y="-119"/>
      <point x="352" y="-151"/>
      <point x="281" y="-151" type="curve"/>
      <point x="203" y="-151"/>
      <point x="170" y="-118"/>
      <point x="170" y="-39" type="curve"/>
      <point x="170" y="-2" type="line"/>
      <point x="50" y="-2" type="line"/>
      <point x="50" y="-26" type="line" smooth="yes"/>
      <point x="50" y="-129"/>
      <point x="121" y="-190"/>
      <point x="273" y="-190" type="curve" smooth="yes"/>
    </contour>
    <contour>
      <point x="278" y="186" type="move" name="center"/>
    </contour>
  </outline>
</glyph>
<glyph name="h" format="1">
  <advance width="552"/>
  <unicode hex="0068"/>
  <outline>
    <contour>
      <point x="169" y="0" type="line"/>
      <point x="169" y="375" type="line" smooth="yes"/>
      <point x="169" y="463"/>
      <point x="218" y="518"/>
      <point x="287" y="518" type="curve"/>
      <point x="353" y="518"/>
      <point x="387" y="482"/>
      <point x="387" y="391" type="curve"/>
      <point x="387" y="0" type="line"/>
      <point x="512" y="0" type="line"/>
      <point x="512" y="369" type="line" smooth="yes"/>
      <point x="512" y="504"/>
      <point x="434" y="563"/>
      <point x="312" y="563" type="curve" smooth="yes"/>
      <point x="307" y="563" type="line" smooth="yes"/>
      <point x="247" y="563"/>
      <point x="196" y="534"/>
      <point x="169" y="486" type="curve"/>
      <point x="169" y="750" type="line"/>
      <point x="45" y="750" type="line"/>
      <point x="45" y="0" type="line"/>
    </contour>
  </outline>
</glyph>
<glyph name="i" format="1">
  <advance width="218"/>
  <unicode hex="0069"/>
  <outline>
    <contour>
      <point x="47" y="727" type="line"/>
      <point x="47" y="606" type="line"/>
      <point x="171" y="606" type="line"/>
      <point x="171" y="727" type="line" smooth="yes"/>
    </contour>
    <contour>
      <point x="171" y="0" type="line"/>
      <point x="171" y="553" type="line" smooth="yes"/>
      <point x="47" y="553" type="line"/>
      <point x="47" y="0" type="line"/>
    </contour>
  </outline>
</glyph>
<glyph name="j" format="1">
  <advance width="218"/>
  <unicode hex="006A"/>
  <outline>
    <contour>
      <point x="47" y="727" type="line"/>
      <point x="47" y="606" type="line"/>
      <point x="171" y="606" type="line"/>
      <point x="171" y="727" type="line" smooth="yes"/>
    </contour>
    <contour>
      <point x="4" y="-180" type="line" smooth="yes"/>
      <point x="119" y="-180"/>
      <point x="171" y="-141"/>
      <point x="171" y="-31" type="curve"/>
      <point x="171" y="553" type="line" smooth="yes"/>
      <point x="47" y="553" type="line"/>
      <point x="47" y="-52" type="line"/>
      <point x="47" y="-122"/>
      <point x="30" y="-141"/>
      <point x="-25" y="-141" type="curve" smooth="yes"/>
      <point x="-42" y="-141" type="line"/>
      <point x="-42" y="-180" type="line"/>
    </contour>
  </outline>
</glyph>
<glyph name="k" format="1">
  <advance width="525"/>
  <unicode hex="006B"/>
  <outline>
    <contour>
      <point x="169" y="200" type="line"/>
      <point x="236" y="277" type="line"/>
      <point x="379" y="0" type="line"/>
      <point x="515" y="0" type="line"/>
      <point x="319" y="373" type="line"/>
      <point x="475" y="553" type="line" smooth="yes"/>
      <point x="415" y="553" type="line"/>
      <point x="169" y="270" type="line"/>
      <point x="169" y="750" type="line" smooth="yes"/>
      <point x="45" y="750" type="line"/>
      <point x="45" y="0" type="line"/>
      <point x="169" y="0" type="line"/>
    </contour>
  </outline>
</glyph>
<glyph name="l" format="1">
  <advance width="218"/>
  <unicode hex="006C"/>
  <outline>
    <contour>
      <point x="47" y="750" type="line"/>
      <point x="47" y="0" type="line"/>
      <point x="171" y="0" type="line"/>
      <point x="171" y="750" type="line" smooth="yes"/>
    </contour>
  </outline>
</glyph>
<glyph name="m" format="1">
  <advance width="876"/>
  <unicode hex="006D"/>
  <outline>
    <contour>
      <point x="169" y="0" type="line"/>
      <point x="169" y="375" type="line" smooth="yes"/>
      <point x="169" y="463"/>
      <point x="216" y="518"/>
      <point x="282" y="518" type="curve"/>
      <point x="346" y="518"/>
      <point x="378" y="482"/>
      <point x="378" y="391" type="curve"/>
      <point x="378" y="0" type="line"/>
      <point x="503" y="0" type="line"/>
      <point x="503" y="375" type="line"/>
      <point x="503" y="463"/>
      <point x="549" y="518"/>
      <point x="615" y="518" type="curve"/>
      <point x="680" y="518"/>
      <point x="712" y="482"/>
      <point x="712" y="391" type="curve"/>
      <point x="712" y="0" type="line"/>
      <point x="836" y="0" type="line"/>
      <point x="836" y="369" type="line" smooth="yes"/>
      <point x="836" y="504"/>
      <point x="761" y="563"/>
      <point x="641" y="563" type="curve" smooth="yes"/>
      <point x="636" y="563" type="line" smooth="yes"/>
      <point x="568" y="563"/>
      <point x="508" y="526"/>
      <point x="485" y="465" type="curve"/>
      <point x="456" y="530"/>
      <point x="391" y="563"/>
      <point x="307" y="563" type="curve" smooth="yes"/>
      <point x="302" y="563" type="line" smooth="yes"/>
      <point x="242" y="563"/>
      <point x="189" y="532"/>
      <point x="164" y="480" type="curve"/>
      <point x="161" y="553" type="line"/>
      <point x="45" y="553" type="line"/>
      <point x="45" y="0" type="line"/>
    </contour>
  </outline>
</glyph>
<glyph name="n" format="1">
  <advance width="552"/>
  <unicode hex="006E"/>
  <outline>
    <contour>
      <point x="169" y="0" type="line"/>
      <point x="169" y="375" type="line" smooth="yes"/>
      <point x="169" y="463"/>
      <point x="218" y="518"/>
      <point x="287" y="518" type="curve"/>
      <point x="353" y="518"/>
      <point x="387" y="482"/>
      <point x="387" y="391" type="curve"/>
      <point x="387" y="0" type="line"/>
      <point x="512" y="0" type="line"/>
      <point x="512" y="369" type="line" smooth="yes"/>
      <point x="512" y="504"/>
      <point x="434" y="563"/>
      <point x="312" y="563" type="curve" smooth="yes"/>
      <point x="307" y="563" type="line" smooth="yes"/>
      <point x="244" y="563"/>
      <point x="190" y="532"/>
      <point x="164" y="480" type="curve"/>
      <point x="161" y="553" type="line"/>
      <point x="45" y="553" type="line"/>
      <point x="45" y="0" type="line"/>
    </contour>
    <contour>
      <point x="287" y="281" type="move" name="center"/>
    </contour>
  </outline>
</glyph>
<glyph name="o" format="1">
  <advance width="555"/>
  <unicode hex="006F"/>
  <outline>
    <contour>
      <point x="520" y="484"/>
      <point x="432" y="563"/>
      <point x="282" y="563" type="curve"/>
      <point x="272" y="563" type="line"/>
      <point x="122" y="563"/>
      <point x="35" y="484"/>
      <point x="35" y="325" type="curve" smooth="yes"/>
      <point x="35" y="228" type="line"/>
      <point x="35" y="69"/>
      <point x="122" y="-10"/>
      <point x="272" y="-10" type="curve"/>
      <point x="282" y="-10" type="line"/>
      <point x="432" y="-10"/>
      <point x="520" y="69"/>
      <point x="520" y="228" type="curve"/>
      <point x="520" y="325" type="line" smooth="yes"/>
    </contour>
    <contour>
      <point x="392" y="80"/>
      <point x="360" y="30"/>
      <point x="277" y="30" type="curve"/>
      <point x="194" y="30"/>
      <point x="163" y="80"/>
      <point x="163" y="181" type="curve"/>
      <point x="163" y="372" type="line" smooth="yes"/>
      <point x="163" y="473"/>
      <point x="194" y="523"/>
      <point x="277" y="523" type="curve"/>
      <point x="360" y="523"/>
      <point x="392" y="473"/>
      <point x="392" y="372" type="curve"/>
      <point x="392" y="181" type="line"/>
    </contour>
  </outline>
</glyph>
<glyph name="q" format="1">
  <advance width="561"/>
  <unicode hex="0071"/>
  <outline>
    <contour>
      <point x="516" y="-180" type="line"/>
      <point x="516" y="553" type="line"/>
      <point x="400" y="553" type="line"/>
      <point x="398" y="483" type="line"/>
      <point x="372" y="534"/>
      <point x="319" y="563"/>
      <point x="258" y="563" type="curve"/>
      <point x="256" y="563" type="line"/>
      <point x="121" y="563"/>
      <point x="35" y="485"/>
      <point x="35" y="325" type="curve"/>
      <point x="35" y="228" type="line"/>
      <point x="35" y="68"/>
      <point x="121" y="-10"/>
      <point x="256" y="-10" type="curve"/>
      <point x="258" y="-10" type="line"/>
      <point x="317" y="-10"/>
      <point x="366" y="17"/>
      <point x="392" y="66" type="curve"/>
      <point x="392" y="-180" type="line"/>
    </contour>
    <contour>
      <point x="344" y="523"/>
      <point x="392" y="468"/>
      <point x="392" y="380" type="curve"/>
      <point x="392" y="173" type="line" smooth="yes"/>
      <point x="392" y="85"/>
      <point x="344" y="30"/>
      <point x="277" y="30" type="curve"/>
      <point x="194" y="30"/>
      <point x="163" y="80"/>
      <point x="163" y="181" type="curve"/>
      <point x="163" y="372" type="line"/>
      <point x="163" y="473"/>
      <point x="194" y="523"/>
      <point x="277" y="523" type="curve"/>
    </contour>
  </outline>
</glyph>
<glyph name="r" format="1">
  <advance width="372"/>
  <unicode hex="0072"/>
  <outline>
    <contour>
      <point x="45" y="0" type="line"/>
      <point x="168" y="0" type="line"/>
      <point x="168" y="303" type="line" smooth="yes"/>
      <point x="168" y="415"/>
      <point x="215" y="469"/>
      <point x="293" y="469" type="curve" smooth="yes"/>
      <point x="351" y="469" type="line"/>
      <point x="351" y="553" type="line"/>
      <point x="312" y="553" type="line" smooth="yes"/>
      <point x="235" y="553"/>
      <point x="183" y="496"/>
      <point x="163" y="421" type="curve"/>
      <point x="161" y="553" type="line"/>
      <point x="45" y="553" type="line"/>
    </contour>
    <contour>
      <point x="205" y="276" type="move" name="center"/>
    </contour>
  </outline>
</glyph>
<glyph name="s" format="1">
  <advance width="497"/>
  <unicode hex="0073"/>
  <outline>
    <contour>
      <point x="142" y="171" type="line" smooth="yes"/>
      <point x="26" y="171" type="line"/>
      <point x="26" y="141" type="line" smooth="yes"/>
      <point x="26" y="42"/>
      <point x="102" y="-10"/>
      <point x="241" y="-10" type="curve" smooth="yes"/>
      <point x="254" y="-10" type="line" smooth="yes"/>
      <point x="390" y="-10"/>
      <point x="471" y="52"/>
      <point x="471" y="147" type="curve" smooth="yes"/>
      <point x="471" y="159" type="line" smooth="yes"/>
      <point x="471" y="238"/>
      <point x="431" y="289"/>
      <point x="330" y="316" type="curve" smooth="yes"/>
      <point x="219" y="348" type="line" smooth="yes"/>
      <point x="170" y="363"/>
      <point x="148" y="386"/>
      <point x="148" y="427" type="curve" smooth="yes"/>
      <point x="148" y="436" type="line" smooth="yes"/>
      <point x="148" y="492"/>
      <point x="181" y="523"/>
      <point x="249" y="523" type="curve"/>
      <point x="316" y="523"/>
      <point x="347" y="493"/>
      <point x="347" y="433" type="curve" smooth="yes"/>
      <point x="347" y="390" type="line" smooth="yes"/>
      <point x="459" y="390" type="line"/>
      <point x="459" y="412" type="line" smooth="yes"/>
      <point x="459" y="509"/>
      <point x="384" y="563"/>
      <point x="256" y="563" type="curve" smooth="yes"/>
      <point x="246" y="563" type="line" smooth="yes"/>
      <point x="119" y="563"/>
      <point x="40" y="501"/>
      <point x="40" y="405" type="curve" smooth="yes"/>
      <point x="40" y="396" type="line" smooth="yes"/>
      <point x="40" y="315"/>
      <point x="81" y="264"/>
      <point x="182" y="237" type="curve" smooth="yes"/>
      <point x="289" y="205" type="line" smooth="yes"/>
      <point x="337" y="191"/>
      <point x="359" y="167"/>
      <point x="359" y="126" type="curve" smooth="yes"/>
      <point x="359" y="116" type="line"/>
      <point x="359" y="61"/>
      <point x="324" y="30"/>
      <point x="249" y="30" type="curve"/>
      <point x="172" y="30"/>
      <point x="142" y="59"/>
      <point x="142" y="120" type="curve"/>
    </contour>
  </outline>
</glyph>
<glyph name="t" format="1">
  <advance width="339"/>
  <unicode hex="0074"/>
  <outline>
    <contour>
      <point x="82" y="37"/>
      <point x="119" y="0"/>
      <point x="233" y="0" type="curve" smooth="yes"/>
      <point x="317" y="0" type="line"/>
      <point x="317" y="40" type="line"/>
      <point x="269" y="40" type="line" smooth="yes"/>
      <point x="223" y="40"/>
      <point x="206" y="56"/>
      <point x="206" y="120" type="curve" smooth="yes"/>
      <point x="206" y="513" type="line"/>
      <point x="317" y="513" type="line"/>
      <point x="317" y="553" type="line"/>
      <point x="206" y="553" type="line"/>
      <point x="206" y="694" type="line"/>
      <point x="82" y="694" type="line"/>
      <point x="82" y="553" type="line"/>
      <point x="16" y="553" type="line"/>
      <point x="16" y="513" type="line"/>
      <point x="82" y="513" type="line"/>
      <point x="82" y="140" type="line" smooth="yes"/>
    </contour>
    <contour>
      <point x="204" y="343" type="move" name="center"/>
    </contour>
  </outline>
</glyph>
<glyph name="u" format="1">
  <advance width="547"/>
  <unicode hex="0075"/>
  <outline>
    <contour>
      <point x="243" y="-10" type="line" smooth="yes"/>
      <point x="305" y="-10"/>
      <point x="358" y="21"/>
      <point x="384" y="74" type="curve"/>
      <point x="386" y="0" type="line"/>
      <point x="502" y="0" type="line"/>
      <point x="502" y="553" type="line"/>
      <point x="378" y="553" type="line"/>
      <point x="378" y="178" type="line" smooth="yes"/>
      <point x="378" y="90"/>
      <point x="330" y="35"/>
      <point x="263" y="35" type="curve"/>
      <point x="198" y="35"/>
      <point x="164" y="71"/>
      <point x="164" y="161" type="curve"/>
      <point x="164" y="553" type="line"/>
      <point x="40" y="553" type="line"/>
      <point x="40" y="184" type="line" smooth="yes"/>
      <point x="40" y="49"/>
      <point x="117" y="-10"/>
      <point x="238" y="-10" type="curve"/>
    </contour>
  </outline>
</glyph>
<glyph name="v" format="1">
  <advance width="480"/>
  <unicode hex="0076"/>
  <outline>
    <contour>
      <point x="299" y="0" type="line" smooth="yes"/>
      <point x="463" y="553" type="line"/>
      <point x="415" y="553" type="line"/>
      <point x="283" y="105" type="line"/>
      <point x="150" y="553" type="line"/>
      <point x="18" y="553" type="line"/>
      <point x="181" y="0" type="line"/>
    </contour>
  </outline>
</glyph>
<glyph name="w" format="1">
  <advance width="767"/>
  <unicode hex="0077"/>
  <outline>
    <contour>
      <point x="385" y="439" type="line"/>
      <point x="492" y="0" type="line"/>
      <point x="599" y="0" type="line" smooth="yes"/>
      <point x="744" y="553" type="line"/>
      <point x="696" y="553" type="line"/>
      <point x="584" y="119" type="line"/>
      <point x="475" y="553" type="line"/>
      <point x="367" y="553" type="line"/>
      <point x="262" y="115" type="line"/>
      <point x="152" y="553" type="line"/>
      <point x="23" y="553" type="line"/>
      <point x="168" y="0" type="line"/>
      <point x="280" y="0" type="line" smooth="yes"/>
    </contour>
    <contour>
      <point x="418" y="276" type="move" name="center"/>
    </contour>
  </outline>
</glyph>
<glyph name="x" format="1">
  <advance width="508"/>
  <unicode hex="0078"/>
  <outline>
    <contour>
      <point x="222" y="223" type="line"/>
      <point x="352" y="0" type="line"/>
      <point x="491" y="0" type="line"/>
      <point x="310" y="310" type="line"/>
      <point x="475" y="553" type="line"/>
      <point x="424" y="553" type="line" smooth="yes"/>
      <point x="287" y="350" type="line"/>
      <point x="168" y="553" type="line" smooth="yes"/>
      <point x="29" y="553" type="line"/>
      <point x="199" y="262" type="line"/>
      <point x="18" y="0" type="line"/>
      <point x="68" y="0" type="line"/>
    </contour>
  </outline>
</glyph>
<glyph name="y" format="1">
  <advance width="492"/>
  <unicode hex="0079"/>
  <outline>
    <contour>
      <point x="214" y="-180" type="line"/>
      <point x="474" y="553" type="line"/>
      <point x="426" y="553" type="line"/>
      <point x="288" y="164" type="line"/>
      <point x="154" y="553" type="line"/>
      <point x="18" y="553" type="line"/>
      <point x="221" y="-25" type="line"/>
      <point x="166" y="-180" type="line" smooth="yes"/>
    </contour>
    <contour>
      <point x="273" y="186" type="move" name="center"/>
    </contour>
  </outline>
</glyph>
<glyph name="z" format="1">
  <advance width="444"/>
  <unicode hex="007A"/>
  <outline>
    <contour>
      <point x="20" y="0" type="line" smooth="yes"/>
      <point x="424" y="0" type="line"/>
      <point x="424" y="40" type="line"/>
      <point x="159" y="40" type="line"/>
      <point x="419" y="521" type="line"/>
      <point x="419" y="553" type="line" smooth="yes"/>
      <point x="29" y="553" type="line"/>
      <point x="29" y="513" type="line"/>
      <point x="280" y="513" type="line"/>
      <point x="20" y="32" type="line"/>
    </contour>
  </outline>
</glyph>
<glyph name="exclamdown" format="1">
  <advance width="278"/>
  <unicode hex="00A1"/>
  <outline>
    <contour>
      <point x="71" y="496" type="line"/>
      <point x="207" y="496" type="line"/>
      <point x="207" y="651" type="line"/>
      <point x="71" y="651" type="line"/>
    </contour>
    <contour>
      <point x="86" y="436" type="line"/>
      <point x="74" y="-99" type="line"/>
      <point x="204" y="-99" type="line"/>
      <point x="192" y="436" type="line"/>
    </contour>
  </outline>
</glyph>
<glyph name="ordfeminine" format="1">
  <advance width="427"/>
  <unicode hex="00AA"/>
  <outline>
    <contour>
      <point x="140" y="435" type="line"/>
      <point x="140" y="466" type="line"/>
      <point x="140" y="514"/>
      <point x="159" y="537"/>
      <point x="215" y="537" type="curve" smooth="yes"/>
      <point x="285" y="537" type="line"/>
      <point x="285" y="467" type="line"/>
      <point x="285" y="398"/>
      <point x="255" y="363"/>
      <point x="206" y="363" type="curve"/>
      <point x="168" y="363"/>
      <point x="146" y="380"/>
      <point x="141" y="418" type="curve"/>
    </contour>
    <contour>
      <point x="190" y="324" type="line"/>
      <point x="240" y="324"/>
      <point x="272" y="348"/>
      <point x="289" y="381" type="curve"/>
      <point x="291" y="333" type="line"/>
      <point x="387" y="333" type="line"/>
      <point x="387" y="613" type="line" smooth="yes"/>
      <point x="387" y="708"/>
      <point x="325" y="760"/>
      <point x="223" y="760" type="curve" smooth="yes"/>
      <point x="215" y="760" type="line" smooth="yes"/>
      <point x="122" y="760"/>
      <point x="56" y="715"/>
      <point x="56" y="636" type="curve" smooth="yes"/>
      <point x="56" y="614" type="line"/>
      <point x="154" y="614" type="line"/>
      <point x="154" y="647" type="line"/>
      <point x="154" y="704"/>
      <point x="172" y="725"/>
      <point x="219" y="725" type="curve"/>
      <point x="267" y="725"/>
      <point x="285" y="704"/>
      <point x="285" y="640" type="curve"/>
      <point x="285" y="573" type="line"/>
      <point x="198" y="573" type="line" smooth="yes"/>
      <point x="86" y="573"/>
      <point x="35" y="529"/>
      <point x="35" y="454" type="curve" smooth="yes"/>
      <point x="35" y="445" type="line" smooth="yes"/>
      <point x="35" y="368"/>
      <point x="94" y="324"/>
      <point x="185" y="324" type="curve" smooth="yes"/>
    </contour>
  </outline>
</glyph>
<glyph name="ordmasculine" format="1">
  <advance width="440"/>
  <unicode hex="00BA"/>
  <outline>
    <contour>
      <point x="405" y="579" type="line" smooth="yes"/>
      <point x="405" y="699"/>
      <point x="324" y="760"/>
      <point x="224" y="760" type="curve"/>
      <point x="216" y="760" type="line"/>
      <point x="115" y="760"/>
      <point x="35" y="699"/>
      <point x="35" y="579" type="curve" smooth="yes"/>
      <point x="35" y="504" type="line"/>
      <point x="35" y="385"/>
      <point x="115" y="324"/>
      <point x="216" y="324" type="curve"/>
      <point x="224" y="324" type="line"/>
      <point x="324" y="324"/>
      <point x="405" y="385"/>
      <point x="405" y="504" type="curve"/>
    </contour>
    <contour>
      <point x="300" y="390"/>
      <point x="273" y="360"/>
      <point x="220" y="360" type="curve"/>
      <point x="167" y="360"/>
      <point x="140" y="390"/>
      <point x="140" y="470" type="curve"/>
      <point x="140" y="615" type="line" smooth="yes"/>
      <point x="140" y="694"/>
      <point x="167" y="725"/>
      <point x="220" y="725" type="curve"/>
      <point x="273" y="725"/>
      <point x="300" y="694"/>
      <point x="300" y="615" type="curve"/>
      <point x="300" y="470" type="line"/>
    </contour>
  </outline>
</glyph>
<glyph name="questiondown" format="1">
  <advance width="543"/>
  <unicode hex="00BF"/>
  <outline>
    <contour>
      <point x="369" y="496" type="line"/>
      <point x="369" y="651" type="line"/>
      <point x="233" y="651" type="line"/>
      <point x="233" y="496" type="line"/>
    </contour>
    <contour>
      <point x="242" y="361"/>
      <point x="236" y="348"/>
      <point x="213" y="337" type="curve" smooth="yes"/>
      <point x="174" y="318" type="line" smooth="yes"/>
      <point x="73" y="272"/>
      <point x="39" y="204"/>
      <point x="39" y="125" type="curve" smooth="yes"/>
      <point x="39" y="94" type="line" smooth="yes"/>
      <point x="39" y="-40"/>
      <point x="135" y="-109"/>
      <point x="272" y="-109" type="curve" smooth="yes"/>
      <point x="282" y="-109" type="line" smooth="yes"/>
      <point x="415" y="-109"/>
      <point x="512" y="-48"/>
      <point x="512" y="88" type="curve" smooth="yes"/>
      <point x="512" y="138" type="line"/>
      <point x="386" y="138" type="line"/>
      <point x="386" y="55" type="line" smooth="yes"/>
      <point x="386" y="-31"/>
      <point x="348" y="-69"/>
      <point x="275" y="-69" type="curve" smooth="yes"/>
      <point x="200" y="-69"/>
      <point x="162" y="-26"/>
      <point x="162" y="51" type="curve" smooth="yes"/>
      <point x="162" y="101" type="line" smooth="yes"/>
      <point x="162" y="162"/>
      <point x="179" y="194"/>
      <point x="236" y="224" type="curve" smooth="yes"/>
      <point x="281" y="245" type="line" smooth="yes"/>
      <point x="341" y="274"/>
      <point x="360" y="300"/>
      <point x="360" y="378" type="curve" smooth="yes"/>
      <point x="360" y="436" type="line"/>
      <point x="242" y="436" type="line"/>
      <point x="242" y="387" type="line" smooth="yes"/>
    </contour>
  </outline>
</glyph>
<glyph name="fraction" format="1">
  <advance width="448"/>
  <unicode hex="2044"/>
  <outline>
    <contour>
      <point x="393" y="750" type="line"/>
      <point x="0" y="0" type="line"/>
      <point x="55" y="0" type="line"/>
      <point x="448" y="750" type="line"/>
    </contour>
  </outline>
</glyph>
<glyph name="f_i" format="1">
  <advance width="551"/>
  <unicode hex="FB01"/>
  <outline>
    <contour>
      <point x="380" y="727" type="line"/>
      <point x="380" y="606" type="line"/>
      <point x="504" y="606" type="line"/>
      <point x="504" y="727" type="line" smooth="yes"/>
    </contour>
    <contour>
      <point x="207" y="0" type="line"/>
      <point x="207" y="513" type="line"/>
      <point x="380" y="513" type="line"/>
      <point x="380" y="0" type="line"/>
      <point x="504" y="0" type="line"/>
      <point x="504" y="553" type="line" smooth="yes"/>
      <point x="207" y="553" type="line"/>
      <point x="207" y="614" type="line" smooth="yes"/>
      <point x="207" y="687"/>
      <point x="224" y="711"/>
      <point x="279" y="711" type="curve" smooth="yes"/>
      <point x="317" y="711" type="line"/>
      <point x="317" y="750" type="line"/>
      <point x="248" y="750" type="line" smooth="yes"/>
      <point x="133" y="750"/>
      <point x="83" y="708"/>
      <point x="83" y="596" type="curve" smooth="yes"/>
      <point x="83" y="553" type="line"/>
      <point x="16" y="553" type="line"/>
      <point x="16" y="513" type="line"/>
      <point x="83" y="513" type="line"/>
      <point x="83" y="0" type="line"/>
    </contour>
  </outline>
</glyph>
<glyph name="f_l" format="1">
  <advance width="551"/>
  <unicode hex="FB02"/>
  <outline>
    <contour>
      <point x="207" y="0" type="line"/>
      <point x="207" y="513" type="line"/>
      <point x="317" y="513" type="line"/>
      <point x="317" y="553" type="line"/>
      <point x="207" y="553" type="line"/>
      <point x="207" y="614" type="line" smooth="yes"/>
      <point x="207" y="687"/>
      <point x="224" y="711"/>
      <point x="279" y="711" type="curve" smooth="yes"/>
      <point x="380" y="711" type="line"/>
      <point x="380" y="0" type="line"/>
      <point x="504" y="0" type="line"/>
      <point x="504" y="750" type="line" smooth="yes"/>
      <point x="248" y="750" type="line" smooth="yes"/>
      <point x="133" y="750"/>
      <point x="83" y="708"/>
      <point x="83" y="596" type="curve" smooth="yes"/>
      <point x="83" y="553" type="line"/>
      <point x="16" y="553" type="line"/>
      <point x="16" y="513" type="line"/>
      <point x="83" y="513" type="line"/>
      <point x="83" y="0" type="line"/>
    </contour>
  </outline>
</glyph>
<glyph name="A.random1" format="1">
  <advance width="561"/>
  <outline>
    <contour>
      <point x="368" y="293" type="line"/>
      <point x="148" y="293" type="line"/>
      <point x="258" y="663" type="line"/>
    </contour>
    <contour>
      <point x="137" y="258" type="line"/>
      <point x="379" y="258" type="line"/>
      <point x="456" y="0" type="line"/>
      <point x="541" y="0" type="line"/>
      <point x="315" y="750" type="line"/>
      <point x="246" y="750" type="line" smooth="yes"/>
      <point x="20" y="0" type="line"/>
      <point x="60" y="0" type="line"/>
    </contour>
  </outline>
</glyph>
<glyph name="A.random2" format="1">
  <advance width="644"/>
  <outline>
    <contour>
      <point x="308" y="268" type="line"/>
      <point x="147" y="268" type="line"/>
      <point x="228" y="578" type="line"/>
    </contour>
    <contour>
      <point x="132" y="207" type="line"/>
      <point x="323" y="207" type="line"/>
      <point x="377" y="0" type="line"/>
      <point x="632" y="0" type="line"/>
      <point x="435" y="750" type="line"/>
      <point x="209" y="750" type="line" smooth="yes"/>
      <point x="12" y="0" type="line"/>
      <point x="78" y="0" type="line"/>
    </contour>
  </outline>
</glyph>
<glyph name="A.sc" format="1">
  <advance width="540"/>
  <outline>
    <contour>
      <point x="316" y="241" type="line"/>
      <point x="136" y="241" type="line"/>
      <point x="226" y="540" type="line"/>
    </contour>
    <contour>
      <point x="124" y="198" type="line"/>
      <point x="329" y="198" type="line"/>
      <point x="388" y="0" type="line"/>
      <point x="523" y="0" type="line"/>
      <point x="328" y="645" type="line"/>
      <point x="212" y="645" type="line" smooth="yes"/>
      <point x="18" y="0" type="line"/>
      <point x="64" y="0" type="line"/>
    </contour>
  </outline>
</glyph>
<glyph name="A.swash" format="1">
  <advance width="588"/>
  <outline>
    <contour>
      <point x="349" y="285" type="line"/>
      <point x="147" y="285" type="line"/>
      <point x="248" y="637" type="line"/>
    </contour>
    <contour>
      <point x="135" y="242" type="line"/>
      <point x="361" y="242" type="line"/>
      <point x="431" y="0" type="line"/>
      <point x="570" y="0" type="line"/>
      <point x="354" y="750" type="line"/>
      <point x="234" y="750" type="line" smooth="yes"/>
      <point x="18" y="0" type="line"/>
      <point x="66" y="0" type="line"/>
    </contour>
  </outline>
</glyph>
<glyph name="A.title" format="1">
  <advance width="588"/>
  <outline>
    <contour>
      <point x="349" y="285" type="line"/>
      <point x="147" y="285" type="line"/>
      <point x="248" y="637" type="line"/>
    </contour>
    <contour>
      <point x="135" y="242" type="line"/>
      <point x="361" y="242" type="line"/>
      <point x="431" y="0" type="line"/>
      <point x="570" y="0" type="line"/>
      <point x="354" y="750" type="line"/>
      <point x="234" y="750" type="line" smooth="yes"/>
      <point x="18" y="0" type="line"/>
      <point x="66" y="0" type="line"/>
    </contour>
    <contour>
      <point x="467" y="43" type="line"/>
      <point x="277" y="707" type="line"/>
      <point x="324" y="707" type="line"/>
      <point x="514" y="43" type="line"/>
    </contour>
  </outline>
</glyph>
<glyph name="B.random1" format="1">
  <advance width="562.0"/>
  <outline>
    <contour>
      <point x="302" y="0" type="line" smooth="yes"/>
      <point x="441" y="0"/>
      <point x="530" y="58"/>
      <point x="530" y="183" type="curve" smooth="yes"/>
      <point x="530" y="221" type="line" smooth="yes"/>
      <point x="530" y="323"/>
      <point x="468" y="379"/>
      <point x="361" y="397" type="curve"/>
      <point x="452" y="419"/>
      <point x="506" y="473"/>
      <point x="506" y="564" type="curve"/>
      <point x="506" y="567" type="line"/>
      <point x="506" y="692"/>
      <point x="417" y="750"/>
      <point x="278" y="750" type="curve"/>
      <point x="60" y="750" type="line" smooth="yes"/>
      <point x="60" y="0" type="line"/>
    </contour>
    <contour>
      <point x="139" y="715" type="line"/>
      <point x="283" y="715" type="line"/>
      <point x="375" y="715"/>
      <point x="424" y="672"/>
      <point x="424" y="577" type="curve" smooth="yes"/>
      <point x="424" y="549" type="line"/>
      <point x="424" y="454"/>
      <point x="375" y="411"/>
      <point x="283" y="411" type="curve"/>
      <point x="139" y="411" type="line"/>
    </contour>
    <contour>
      <point x="139" y="35" type="line"/>
      <point x="139" y="376" type="line"/>
      <point x="307" y="376" type="line"/>
      <point x="399" y="376"/>
      <point x="448" y="333"/>
      <point x="448" y="238" type="curve"/>
      <point x="448" y="173" type="line" smooth="yes"/>
      <point x="448" y="78"/>
      <point x="399" y="35"/>
      <point x="307" y="35" type="curve" smooth="yes"/>
    </contour>
  </outline>
</glyph>
<glyph name="B.random2" format="1">
  <advance width="688"/>
  <outline>
    <contour>
      <point x="428" y="0" type="line"/>
      <point x="585" y="0"/>
      <point x="664" y="56"/>
      <point x="664" y="173" type="curve"/>
      <point x="664" y="226" type="line"/>
      <point x="664" y="316"/>
      <point x="616" y="368"/>
      <point x="512" y="387" type="curve"/>
      <point x="609" y="408"/>
      <point x="655" y="459"/>
      <point x="655" y="546" type="curve"/>
      <point x="655" y="577" type="line"/>
      <point x="655" y="694"/>
      <point x="575" y="750"/>
      <point x="419" y="750" type="curve"/>
      <point x="41" y="750" type="line" smooth="yes"/>
      <point x="41" y="0" type="line"/>
    </contour>
    <contour>
      <point x="286" y="689" type="line"/>
      <point x="347" y="689" type="line"/>
      <point x="387" y="689"/>
      <point x="407" y="670"/>
      <point x="407" y="619" type="curve"/>
      <point x="407" y="487" type="line"/>
      <point x="407" y="436"/>
      <point x="387" y="416"/>
      <point x="347" y="416" type="curve"/>
      <point x="286" y="416" type="line"/>
    </contour>
    <contour>
      <point x="286" y="61" type="line"/>
      <point x="286" y="356" type="line"/>
      <point x="354" y="356" type="line"/>
      <point x="394" y="356"/>
      <point x="414" y="336"/>
      <point x="414" y="286" type="curve"/>
      <point x="414" y="132" type="line"/>
      <point x="414" y="80"/>
      <point x="394" y="61"/>
      <point x="354" y="61" type="curve"/>
    </contour>
  </outline>
</glyph>
<glyph name="B.sc" format="1">
  <advance width="560"/>
  <outline>
    <contour>
      <point x="322" y="0" type="line"/>
      <point x="450" y="0"/>
      <point x="530" y="49"/>
      <point x="530" y="155" type="curve"/>
      <point x="530" y="191" type="line"/>
      <point x="530" y="270"/>
      <point x="479" y="321"/>
      <point x="382" y="338" type="curve"/>
      <point x="467" y="356"/>
      <point x="513" y="403"/>
      <point x="513" y="479" type="curve" smooth="yes"/>
      <point x="513" y="492" type="line" smooth="yes"/>
      <point x="513" y="595"/>
      <point x="442" y="645"/>
      <point x="306" y="645" type="curve" smooth="yes"/>
      <point x="54" y="645" type="line" smooth="yes"/>
      <point x="54" y="0" type="line"/>
    </contour>
    <contour>
      <point x="182" y="602" type="line"/>
      <point x="283" y="602" type="line"/>
      <point x="355" y="602"/>
      <point x="384" y="576"/>
      <point x="384" y="508" type="curve"/>
      <point x="384" y="457" type="line"/>
      <point x="384" y="387"/>
      <point x="352" y="358"/>
      <point x="283" y="358" type="curve"/>
      <point x="182" y="358" type="line"/>
    </contour>
    <contour>
      <point x="182" y="43" type="line"/>
      <point x="182" y="314" type="line"/>
      <point x="299" y="314" type="line"/>
      <point x="366" y="314"/>
      <point x="399" y="281"/>
      <point x="399" y="215" type="curve"/>
      <point x="399" y="137" type="line"/>
      <point x="399" y="70"/>
      <point x="365" y="43"/>
      <point x="299" y="43" type="curve"/>
    </contour>
  </outline>
</glyph>
<glyph name="B.swash" format="1">
  <advance width="603"/>
  <outline>
    <contour>
      <point x="343" y="0" type="line"/>
      <point x="487" y="0"/>
      <point x="573" y="57"/>
      <point x="573" y="180" type="curve"/>
      <point x="573" y="223" type="line"/>
      <point x="573" y="320"/>
      <point x="516" y="375"/>
      <point x="410" y="394" type="curve"/>
      <point x="503" y="416"/>
      <point x="554" y="469"/>
      <point x="554" y="558" type="curve"/>
      <point x="554" y="570" type="line"/>
      <point x="554" y="693"/>
      <point x="468" y="750"/>
      <point x="323" y="750" type="curve"/>
      <point x="54" y="750" type="line" smooth="yes"/>
      <point x="54" y="0" type="line"/>
    </contour>
    <contour>
      <point x="186" y="707" type="line"/>
      <point x="304" y="707" type="line"/>
      <point x="379" y="707"/>
      <point x="419" y="671"/>
      <point x="419" y="591" type="curve"/>
      <point x="419" y="529" type="line"/>
      <point x="419" y="448"/>
      <point x="379" y="413"/>
      <point x="304" y="413" type="curve"/>
      <point x="186" y="413" type="line"/>
    </contour>
    <contour>
      <point x="186" y="43" type="line"/>
      <point x="186" y="370" type="line"/>
      <point x="322" y="370" type="line"/>
      <point x="398" y="370"/>
      <point x="437" y="334"/>
      <point x="437" y="253" type="curve"/>
      <point x="437" y="160" type="line"/>
      <point x="437" y="79"/>
      <point x="398" y="43"/>
      <point x="322" y="43" type="curve"/>
    </contour>
  </outline>
</glyph>
<glyph name="B.title" format="1">
  <advance width="603"/>
  <outline>
    <contour>
      <point x="442" y="685" type="curve"/>
      <point x="485" y="665"/>
      <point x="511" y="628"/>
      <point x="511" y="570" type="curve" smooth="yes"/>
      <point x="511" y="558" type="line" smooth="yes"/>
      <point x="511" y="509"/>
      <point x="489" y="475"/>
      <point x="451" y="455" type="curve"/>
      <point x="458" y="475"/>
      <point x="462" y="500"/>
      <point x="462" y="529" type="curve" smooth="yes"/>
      <point x="462" y="591" type="line" smooth="yes"/>
      <point x="462" y="630"/>
      <point x="455" y="661"/>
    </contour>
    <contour>
      <point x="468" y="330" type="curve"/>
      <point x="508" y="309"/>
      <point x="530" y="274"/>
      <point x="530" y="223" type="curve" smooth="yes"/>
      <point x="530" y="180" type="line" smooth="yes"/>
      <point x="530" y="121"/>
      <point x="503" y="84"/>
      <point x="459" y="64" type="curve"/>
      <point x="473" y="88"/>
      <point x="480" y="120"/>
      <point x="480" y="160" type="curve" smooth="yes"/>
      <point x="480" y="253" type="line" smooth="yes"/>
      <point x="480" y="283"/>
      <point x="476" y="309"/>
    </contour>
    <contour>
      <point x="343" y="0" type="line" smooth="yes"/>
      <point x="487" y="0"/>
      <point x="573" y="57"/>
      <point x="573" y="180" type="curve" smooth="yes"/>
      <point x="573" y="223" type="line" smooth="yes"/>
      <point x="573" y="320"/>
      <point x="516" y="375"/>
      <point x="410" y="394" type="curve"/>
      <point x="503" y="416"/>
      <point x="554" y="469"/>
      <point x="554" y="558" type="curve" smooth="yes"/>
      <point x="554" y="570" type="line" smooth="yes"/>
      <point x="554" y="693"/>
      <point x="468" y="750"/>
      <point x="323" y="750" type="curve" smooth="yes"/>
      <point x="54" y="750" type="line"/>
      <point x="54" y="0" type="line"/>
    </contour>
    <contour>
      <point x="186" y="707" type="line"/>
      <point x="304" y="707" type="line" smooth="yes"/>
      <point x="379" y="707"/>
      <point x="419" y="671"/>
      <point x="419" y="591" type="curve" smooth="yes"/>
      <point x="419" y="529" type="line" smooth="yes"/>
      <point x="419" y="448"/>
      <point x="379" y="413"/>
      <point x="304" y="413" type="curve" smooth="yes"/>
      <point x="186" y="413" type="line"/>
    </contour>
    <contour>
      <point x="186" y="43" type="line"/>
      <point x="186" y="370" type="line"/>
      <point x="322" y="370" type="line" smooth="yes"/>
      <point x="398" y="370"/>
      <point x="437" y="334"/>
      <point x="437" y="253" type="curve" smooth="yes"/>
      <point x="437" y="160" type="line" smooth="yes"/>
      <point x="437" y="79"/>
      <point x="398" y="43"/>
      <point x="322" y="43" type="curve" smooth="yes"/>
    </contour>
    <contour>
      <point x="97" y="43" type="line"/>
      <point x="97" y="707" type="line"/>
      <point x="144" y="707" type="line"/>
      <point x="144" y="43" type="line"/>
    </contour>
  </outline>
</glyph>
<glyph name="C.random1" format="1">
  <advance width="586"/>
  <outline>
    <contour>
      <point x="132" y="503" type="line" smooth="yes"/>
      <point x="132" y="650"/>
      <point x="186" y="727"/>
      <point x="299" y="727" type="curve"/>
      <point x="412" y="727"/>
      <point x="461" y="661"/>
      <point x="461" y="523" type="curve" smooth="yes"/>
      <point x="461" y="495" type="line"/>
      <point x="536" y="495" type="line"/>
      <point x="536" y="547" type="line" smooth="yes"/>
      <point x="536" y="680"/>
      <point x="441" y="760"/>
      <point x="304" y="760" type="curve" smooth="yes"/>
      <point x="294" y="760" type="line" smooth="yes"/>
      <point x="153" y="760"/>
      <point x="50" y="672"/>
      <point x="50" y="483" type="curve" smooth="yes"/>
      <point x="50" y="267" type="line"/>
      <point x="50" y="78"/>
      <point x="153" y="-10"/>
      <point x="294" y="-10" type="curve" smooth="yes"/>
      <point x="304" y="-10" type="line" smooth="yes"/>
      <point x="441" y="-10"/>
      <point x="536" y="70"/>
      <point x="536" y="203" type="curve" smooth="yes"/>
      <point x="536" y="260" type="line"/>
      <point x="461" y="260" type="line"/>
      <point x="461" y="227" type="line" smooth="yes"/>
      <point x="461" y="89"/>
      <point x="412" y="23"/>
      <point x="299" y="23" type="curve"/>
      <point x="186" y="23"/>
      <point x="132" y="100"/>
      <point x="132" y="247" type="curve"/>
    </contour>
  </outline>
</glyph>
<glyph name="C.random2" format="1">
  <advance width="679"/>
  <outline>
    <contour>
      <point x="283" y="611" type="line" smooth="yes"/>
      <point x="283" y="673"/>
      <point x="302" y="700"/>
      <point x="346" y="700" type="curve"/>
      <point x="389" y="700"/>
      <point x="408" y="675"/>
      <point x="408" y="615" type="curve" smooth="yes"/>
      <point x="408" y="471" type="line"/>
      <point x="652" y="471" type="line"/>
      <point x="652" y="542" type="line" smooth="yes"/>
      <point x="652" y="685"/>
      <point x="558" y="760"/>
      <point x="351" y="760" type="curve" smooth="yes"/>
      <point x="341" y="760" type="line" smooth="yes"/>
      <point x="127" y="760"/>
      <point x="31" y="663"/>
      <point x="31" y="471" type="curve" smooth="yes"/>
      <point x="31" y="279" type="line" smooth="yes"/>
      <point x="31" y="87"/>
      <point x="127" y="-10"/>
      <point x="341" y="-10" type="curve" smooth="yes"/>
      <point x="351" y="-10" type="line" smooth="yes"/>
      <point x="558" y="-10"/>
      <point x="652" y="65"/>
      <point x="652" y="208" type="curve" smooth="yes"/>
      <point x="652" y="284" type="line"/>
      <point x="408" y="284" type="line"/>
      <point x="408" y="135" type="line" smooth="yes"/>
      <point x="408" y="75"/>
      <point x="389" y="50"/>
      <point x="346" y="50" type="curve"/>
      <point x="302" y="50"/>
      <point x="283" y="77"/>
      <point x="283" y="139" type="curve" smooth="yes"/>
    </contour>
  </outline>
</glyph>
<glyph name="C.sc" format="1">
  <advance width="571"/>
  <outline>
    <contour>
      <point x="176" y="459" type="line"/>
      <point x="176" y="561"/>
      <point x="218" y="613"/>
      <point x="291" y="613" type="curve"/>
      <point x="368" y="613"/>
      <point x="404" y="576"/>
      <point x="404" y="479" type="curve" smooth="yes"/>
      <point x="404" y="416" type="line"/>
      <point x="529" y="416" type="line"/>
      <point x="529" y="469" type="line" smooth="yes"/>
      <point x="529" y="589"/>
      <point x="443" y="655"/>
      <point x="296" y="655" type="curve" smooth="yes"/>
      <point x="286" y="655" type="line" smooth="yes"/>
      <point x="136" y="655"/>
      <point x="44" y="570"/>
      <point x="44" y="400" type="curve"/>
      <point x="44" y="245" type="line" smooth="yes"/>
      <point x="44" y="76"/>
      <point x="136" y="-10"/>
      <point x="286" y="-10" type="curve" smooth="yes"/>
      <point x="296" y="-10" type="line" smooth="yes"/>
      <point x="443" y="-10"/>
      <point x="529" y="56"/>
      <point x="529" y="177" type="curve" smooth="yes"/>
      <point x="529" y="234" type="line"/>
      <point x="404" y="234" type="line"/>
      <point x="404" y="166" type="line" smooth="yes"/>
      <point x="404" y="69"/>
      <point x="368" y="32"/>
      <point x="291" y="32" type="curve"/>
      <point x="218" y="32"/>
      <point x="176" y="84"/>
      <point x="176" y="186" type="curve"/>
    </contour>
  </outline>
</glyph>
<glyph name="C.swash" format="1">
  <advance width="616"/>
  <outline>
    <contour>
      <point x="180" y="538" type="line" smooth="yes"/>
      <point x="180" y="657"/>
      <point x="223" y="718"/>
      <point x="314" y="718" type="curve"/>
      <point x="405" y="718"/>
      <point x="444" y="666"/>
      <point x="444" y="553" type="curve" smooth="yes"/>
      <point x="444" y="487" type="line"/>
      <point x="573" y="487" type="line"/>
      <point x="573" y="546" type="line" smooth="yes"/>
      <point x="573" y="682"/>
      <point x="479" y="760"/>
      <point x="319" y="760" type="curve" smooth="yes"/>
      <point x="309" y="760" type="line" smooth="yes"/>
      <point x="145" y="760"/>
      <point x="44" y="669"/>
      <point x="44" y="479" type="curve" smooth="yes"/>
      <point x="44" y="271" type="line" smooth="yes"/>
      <point x="44" y="81"/>
      <point x="145" y="-10"/>
      <point x="309" y="-10" type="curve" smooth="yes"/>
      <point x="319" y="-10" type="line" smooth="yes"/>
      <point x="479" y="-10"/>
      <point x="573" y="68"/>
      <point x="573" y="205" type="curve" smooth="yes"/>
      <point x="573" y="268" type="line"/>
      <point x="444" y="268" type="line"/>
      <point x="444" y="198" type="line" smooth="yes"/>
      <point x="444" y="85"/>
      <point x="405" y="32"/>
      <point x="314" y="32" type="curve"/>
      <point x="223" y="32"/>
      <point x="180" y="93"/>
      <point x="180" y="213" type="curve" smooth="yes"/>
    </contour>
  </outline>
</glyph>
<glyph name="C.title" format="1">
  <advance width="616"/>
  <outline>
    <contour>
      <point x="530" y="530" type="line"/>
      <point x="530" y="546" type="line" smooth="yes"/>
      <point x="530" y="606"/>
      <point x="507" y="651"/>
      <point x="465" y="679" type="curve"/>
      <point x="480" y="648"/>
      <point x="487" y="606"/>
      <point x="487" y="553" type="curve" smooth="yes"/>
      <point x="487" y="530" type="line"/>
    </contour>
    <contour>
      <point x="160" y="671" type="curve"/>
      <point x="113" y="632"/>
      <point x="87" y="568"/>
      <point x="87" y="479" type="curve" smooth="yes"/>
      <point x="87" y="271" type="line"/>
      <point x="87" y="182"/>
      <point x="113" y="118"/>
      <point x="160" y="79" type="curve"/>
      <point x="145" y="113"/>
      <point x="137" y="157"/>
      <point x="137" y="213" type="curve" smooth="yes"/>
      <point x="137" y="538" type="line" smooth="yes"/>
      <point x="137" y="593"/>
      <point x="145" y="637"/>
    </contour>
    <contour>
      <point x="465" y="71" type="curve"/>
      <point x="506" y="99"/>
      <point x="530" y="144"/>
      <point x="530" y="205" type="curve" smooth="yes"/>
      <point x="530" y="225" type="line"/>
      <point x="487" y="225" type="line"/>
      <point x="487" y="198" type="line" smooth="yes"/>
      <point x="487" y="144"/>
      <point x="480" y="102"/>
    </contour>
    <contour>
      <point x="180" y="538" type="curve" smooth="yes"/>
      <point x="180" y="213" type="line" smooth="yes"/>
      <point x="180" y="93"/>
      <point x="223" y="32"/>
      <point x="314" y="32" type="curve" smooth="yes"/>
      <point x="405" y="32"/>
      <point x="444" y="85"/>
      <point x="444" y="198" type="curve" smooth="yes"/>
      <point x="444" y="268" type="line"/>
      <point x="573" y="268" type="line"/>
      <point x="573" y="205" type="line" smooth="yes"/>
      <point x="573" y="68"/>
      <point x="479" y="-10"/>
      <point x="319" y="-10" type="curve" smooth="yes"/>
      <point x="309" y="-10" type="line" smooth="yes"/>
      <point x="145" y="-10"/>
      <point x="44" y="81"/>
      <point x="44" y="271" type="curve" smooth="yes"/>
      <point x="44" y="479" type="line" smooth="yes"/>
      <point x="44" y="669"/>
      <point x="145" y="760"/>
      <point x="309" y="760" type="curve" smooth="yes"/>
      <point x="319" y="760" type="line" smooth="yes"/>
      <point x="479" y="760"/>
      <point x="573" y="682"/>
      <point x="573" y="546" type="curve" smooth="yes"/>
      <point x="573" y="487" type="line"/>
      <point x="444" y="487" type="line"/>
      <point x="444" y="553" type="line" smooth="yes"/>
      <point x="444" y="666"/>
      <point x="405" y="718"/>
      <point x="314" y="718" type="curve" smooth="yes"/>
      <point x="223" y="718"/>
      <point x="180" y="657"/>
    </contour>
  </outline>
</glyph>
<glyph name="D.random1" format="1">
  <advance width="589"/>
  <outline>
    <contour>
      <point x="267" y="0" type="line"/>
      <point x="431" y="0"/>
      <point x="539" y="78"/>
      <point x="539" y="267" type="curve"/>
      <point x="539" y="483" type="line" smooth="yes"/>
      <point x="539" y="672"/>
      <point x="431" y="750"/>
      <point x="267" y="750" type="curve"/>
      <point x="60" y="750" type="line"/>
      <point x="60" y="0" type="line"/>
    </contour>
    <contour>
      <point x="139" y="35" type="line"/>
      <point x="139" y="715" type="line"/>
      <point x="277" y="715" type="line"/>
      <point x="403" y="715"/>
      <point x="457" y="650"/>
      <point x="457" y="503" type="curve" smooth="yes"/>
      <point x="457" y="247" type="line"/>
      <point x="457" y="100"/>
      <point x="403" y="35"/>
      <point x="277" y="35" type="curve"/>
    </contour>
    <contour>
      <point x="281" y="375" type="move" name="center"/>
    </contour>
  </outline>
</glyph>
<glyph name="D.random2" format="1">
  <advance width="697"/>
  <outline>
    <contour>
      <point x="347" y="0" type="line"/>
      <point x="567" y="0"/>
      <point x="666" y="95"/>
      <point x="666" y="287" type="curve"/>
      <point x="666" y="463" type="line"/>
      <point x="666" y="655"/>
      <point x="567" y="750"/>
      <point x="347" y="750" type="curve"/>
      <point x="41" y="750" type="line"/>
      <point x="41" y="0" type="line"/>
    </contour>
    <contour>
      <point x="288" y="61" type="line"/>
      <point x="288" y="689" type="line"/>
      <point x="346" y="689" type="line"/>
      <point x="394" y="689"/>
      <point x="414" y="665"/>
      <point x="414" y="603" type="curve" smooth="yes"/>
      <point x="414" y="147" type="line"/>
      <point x="414" y="85"/>
      <point x="394" y="61"/>
      <point x="346" y="61" type="curve"/>
    </contour>
    <contour>
      <point x="329" y="375" type="move" name="center"/>
    </contour>
  </outline>
</glyph>
<glyph name="D.sc" format="1">
  <advance width="581"/>
  <outline>
    <contour>
      <point x="54" y="645" type="line"/>
      <point x="54" y="0" type="line"/>
      <point x="277" y="0" type="line"/>
      <point x="438" y="0"/>
      <point x="537" y="78"/>
      <point x="537" y="255" type="curve"/>
      <point x="537" y="390" type="line" smooth="yes"/>
      <point x="537" y="567"/>
      <point x="438" y="645"/>
      <point x="277" y="645" type="curve"/>
    </contour>
    <contour>
      <point x="405" y="91"/>
      <point x="363" y="43"/>
      <point x="279" y="43" type="curve" smooth="yes"/>
      <point x="182" y="43" type="line"/>
      <point x="182" y="602" type="line"/>
      <point x="279" y="602" type="line" smooth="yes"/>
      <point x="363" y="602"/>
      <point x="405" y="554"/>
      <point x="405" y="449" type="curve" smooth="yes"/>
      <point x="405" y="196" type="line"/>
    </contour>
    <contour>
      <point x="277" y="323" type="move" name="center"/>
    </contour>
  </outline>
</glyph>
<glyph name="D.swash" format="1">
  <advance width="624"/>
  <outline>
    <contour>
      <point x="293" y="0" type="line"/>
      <point x="475" y="0"/>
      <point x="580" y="84"/>
      <point x="580" y="273" type="curve"/>
      <point x="580" y="477" type="line"/>
      <point x="580" y="667"/>
      <point x="475" y="750"/>
      <point x="293" y="750" type="curve"/>
      <point x="54" y="750" type="line"/>
      <point x="54" y="0" type="line"/>
    </contour>
    <contour>
      <point x="187" y="43" type="line"/>
      <point x="187" y="707" type="line"/>
      <point x="299" y="707" type="line"/>
      <point x="400" y="707"/>
      <point x="443" y="655"/>
      <point x="443" y="535" type="curve" smooth="yes"/>
      <point x="443" y="215" type="line"/>
      <point x="443" y="95"/>
      <point x="400" y="43"/>
      <point x="299" y="43" type="curve"/>
    </contour>
    <contour>
      <point x="296" y="375" type="move" name="center"/>
    </contour>
  </outline>
</glyph>
<glyph name="D.title" format="1">
  <advance width="624"/>
  <outline>
    <contour>
      <point x="467" y="658" type="curve"/>
      <point x="512" y="621"/>
      <point x="537" y="562"/>
      <point x="537" y="477" type="curve" smooth="yes"/>
      <point x="537" y="273" type="line" smooth="yes"/>
      <point x="537" y="189"/>
      <point x="512" y="130"/>
      <point x="467" y="93" type="curve"/>
      <point x="480" y="124"/>
      <point x="486" y="165"/>
      <point x="486" y="215" type="curve" smooth="yes"/>
      <point x="486" y="535" type="line" smooth="yes"/>
      <point x="486" y="586"/>
      <point x="480" y="626"/>
    </contour>
    <contour>
      <point x="293" y="0" type="line" smooth="yes"/>
      <point x="475" y="0"/>
      <point x="580" y="84"/>
      <point x="580" y="273" type="curve" smooth="yes"/>
      <point x="580" y="477" type="line" smooth="yes"/>
      <point x="580" y="667"/>
      <point x="475" y="750"/>
      <point x="293" y="750" type="curve" smooth="yes"/>
      <point x="54" y="750" type="line"/>
      <point x="54" y="0" type="line"/>
    </contour>
    <contour>
      <point x="187" y="43" type="line"/>
      <point x="187" y="707" type="line"/>
      <point x="299" y="707" type="line" smooth="yes"/>
      <point x="400" y="707"/>
      <point x="443" y="655"/>
      <point x="443" y="535" type="curve" smooth="yes"/>
      <point x="443" y="215" type="line" smooth="yes"/>
      <point x="443" y="95"/>
      <point x="400" y="43"/>
      <point x="299" y="43" type="curve" smooth="yes"/>
    </contour>
    <contour>
      <point x="97" y="43" type="line"/>
      <point x="97" y="707" type="line"/>
      <point x="144" y="707" type="line"/>
      <point x="144" y="43" type="line"/>
    </contour>
  </outline>
</glyph>
<glyph name="E.random1" format="1">
  <advance width="497"/>
  <outline>
    <contour>
      <point x="60" y="0" type="line"/>
      <point x="452" y="0" type="line"/>
      <point x="452" y="35" type="line"/>
      <point x="139" y="35" type="line"/>
      <point x="139" y="373" type="line"/>
      <point x="427" y="373" type="line"/>
      <point x="427" y="408" type="line"/>
      <point x="139" y="408" type="line"/>
      <point x="139" y="715" type="line"/>
      <point x="452" y="715" type="line"/>
      <point x="452" y="750" type="line"/>
      <point x="60" y="750" type="line" smooth="yes"/>
    </contour>
    <contour>
      <point x="262" y="375" type="move" name="center"/>
    </contour>
  </outline>
</glyph>
<glyph name="E.random2" format="1">
  <advance width="552"/>
  <outline>
    <contour>
      <point x="41" y="0" type="line"/>
      <point x="522" y="0" type="line"/>
      <point x="522" y="61" type="line"/>
      <point x="288" y="61" type="line"/>
      <point x="288" y="355" type="line"/>
      <point x="502" y="355" type="line"/>
      <point x="502" y="416" type="line"/>
      <point x="288" y="416" type="line"/>
      <point x="288" y="689" type="line"/>
      <point x="522" y="689" type="line"/>
      <point x="522" y="750" type="line"/>
      <point x="41" y="750" type="line" smooth="yes"/>
    </contour>
    <contour>
      <point x="300" y="375" type="move" name="center"/>
    </contour>
  </outline>
</glyph>
<glyph name="E.sc" format="1">
  <advance width="478"/>
  <outline>
    <contour>
      <point x="54" y="0" type="line"/>
      <point x="438" y="0" type="line"/>
      <point x="438" y="43" type="line"/>
      <point x="182" y="43" type="line"/>
      <point x="182" y="312" type="line"/>
      <point x="417" y="312" type="line"/>
      <point x="417" y="355" type="line"/>
      <point x="182" y="355" type="line"/>
      <point x="182" y="602" type="line"/>
      <point x="438" y="602" type="line"/>
      <point x="438" y="645" type="line"/>
      <point x="54" y="645" type="line" smooth="yes"/>
    </contour>
    <contour>
      <point x="255" y="323" type="move" name="center"/>
    </contour>
  </outline>
</glyph>
<glyph name="E.swash" format="1">
  <advance width="515"/>
  <outline>
    <contour>
      <point x="54" y="0" type="line"/>
      <point x="475" y="0" type="line"/>
      <point x="475" y="43" type="line"/>
      <point x="187" y="43" type="line"/>
      <point x="187" y="367" type="line"/>
      <point x="451" y="367" type="line"/>
      <point x="451" y="411" type="line"/>
      <point x="187" y="411" type="line"/>
      <point x="187" y="707" type="line"/>
      <point x="475" y="707" type="line"/>
      <point x="475" y="750" type="line"/>
      <point x="54" y="750" type="line" smooth="yes"/>
    </contour>
    <contour>
      <point x="274" y="375" type="move" name="center"/>
    </contour>
  </outline>
</glyph>
<glyph name="F.random1" format="1">
  <advance width="475"/>
  <outline>
    <contour>
      <point x="60" y="0" type="line"/>
      <point x="139" y="0" type="line"/>
      <point x="139" y="371" type="line"/>
      <point x="419" y="371" type="line"/>
      <point x="419" y="406" type="line"/>
      <point x="139" y="406" type="line"/>
      <point x="139" y="715" type="line"/>
      <point x="445" y="715" type="line"/>
      <point x="445" y="750" type="line"/>
      <point x="60" y="750" type="line" smooth="yes"/>
    </contour>
  </outline>
</glyph>
<glyph name="F.random2" format="1">
  <advance width="547"/>
  <outline>
    <contour>
      <point x="41" y="0" type="line"/>
      <point x="288" y="0" type="line"/>
      <point x="288" y="346" type="line"/>
      <point x="507" y="346" type="line"/>
      <point x="507" y="407" type="line"/>
      <point x="288" y="407" type="line"/>
      <point x="288" y="689" type="line"/>
      <point x="525" y="689" type="line"/>
      <point x="525" y="750" type="line"/>
      <point x="41" y="750" type="line" smooth="yes"/>
    </contour>
  </outline>
</glyph>
<glyph name="F.sc" format="1">
  <advance width="462"/>
  <outline>
    <contour>
      <point x="54" y="0" type="line"/>
      <point x="182" y="0" type="line"/>
      <point x="182" y="308" type="line"/>
      <point x="414" y="308" type="line"/>
      <point x="414" y="351" type="line"/>
      <point x="182" y="351" type="line"/>
      <point x="182" y="602" type="line"/>
      <point x="435" y="602" type="line"/>
      <point x="435" y="645" type="line"/>
      <point x="54" y="645" type="line" smooth="yes"/>
    </contour>
  </outline>
</glyph>
<glyph name="F.swash" format="1">
  <advance width="498"/>
  <outline>
    <contour>
      <point x="54" y="0" type="line"/>
      <point x="187" y="0" type="line"/>
      <point x="187" y="363" type="line"/>
      <point x="447" y="363" type="line"/>
      <point x="447" y="406" type="line"/>
      <point x="187" y="406" type="line"/>
      <point x="187" y="707" type="line"/>
      <point x="471" y="707" type="line"/>
      <point x="471" y="750" type="line"/>
      <point x="54" y="750" type="line" smooth="yes"/>
    </contour>
  </outline>
</glyph>
<glyph name="G.random1" format="1">
  <advance width="600"/>
  <outline>
    <contour>
      <point x="472" y="0" type="line"/>
      <point x="545" y="0" type="line" smooth="yes"/>
      <point x="545" y="372" type="line"/>
      <point x="287" y="372" type="line"/>
      <point x="287" y="337" type="line"/>
      <point x="466" y="337" type="line"/>
      <point x="466" y="217" type="line" smooth="yes"/>
      <point x="466" y="95"/>
      <point x="410" y="23"/>
      <point x="299" y="23" type="curve"/>
      <point x="180" y="23"/>
      <point x="132" y="92"/>
      <point x="132" y="232" type="curve" smooth="yes"/>
      <point x="132" y="503" type="line" smooth="yes"/>
      <point x="132" y="650"/>
      <point x="186" y="727"/>
      <point x="301" y="727" type="curve"/>
      <point x="416" y="727"/>
      <point x="465" y="661"/>
      <point x="465" y="523" type="curve" smooth="yes"/>
      <point x="465" y="495" type="line"/>
      <point x="540" y="495" type="line"/>
      <point x="540" y="547" type="line" smooth="yes"/>
      <point x="540" y="680"/>
      <point x="445" y="760"/>
      <point x="306" y="760" type="curve" smooth="yes"/>
      <point x="296" y="760" type="line" smooth="yes"/>
      <point x="153" y="760"/>
      <point x="50" y="672"/>
      <point x="50" y="483" type="curve" smooth="yes"/>
      <point x="50" y="252" type="line" smooth="yes"/>
      <point x="50" y="69"/>
      <point x="145" y="-10"/>
      <point x="294" y="-10" type="curve" smooth="yes"/>
      <point x="304" y="-10" type="line" smooth="yes"/>
      <point x="389" y="-10"/>
      <point x="443" y="28"/>
      <point x="470" y="80" type="curve"/>
    </contour>
  </outline>
</glyph>
<glyph name="G.random2" format="1">
  <advance width="693"/>
  <outline>
    <contour>
      <point x="432" y="0" type="line"/>
      <point x="657" y="0" type="line" smooth="yes"/>
      <point x="657" y="395" type="line"/>
      <point x="337" y="395" type="line"/>
      <point x="337" y="334" type="line"/>
      <point x="412" y="334" type="line"/>
      <point x="412" y="144" type="line"/>
      <point x="412" y="88"/>
      <point x="391" y="62"/>
      <point x="347" y="62" type="curve"/>
      <point x="302" y="62"/>
      <point x="283" y="87"/>
      <point x="283" y="148" type="curve"/>
      <point x="283" y="611" type="line" smooth="yes"/>
      <point x="283" y="673"/>
      <point x="303" y="700"/>
      <point x="348" y="700" type="curve"/>
      <point x="393" y="700"/>
      <point x="412" y="675"/>
      <point x="412" y="615" type="curve" smooth="yes"/>
      <point x="412" y="471" type="line"/>
      <point x="656" y="471" type="line"/>
      <point x="656" y="542" type="line" smooth="yes"/>
      <point x="656" y="685"/>
      <point x="561" y="760"/>
      <point x="353" y="760" type="curve" smooth="yes"/>
      <point x="343" y="760" type="line" smooth="yes"/>
      <point x="128" y="760"/>
      <point x="31" y="663"/>
      <point x="31" y="471" type="curve" smooth="yes"/>
      <point x="31" y="243" type="line" smooth="yes"/>
      <point x="31" y="65"/>
      <point x="110" y="-10"/>
      <point x="264" y="-10" type="curve" smooth="yes"/>
      <point x="274" y="-10" type="line" smooth="yes"/>
      <point x="351" y="-10"/>
      <point x="406" y="14"/>
      <point x="428" y="56" type="curve"/>
    </contour>
  </outline>
</glyph>
<glyph name="G.sc" format="1">
  <advance width="585"/>
  <outline>
    <contour>
      <point x="418" y="0" type="line"/>
      <point x="536" y="0" type="line" smooth="yes"/>
      <point x="536" y="332" type="line"/>
      <point x="281" y="332" type="line"/>
      <point x="281" y="289" type="line"/>
      <point x="409" y="289" type="line"/>
      <point x="409" y="163" type="line"/>
      <point x="409" y="81"/>
      <point x="369" y="34"/>
      <point x="292" y="34" type="curve"/>
      <point x="212" y="34"/>
      <point x="176" y="79"/>
      <point x="176" y="172" type="curve"/>
      <point x="176" y="459" type="line" smooth="yes"/>
      <point x="176" y="562"/>
      <point x="218" y="613"/>
      <point x="292" y="613" type="curve"/>
      <point x="369" y="613"/>
      <point x="405" y="577"/>
      <point x="405" y="479" type="curve"/>
      <point x="405" y="416" type="line"/>
      <point x="530" y="416" type="line"/>
      <point x="530" y="469" type="line" smooth="yes"/>
      <point x="530" y="589"/>
      <point x="444" y="655"/>
      <point x="297" y="655" type="curve" smooth="yes"/>
      <point x="287" y="655" type="line" smooth="yes"/>
      <point x="136" y="655"/>
      <point x="44" y="570"/>
      <point x="44" y="400" type="curve" smooth="yes"/>
      <point x="44" y="215" type="line" smooth="yes"/>
      <point x="44" y="60"/>
      <point x="121" y="-10"/>
      <point x="260" y="-10" type="curve" smooth="yes"/>
      <point x="269" y="-10" type="line" smooth="yes"/>
      <point x="344" y="-10"/>
      <point x="393" y="22"/>
      <point x="416" y="64" type="curve"/>
    </contour>
  </outline>
</glyph>
<glyph name="G.title" format="1">
  <advance width="630"/>
  <outline>
    <contour>
      <point x="469" y="679" type="curve"/>
      <point x="511" y="650"/>
      <point x="534" y="606"/>
      <point x="534" y="546" type="curve" smooth="yes"/>
      <point x="534" y="530" type="line"/>
      <point x="491" y="530" type="line"/>
      <point x="491" y="553" type="line" smooth="yes"/>
      <point x="491" y="606"/>
      <point x="484" y="647"/>
    </contour>
    <contour>
      <point x="459" y="0" type="line"/>
      <point x="581" y="0" type="line"/>
      <point x="581" y="379" type="line"/>
      <point x="303" y="379" type="line"/>
      <point x="303" y="336" type="line"/>
      <point x="449" y="336" type="line"/>
      <point x="449" y="194" type="line" smooth="yes"/>
      <point x="449" y="93"/>
      <point x="404" y="36"/>
      <point x="315" y="36" type="curve" smooth="yes"/>
      <point x="219" y="36"/>
      <point x="180" y="91"/>
      <point x="180" y="205" type="curve" smooth="yes"/>
      <point x="180" y="538" type="line" smooth="yes"/>
      <point x="180" y="657"/>
      <point x="224" y="718"/>
      <point x="316" y="718" type="curve" smooth="yes"/>
      <point x="409" y="718"/>
      <point x="448" y="666"/>
      <point x="448" y="553" type="curve" smooth="yes"/>
      <point x="448" y="487" type="line"/>
      <point x="577" y="487" type="line"/>
      <point x="577" y="546" type="line" smooth="yes"/>
      <point x="577" y="682"/>
      <point x="482" y="760"/>
      <point x="321" y="760" type="curve" smooth="yes"/>
      <point x="311" y="760" type="line" smooth="yes"/>
      <point x="145" y="760"/>
      <point x="44" y="669"/>
      <point x="44" y="479" type="curve" smooth="yes"/>
      <point x="44" y="249" type="line" smooth="yes"/>
      <point x="44" y="68"/>
      <point x="134" y="-10"/>
      <point x="284" y="-10" type="curve" smooth="yes"/>
      <point x="294" y="-10" type="line" smooth="yes"/>
      <point x="376" y="-10"/>
      <point x="431" y="23"/>
      <point x="457" y="72" type="curve"/>
    </contour>
    <contour>
      <point x="491" y="43" type="line"/>
      <point x="491" y="336" type="line"/>
      <point x="538" y="336" type="line"/>
      <point x="538" y="43" type="line"/>
    </contour>
    <contour>
      <point x="160" y="81" type="curve"/>
      <point x="112" y="120"/>
      <point x="87" y="183"/>
      <point x="87" y="271" type="curve" smooth="yes"/>
      <point x="87" y="479" type="line" smooth="yes"/>
      <point x="87" y="567"/>
      <point x="113" y="630"/>
      <point x="160" y="669" type="curve"/>
      <point x="145" y="635"/>
      <point x="137" y="592"/>
      <point x="137" y="538" type="curve" smooth="yes"/>
      <point x="137" y="213" type="line" smooth="yes"/>
      <point x="137" y="159"/>
      <point x="145" y="115"/>
    </contour>
  </outline>
</glyph>
<glyph name="H.random1" format="1">
  <advance width="606"/>
  <outline>
    <contour>
      <point x="60" y="0" type="line"/>
      <point x="139" y="0" type="line"/>
      <point x="139" y="373" type="line"/>
      <point x="467" y="373" type="line"/>
      <point x="467" y="0" type="line"/>
      <point x="546" y="0" type="line"/>
      <point x="546" y="750" type="line"/>
      <point x="467" y="750" type="line"/>
      <point x="467" y="408" type="line"/>
      <point x="139" y="408" type="line"/>
      <point x="139" y="750" type="line"/>
      <point x="60" y="750" type="line"/>
    </contour>
  </outline>
</glyph>
<glyph name="H.random2" format="1">
  <advance width="702"/>
  <outline>
    <contour>
      <point x="41" y="0" type="line"/>
      <point x="288" y="0" type="line"/>
      <point x="288" y="357" type="line"/>
      <point x="414" y="357" type="line"/>
      <point x="414" y="0" type="line"/>
      <point x="661" y="0" type="line"/>
      <point x="661" y="750" type="line"/>
      <point x="414" y="750" type="line"/>
      <point x="414" y="417" type="line"/>
      <point x="288" y="417" type="line"/>
      <point x="288" y="750" type="line"/>
      <point x="41" y="750" type="line"/>
    </contour>
  </outline>
</glyph>
<glyph name="H.sc" format="1">
  <advance width="592"/>
  <outline>
    <contour>
      <point x="54" y="0" type="line"/>
      <point x="182" y="0" type="line"/>
      <point x="182" y="311" type="line"/>
      <point x="410" y="311" type="line"/>
      <point x="410" y="0" type="line"/>
      <point x="538" y="0" type="line"/>
      <point x="538" y="645" type="line"/>
      <point x="410" y="645" type="line"/>
      <point x="410" y="354" type="line"/>
      <point x="182" y="354" type="line"/>
      <point x="182" y="645" type="line"/>
      <point x="54" y="645" type="line"/>
    </contour>
  </outline>
</glyph>
<glyph name="H.swash" format="1">
  <advance width="637"/>
  <outline>
    <contour>
      <point x="54" y="0" type="line"/>
      <point x="187" y="0" type="line"/>
      <point x="187" y="368" type="line"/>
      <point x="450" y="368" type="line"/>
      <point x="450" y="0" type="line"/>
      <point x="583" y="0" type="line"/>
      <point x="583" y="750" type="line"/>
      <point x="450" y="750" type="line"/>
      <point x="450" y="411" type="line"/>
      <point x="187" y="411" type="line"/>
      <point x="187" y="750" type="line"/>
      <point x="54" y="750" type="line"/>
    </contour>
  </outline>
</glyph>
<glyph name="H.title" format="1">
  <advance width="637"/>
  <outline>
    <contour>
      <point x="54" y="0" type="line"/>
      <point x="54" y="750" type="line"/>
      <point x="187" y="750" type="line"/>
      <point x="187" y="411" type="line"/>
      <point x="450" y="411" type="line"/>
      <point x="450" y="750" type="line"/>
      <point x="583" y="750" type="line"/>
      <point x="583" y="0" type="line"/>
      <point x="450" y="0" type="line"/>
      <point x="450" y="368" type="line"/>
      <point x="187" y="368" type="line"/>
      <point x="187" y="0" type="line"/>
    </contour>
    <contour>
      <point x="97" y="43" type="line"/>
      <point x="144" y="43" type="line"/>
      <point x="144" y="707" type="line"/>
      <point x="97" y="707" type="line"/>
    </contour>
    <contour>
      <point x="540" y="43" type="line"/>
      <point x="540" y="707" type="line"/>
      <point x="493" y="707" type="line"/>
      <point x="493" y="43" type="line"/>
    </contour>
  </outline>
</glyph>
<glyph name="IJ.dutch" format="1">
  <advance width="565"/>
  <outline>
    <contour>
      <point x="189" y="123" type="line"/>
      <point x="189" y="750" type="line"/>
      <point x="56" y="750" type="line" smooth="yes"/>
      <point x="56" y="123" type="line"/>
    </contour>
    <contour>
      <point x="516" y="750" type="line"/>
      <point x="383" y="750" type="line"/>
      <point x="383" y="155" type="line" smooth="yes"/>
      <point x="383" y="76"/>
      <point x="350" y="43"/>
      <point x="295" y="43" type="curve" smooth="yes"/>
      <point x="56" y="43" type="line"/>
      <point x="56" y="0" type="line"/>
      <point x="296" y="0" type="line" smooth="yes"/>
      <point x="431" y="0"/>
      <point x="516" y="56"/>
      <point x="516" y="184" type="curve" smooth="yes"/>
    </contour>
  </outline>
</glyph>
<glyph name="I.random1" format="1">
  <advance width="203"/>
  <outline>
    <contour>
      <point x="141" y="0" type="line"/>
      <point x="141" y="750" type="line"/>
      <point x="62" y="750" type="line" smooth="yes"/>
      <point x="62" y="0" type="line"/>
    </contour>
  </outline>
</glyph>
<glyph name="I.random2" format="1">
  <advance width="332"/>
  <outline>
    <contour>
      <point x="290" y="0" type="line"/>
      <point x="290" y="750" type="line"/>
      <point x="43" y="750" type="line" smooth="yes"/>
      <point x="43" y="0" type="line"/>
    </contour>
  </outline>
</glyph>
<glyph name="I.sc" format="1">
  <advance width="240"/>
  <outline>
    <contour>
      <point x="184" y="0" type="line"/>
      <point x="184" y="645" type="line"/>
      <point x="56" y="645" type="line" smooth="yes"/>
      <point x="56" y="0" type="line"/>
    </contour>
  </outline>
</glyph>
<glyph name="I.swash" format="1">
  <advance width="245"/>
  <outline>
    <contour>
      <point x="189" y="0" type="line"/>
      <point x="189" y="750" type="line"/>
      <point x="56" y="750" type="line" smooth="yes"/>
      <point x="56" y="0" type="line"/>
    </contour>
  </outline>
</glyph>
<glyph name="I.title" format="1">
  <advance width="245"/>
  <outline>
    <contour>
      <point x="189" y="0" type="line"/>
      <point x="189" y="750" type="line"/>
      <point x="56" y="750" type="line" smooth="yes"/>
      <point x="56" y="0" type="line"/>
    </contour>
    <contour>
      <point x="99" y="43" type="line"/>
      <point x="99" y="707" type="line"/>
      <point x="146" y="707" type="line"/>
      <point x="146" y="43" type="line"/>
    </contour>
  </outline>
</glyph>
<glyph name="J.alt" format="1">
  <advance width="534"/>
  <outline>
    <contour>
      <point x="387" y="-10"/>
      <point x="486" y="52"/>
      <point x="486" y="222" type="curve"/>
      <point x="486" y="750" type="line"/>
      <point x="353" y="750" type="line"/>
      <point x="353" y="186" type="line"/>
      <point x="353" y="66"/>
      <point x="320" y="32"/>
      <point x="250" y="32" type="curve"/>
      <point x="179" y="32"/>
      <point x="148" y="67"/>
      <point x="148" y="193" type="curve" smooth="yes"/>
      <point x="148" y="268" type="line"/>
      <point x="24" y="268" type="line"/>
      <point x="24" y="200" type="line" smooth="yes"/>
      <point x="24" y="54"/>
      <point x="108" y="-10"/>
      <point x="245" y="-10" type="curve" smooth="yes"/>
      <point x="255" y="-10" type="line"/>
    </contour>
  </outline>
</glyph>
<glyph name="J.random1" format="1">
  <advance width="323"/>
  <outline>
    <contour>
      <point x="268" y="750" type="line"/>
      <point x="189" y="750" type="line"/>
      <point x="189" y="166" type="line" smooth="yes"/>
      <point x="189" y="75"/>
      <point x="149" y="35"/>
      <point x="85" y="35" type="curve" smooth="yes"/>
      <point x="30" y="35" type="line"/>
      <point x="30" y="0" type="line"/>
      <point x="79" y="0" type="line" smooth="yes"/>
      <point x="180" y="0"/>
      <point x="268" y="57"/>
      <point x="268" y="180" type="curve" smooth="yes"/>
    </contour>
  </outline>
</glyph>
<glyph name="J.random2" format="1">
  <advance width="406"/>
  <outline>
    <contour>
      <point x="370" y="750" type="line"/>
      <point x="123" y="750" type="line"/>
      <point x="123" y="131" type="line" smooth="yes"/>
      <point x="123" y="79"/>
      <point x="106" y="61"/>
      <point x="69" y="61" type="curve" smooth="yes"/>
      <point x="14" y="61" type="line"/>
      <point x="14" y="0" type="line"/>
      <point x="85" y="0" type="line" smooth="yes"/>
      <point x="293" y="0"/>
      <point x="370" y="54"/>
      <point x="370" y="192" type="curve" smooth="yes"/>
    </contour>
  </outline>
</glyph>
<glyph name="J.sc" format="1">
  <advance width="326"/>
  <outline>
    <contour>
      <point x="277" y="645" type="line"/>
      <point x="149" y="645" type="line"/>
      <point x="149" y="133" type="line" smooth="yes"/>
      <point x="149" y="67"/>
      <point x="122" y="43"/>
      <point x="72" y="43" type="curve" smooth="yes"/>
      <point x="25" y="43" type="line"/>
      <point x="25" y="0" type="line"/>
      <point x="82" y="0" type="line" smooth="yes"/>
      <point x="204" y="0"/>
      <point x="277" y="46"/>
      <point x="277" y="164" type="curve" smooth="yes"/>
    </contour>
  </outline>
</glyph>
<glyph name="J.scalt" format="1">
  <advance width="501"/>
  <outline>
    <contour>
      <point x="173" y="32"/>
      <point x="143" y="63"/>
      <point x="143" y="159" type="curve"/>
      <point x="143" y="250" type="line"/>
      <point x="24" y="250" type="line"/>
      <point x="24" y="177" type="line" smooth="yes"/>
      <point x="24" y="49"/>
      <point x="106" y="-10"/>
      <point x="229" y="-10" type="curve"/>
      <point x="239" y="-10" type="line"/>
      <point x="365" y="-10"/>
      <point x="453" y="55"/>
      <point x="453" y="192" type="curve" smooth="yes"/>
      <point x="453" y="645" type="line"/>
      <point x="325" y="645" type="line"/>
      <point x="325" y="162" type="line"/>
      <point x="325" y="60"/>
      <point x="293" y="32"/>
      <point x="234" y="32" type="curve"/>
    </contour>
  </outline>
</glyph>
<glyph name="J.swash" format="1">
  <advance width="350"/>
  <outline>
    <contour>
      <point x="301" y="750" type="line"/>
      <point x="168" y="750" type="line"/>
      <point x="168" y="155" type="line" smooth="yes"/>
      <point x="168" y="76"/>
      <point x="135" y="43"/>
      <point x="80" y="43" type="curve" smooth="yes"/>
      <point x="25" y="43" type="line"/>
      <point x="25" y="0" type="line"/>
      <point x="81" y="0" type="line" smooth="yes"/>
      <point x="216" y="0"/>
      <point x="301" y="56"/>
      <point x="301" y="184" type="curve" smooth="yes"/>
    </contour>
  </outline>
</glyph>
<glyph name="J.title" format="1">
  <advance width="350"/>
  <outline>
    <contour>
      <point x="196" y="67" type="curve"/>
      <point x="235" y="89"/>
      <point x="258" y="126"/>
      <point x="258" y="184" type="curve" smooth="yes"/>
      <point x="258" y="707" type="line"/>
      <point x="211" y="707" type="line"/>
      <point x="211" y="155" type="line" smooth="yes"/>
      <point x="211" y="118"/>
      <point x="206" y="90"/>
    </contour>
    <contour>
      <point x="301" y="750" type="line"/>
      <point x="301" y="184" type="line" smooth="yes"/>
      <point x="301" y="56"/>
      <point x="216" y="0"/>
      <point x="81" y="0" type="curve" smooth="yes"/>
      <point x="25" y="0" type="line"/>
      <point x="25" y="43" type="line"/>
      <point x="80" y="43" type="line" smooth="yes"/>
      <point x="135" y="43"/>
      <point x="168" y="76"/>
      <point x="168" y="155" type="curve" smooth="yes"/>
      <point x="168" y="750" type="line"/>
    </contour>
  </outline>
</glyph>
<glyph name="K.random1" format="1">
  <advance width="575"/>
  <outline>
    <contour>
      <point x="139" y="0" type="line"/>
      <point x="139" y="266" type="line"/>
      <point x="245" y="404" type="line"/>
      <point x="462" y="0" type="line"/>
      <point x="553" y="0" type="line"/>
      <point x="296" y="471" type="line"/>
      <point x="508" y="750" type="line"/>
      <point x="463" y="750" type="line"/>
      <point x="139" y="324" type="line"/>
      <point x="139" y="750" type="line"/>
      <point x="60" y="750" type="line" smooth="yes"/>
      <point x="60" y="0" type="line"/>
    </contour>
    <contour>
      <point x="290" y="375" type="move" name="center"/>
    </contour>
  </outline>
</glyph>
<glyph name="K.random2" format="1">
  <advance width="698"/>
  <outline>
    <contour>
      <point x="288" y="0" type="line"/>
      <point x="288" y="314" type="line"/>
      <point x="302" y="333" type="line"/>
      <point x="425" y="0" type="line"/>
      <point x="693" y="0" type="line"/>
      <point x="475" y="559" type="line"/>
      <point x="620" y="750" type="line"/>
      <point x="544" y="750" type="line"/>
      <point x="288" y="412" type="line"/>
      <point x="288" y="750" type="line"/>
      <point x="41" y="750" type="line" smooth="yes"/>
      <point x="41" y="0" type="line"/>
    </contour>
  </outline>
</glyph>
<glyph name="K.sc" format="1">
  <advance width="561"/>
  <outline>
    <contour>
      <point x="182" y="0" type="line"/>
      <point x="182" y="239" type="line"/>
      <point x="242" y="316" type="line"/>
      <point x="405" y="0" type="line"/>
      <point x="544" y="0" type="line"/>
      <point x="326" y="423" type="line"/>
      <point x="499" y="645" type="line"/>
      <point x="445" y="645" type="line"/>
      <point x="182" y="307" type="line"/>
      <point x="182" y="645" type="line"/>
      <point x="54" y="645" type="line"/>
      <point x="54" y="0" type="line"/>
    </contour>
  </outline>
</glyph>
<glyph name="K.swash" format="1">
  <advance width="615"/>
  <outline>
    <contour>
      <point x="187" y="0" type="line"/>
      <point x="187" y="282" type="line"/>
      <point x="264" y="381" type="line"/>
      <point x="450" y="0" type="line"/>
      <point x="598" y="0" type="line"/>
      <point x="353" y="500" type="line"/>
      <point x="544" y="750" type="line"/>
      <point x="489" y="750" type="line"/>
      <point x="187" y="353" type="line"/>
      <point x="187" y="750" type="line"/>
      <point x="54" y="750" type="line" smooth="yes"/>
      <point x="54" y="0" type="line"/>
    </contour>
  </outline>
</glyph>
<glyph name="K.title" format="1">
  <advance width="615"/>
  <outline>
    <contour>
      <point x="187" y="0" type="line"/>
      <point x="187" y="282" type="line"/>
      <point x="264" y="381" type="line"/>
      <point x="450" y="0" type="line"/>
      <point x="598" y="0" type="line"/>
      <point x="353" y="500" type="line"/>
      <point x="544" y="750" type="line"/>
      <point x="489" y="750" type="line"/>
      <point x="187" y="353" type="line"/>
      <point x="187" y="750" type="line"/>
      <point x="54" y="750" type="line" smooth="yes"/>
      <point x="54" y="0" type="line"/>
    </contour>
    <contour>
      <point x="97" y="43" type="line"/>
      <point x="97" y="707" type="line"/>
      <point x="144" y="707" type="line"/>
      <point x="144" y="43" type="line"/>
    </contour>
    <contour>
      <point x="480.0" y="43.0" type="line"/>
      <point x="293.0" y="420.0" type="line"/>
      <point x="321.0" y="458.0" type="line"/>
      <point x="527.0" y="43.0" type="line"/>
    </contour>
  </outline>
</glyph>
<glyph name="L.random1" format="1">
  <advance width="480"/>
  <outline>
    <contour>
      <point x="60" y="0" type="line" smooth="yes"/>
      <point x="450" y="0" type="line"/>
      <point x="450" y="35" type="line"/>
      <point x="139" y="35" type="line"/>
      <point x="139" y="750" type="line"/>
      <point x="60" y="750" type="line"/>
    </contour>
  </outline>
</glyph>
<glyph name="L.random2" format="1">
  <advance width="544"/>
  <outline>
    <contour>
      <point x="41" y="0" type="line"/>
      <point x="530" y="0" type="line"/>
      <point x="530" y="61" type="line"/>
      <point x="288" y="61" type="line"/>
      <point x="288" y="750" type="line"/>
      <point x="41" y="750" type="line"/>
    </contour>
  </outline>
</glyph>
<glyph name="L.sc" format="1">
  <advance width="461"/>
  <outline>
    <contour>
      <point x="54" y="0" type="line"/>
      <point x="436" y="0" type="line"/>
      <point x="436" y="43" type="line"/>
      <point x="182" y="43" type="line"/>
      <point x="182" y="645" type="line"/>
      <point x="54" y="645" type="line"/>
    </contour>
  </outline>
</glyph>
<glyph name="L.title" format="1">
  <advance width="501"/>
  <outline>
    <contour>
      <point x="54" y="0" type="line"/>
      <point x="476" y="0" type="line"/>
      <point x="476" y="43" type="line"/>
      <point x="187" y="43" type="line"/>
      <point x="187" y="750" type="line"/>
      <point x="54" y="750" type="line"/>
    </contour>
    <contour>
      <point x="97" y="43" type="line"/>
      <point x="97" y="707" type="line"/>
      <point x="144" y="707" type="line"/>
      <point x="144" y="43" type="line"/>
    </contour>
  </outline>
</glyph>
<glyph name="M.random1" format="1">
  <advance width="739"/>
  <outline>
    <contour>
      <point x="98" y="638" type="line"/>
      <point x="318" y="0" type="line"/>
      <point x="380" y="0" type="line"/>
      <point x="600" y="638" type="line"/>
      <point x="600" y="0" type="line"/>
      <point x="679" y="0" type="line"/>
      <point x="679" y="750" type="line" smooth="yes"/>
      <point x="600" y="750" type="line"/>
      <point x="371" y="88" type="line"/>
      <point x="141" y="750" type="line"/>
      <point x="60" y="750" type="line" smooth="yes"/>
      <point x="60" y="0" type="line"/>
      <point x="98" y="0" type="line"/>
    </contour>
  </outline>
</glyph>
<glyph name="M.random2" format="1">
  <advance width="837"/>
  <outline>
    <contour>
      <point x="108" y="538" type="line"/>
      <point x="251" y="0" type="line"/>
      <point x="406" y="0" type="line"/>
      <point x="549" y="519" type="line"/>
      <point x="549" y="0" type="line"/>
      <point x="796" y="0" type="line"/>
      <point x="796" y="750" type="line" smooth="yes"/>
      <point x="549" y="750" type="line"/>
      <point x="420" y="304" type="line"/>
      <point x="299" y="750" type="line"/>
      <point x="41" y="750" type="line" smooth="yes"/>
      <point x="41" y="0" type="line"/>
      <point x="108" y="0" type="line"/>
    </contour>
  </outline>
</glyph>
<glyph name="M.sc" format="1">
  <advance width="714"/>
  <outline>
    <contour>
      <point x="99" y="521" type="line"/>
      <point x="272" y="0" type="line"/>
      <point x="359" y="0" type="line"/>
      <point x="532" y="521" type="line"/>
      <point x="532" y="0" type="line"/>
      <point x="660" y="0" type="line"/>
      <point x="660" y="645" type="line" smooth="yes"/>
      <point x="532" y="645" type="line"/>
      <point x="361" y="150" type="line"/>
      <point x="189" y="645" type="line"/>
      <point x="54" y="645" type="line" smooth="yes"/>
      <point x="54" y="0" type="line"/>
      <point x="99" y="0" type="line"/>
    </contour>
  </outline>
</glyph>
<glyph name="M.swash" format="1">
  <advance width="770"/>
  <outline>
    <contour>
      <point x="101" y="614" type="line"/>
      <point x="297" y="0" type="line"/>
      <point x="388" y="0" type="line"/>
      <point x="584" y="606" type="line"/>
      <point x="584" y="0" type="line"/>
      <point x="717" y="0" type="line"/>
      <point x="717" y="750" type="line" smooth="yes"/>
      <point x="584" y="750" type="line"/>
      <point x="387" y="157" type="line"/>
      <point x="192" y="750" type="line"/>
      <point x="54" y="750" type="line" smooth="yes"/>
      <point x="54" y="0" type="line"/>
      <point x="101" y="0" type="line"/>
    </contour>
  </outline>
</glyph>
<glyph name="M.title" format="1">
  <advance width="770"/>
  <outline>
    <contour>
      <point x="101" y="614" type="line"/>
      <point x="297" y="0" type="line"/>
      <point x="388" y="0" type="line"/>
      <point x="584" y="606" type="line"/>
      <point x="584" y="0" type="line"/>
      <point x="717" y="0" type="line"/>
      <point x="717" y="750" type="line" smooth="yes"/>
      <point x="584" y="750" type="line"/>
      <point x="387" y="157" type="line"/>
      <point x="192" y="750" type="line"/>
      <point x="54" y="750" type="line" smooth="yes"/>
      <point x="54" y="0" type="line"/>
      <point x="101" y="0" type="line"/>
    </contour>
    <contour>
      <point x="627" y="43" type="line"/>
      <point x="627" y="707" type="line"/>
      <point x="674" y="707" type="line"/>
      <point x="674" y="43" type="line"/>
    </contour>
    <contour>
      <point x="333.0" y="43.0" type="line"/>
      <point x="114.0" y="707.0" type="line"/>
      <point x="161.0" y="707.0" type="line"/>
      <point x="364.0" y="90.0" type="line"/>
      <point x="348.0" y="43.0" type="line"/>
    </contour>
  </outline>
</glyph>
<glyph name="N.random1" format="1">
  <advance width="585"/>
  <outline>
    <contour>
      <point x="98" y="642" type="line"/>
      <point x="467" y="0" type="line"/>
      <point x="525" y="0" type="line"/>
      <point x="525" y="750" type="line"/>
      <point x="487" y="750" type="line"/>
      <point x="487" y="134" type="line"/>
      <point x="132" y="750" type="line"/>
      <point x="60" y="750" type="line" smooth="yes"/>
      <point x="60" y="0" type="line"/>
      <point x="98" y="0" type="line"/>
    </contour>
  </outline>
</glyph>
<glyph name="N.random2" format="1">
  <advance width="622"/>
  <outline>
    <contour>
      <point x="108" y="530" type="line"/>
      <point x="373" y="0" type="line"/>
      <point x="582" y="0" type="line"/>
      <point x="582" y="750" type="line"/>
      <point x="514" y="750" type="line"/>
      <point x="514" y="271" type="line"/>
      <point x="276" y="750" type="line"/>
      <point x="41" y="750" type="line" smooth="yes"/>
      <point x="41" y="0" type="line"/>
      <point x="108" y="0" type="line"/>
    </contour>
  </outline>
</glyph>
<glyph name="N.sc" format="1">
  <advance width="554"/>
  <outline>
    <contour>
      <point x="99" y="507" type="line"/>
      <point x="396" y="0" type="line"/>
      <point x="500" y="0" type="line"/>
      <point x="500" y="645" type="line"/>
      <point x="455" y="645" type="line"/>
      <point x="455" y="162" type="line"/>
      <point x="173" y="645" type="line"/>
      <point x="54" y="645" type="line" smooth="yes"/>
      <point x="54" y="0" type="line"/>
      <point x="99" y="0" type="line"/>
    </contour>
  </outline>
</glyph>
<glyph name="N.swash" format="1">
  <advance width="597"/>
  <outline>
    <contour>
      <point x="101" y="608" type="line"/>
      <point x="437" y="0" type="line"/>
      <point x="543" y="0" type="line"/>
      <point x="543" y="750" type="line"/>
      <point x="496" y="750" type="line"/>
      <point x="496" y="175" type="line"/>
      <point x="178" y="750" type="line"/>
      <point x="54" y="750" type="line" smooth="yes"/>
      <point x="54" y="0" type="line"/>
      <point x="101" y="0" type="line"/>
    </contour>
  </outline>
</glyph>
<glyph name="N.title" format="1">
  <advance width="597"/>
  <outline>
    <contour>
      <point x="101" y="608" type="line"/>
      <point x="437" y="0" type="line"/>
      <point x="543" y="0" type="line"/>
      <point x="543" y="750" type="line"/>
      <point x="496" y="750" type="line"/>
      <point x="496" y="175" type="line"/>
      <point x="178" y="750" type="line"/>
      <point x="54" y="750" type="line" smooth="yes"/>
      <point x="54" y="0" type="line"/>
      <point x="101" y="0" type="line"/>
    </contour>
    <contour>
      <point x="470.0" y="43.0" type="line"/>
      <point x="97.0" y="707.0" type="line"/>
      <point x="144.0" y="707.0" type="line"/>
      <point x="496.0" y="82.0" type="line"/>
      <point x="496.0" y="43.0" type="line"/>
    </contour>
  </outline>
</glyph>
<glyph name="O.random1" format="1">
  <advance width="624"/>
  <outline>
    <contour>
      <point x="307" y="760" type="line"/>
      <point x="153" y="760"/>
      <point x="50" y="672"/>
      <point x="50" y="483" type="curve" smooth="yes"/>
      <point x="50" y="267" type="line"/>
      <point x="50" y="78"/>
      <point x="153" y="-10"/>
      <point x="307" y="-10" type="curve"/>
      <point x="317" y="-10" type="line"/>
      <point x="471" y="-10"/>
      <point x="574" y="78"/>
      <point x="574" y="267" type="curve"/>
      <point x="574" y="483" type="line" smooth="yes"/>
      <point x="574" y="672"/>
      <point x="471" y="760"/>
      <point x="317" y="760" type="curve"/>
    </contour>
    <contour>
      <point x="438" y="727"/>
      <point x="492" y="650"/>
      <point x="492" y="503" type="curve" smooth="yes"/>
      <point x="492" y="247" type="line"/>
      <point x="492" y="100"/>
      <point x="438" y="23"/>
      <point x="312" y="23" type="curve"/>
      <point x="186" y="23"/>
      <point x="132" y="100"/>
      <point x="132" y="247" type="curve"/>
      <point x="132" y="503" type="line" smooth="yes"/>
      <point x="132" y="650"/>
      <point x="186" y="727"/>
      <point x="312" y="727" type="curve"/>
    </contour>
  </outline>
</glyph>
<glyph name="O.random2" format="1">
  <advance width="702"/>
  <outline>
    <contour>
      <point x="346" y="760" type="line"/>
      <point x="129" y="760"/>
      <point x="31" y="663"/>
      <point x="31" y="471" type="curve"/>
      <point x="31" y="279" type="line"/>
      <point x="31" y="87"/>
      <point x="129" y="-10"/>
      <point x="346" y="-10" type="curve"/>
      <point x="356" y="-10" type="line"/>
      <point x="573" y="-10"/>
      <point x="672" y="87"/>
      <point x="672" y="279" type="curve"/>
      <point x="672" y="471" type="line"/>
      <point x="672" y="663"/>
      <point x="573" y="760"/>
      <point x="356" y="760" type="curve"/>
    </contour>
    <contour>
      <point x="399" y="700"/>
      <point x="419" y="673"/>
      <point x="419" y="611" type="curve" smooth="yes"/>
      <point x="419" y="139" type="line"/>
      <point x="419" y="77"/>
      <point x="399" y="50"/>
      <point x="351" y="50" type="curve"/>
      <point x="303" y="50"/>
      <point x="283" y="77"/>
      <point x="283" y="139" type="curve"/>
      <point x="283" y="611" type="line" smooth="yes"/>
      <point x="283" y="673"/>
      <point x="303" y="700"/>
      <point x="351" y="700" type="curve"/>
    </contour>
  </outline>
</glyph>
<glyph name="O.sc" format="1">
  <advance width="603"/>
  <outline>
    <contour>
      <point x="463" y="-10"/>
      <point x="559" y="68"/>
      <point x="559" y="245" type="curve"/>
      <point x="559" y="400" type="line" smooth="yes"/>
      <point x="559" y="577"/>
      <point x="463" y="655"/>
      <point x="307" y="655" type="curve"/>
      <point x="297" y="655" type="line"/>
      <point x="140" y="655"/>
      <point x="44" y="577"/>
      <point x="44" y="400" type="curve" smooth="yes"/>
      <point x="44" y="245" type="line"/>
      <point x="44" y="68"/>
      <point x="140" y="-10"/>
      <point x="297" y="-10" type="curve"/>
      <point x="307" y="-10" type="line"/>
    </contour>
    <contour>
      <point x="427" y="81"/>
      <point x="386" y="32"/>
      <point x="302" y="32" type="curve"/>
      <point x="218" y="32"/>
      <point x="176" y="81"/>
      <point x="176" y="186" type="curve"/>
      <point x="176" y="459" type="line"/>
      <point x="176" y="564"/>
      <point x="218" y="613"/>
      <point x="302" y="613" type="curve"/>
      <point x="386" y="613"/>
      <point x="427" y="564"/>
      <point x="427" y="459" type="curve"/>
      <point x="427" y="186" type="line"/>
    </contour>
  </outline>
</glyph>
<glyph name="O.swash" format="1">
  <advance width="649"/>
  <outline>
    <contour>
      <point x="320" y="760" type="line"/>
      <point x="145" y="760"/>
      <point x="44" y="669"/>
      <point x="44" y="479" type="curve"/>
      <point x="44" y="271" type="line"/>
      <point x="44" y="81"/>
      <point x="145" y="-10"/>
      <point x="320" y="-10" type="curve"/>
      <point x="330" y="-10" type="line"/>
      <point x="504" y="-10"/>
      <point x="605" y="81"/>
      <point x="605" y="271" type="curve"/>
      <point x="605" y="479" type="line"/>
      <point x="605" y="669"/>
      <point x="504" y="760"/>
      <point x="330" y="760" type="curve"/>
    </contour>
    <contour>
      <point x="426" y="718"/>
      <point x="469" y="657"/>
      <point x="469" y="538" type="curve" smooth="yes"/>
      <point x="469" y="213" type="line"/>
      <point x="469" y="93"/>
      <point x="426" y="32"/>
      <point x="325" y="32" type="curve"/>
      <point x="224" y="32"/>
      <point x="180" y="93"/>
      <point x="180" y="213" type="curve"/>
      <point x="180" y="538" type="line" smooth="yes"/>
      <point x="180" y="657"/>
      <point x="224" y="718"/>
      <point x="325" y="718" type="curve"/>
    </contour>
  </outline>
</glyph>
<glyph name="O.title" format="1">
  <advance width="649"/>
  <outline>
    <contour>
      <point x="160" y="81" type="curve"/>
      <point x="145" y="115"/>
      <point x="137" y="159"/>
      <point x="137" y="213" type="curve" smooth="yes"/>
      <point x="137" y="538" type="line" smooth="yes"/>
      <point x="137" y="592"/>
      <point x="145" y="635"/>
      <point x="160" y="669" type="curve"/>
      <point x="113" y="630"/>
      <point x="87" y="567"/>
      <point x="87" y="479" type="curve" smooth="yes"/>
      <point x="87" y="271" type="line" smooth="yes"/>
      <point x="87" y="183"/>
      <point x="112" y="120"/>
    </contour>
    <contour>
      <point x="490" y="668" type="curve"/>
      <point x="505" y="635"/>
      <point x="512" y="592"/>
      <point x="512" y="538" type="curve" smooth="yes"/>
      <point x="512" y="213" type="line" smooth="yes"/>
      <point x="512" y="159"/>
      <point x="505" y="115"/>
      <point x="490" y="81" type="curve"/>
      <point x="537" y="121"/>
      <point x="562" y="184"/>
      <point x="562" y="271" type="curve" smooth="yes"/>
      <point x="562" y="479" type="line" smooth="yes"/>
      <point x="562" y="566"/>
      <point x="537" y="629"/>
    </contour>
    <contour>
      <point x="320" y="760" type="curve" smooth="yes"/>
      <point x="330" y="760" type="line" smooth="yes"/>
      <point x="504" y="760"/>
      <point x="605" y="669"/>
      <point x="605" y="479" type="curve" smooth="yes"/>
      <point x="605" y="271" type="line" smooth="yes"/>
      <point x="605" y="81"/>
      <point x="504" y="-10"/>
      <point x="330" y="-10" type="curve" smooth="yes"/>
      <point x="320" y="-10" type="line" smooth="yes"/>
      <point x="145" y="-10"/>
      <point x="44" y="81"/>
      <point x="44" y="271" type="curve" smooth="yes"/>
      <point x="44" y="479" type="line" smooth="yes"/>
      <point x="44" y="669"/>
      <point x="145" y="760"/>
    </contour>
    <contour>
      <point x="469" y="538" type="line" smooth="yes"/>
      <point x="469" y="657"/>
      <point x="426" y="718"/>
      <point x="325" y="718" type="curve" smooth="yes"/>
      <point x="224" y="718"/>
      <point x="180" y="657"/>
      <point x="180" y="538" type="curve" smooth="yes"/>
      <point x="180" y="213" type="line" smooth="yes"/>
      <point x="180" y="93"/>
      <point x="224" y="32"/>
      <point x="325" y="32" type="curve" smooth="yes"/>
      <point x="426" y="32"/>
      <point x="469" y="93"/>
      <point x="469" y="213" type="curve" smooth="yes"/>
    </contour>
  </outline>
</glyph>
<glyph name="O_O" format="1">
  <advance width="849"/>
  <outline>
    <contour>
      <point x="334" y="212" type="line" smooth="yes"/>
      <point x="334" y="71"/>
      <point x="405" y="-10"/>
      <point x="525" y="-10" type="curve"/>
      <point x="530" y="-10" type="line"/>
      <point x="704" y="-10"/>
      <point x="805" y="81"/>
      <point x="805" y="271" type="curve" smooth="yes"/>
      <point x="805" y="479" type="line"/>
      <point x="805" y="669"/>
      <point x="704" y="760"/>
      <point x="530" y="760" type="curve"/>
      <point x="525" y="760" type="line"/>
      <point x="405" y="760"/>
      <point x="334" y="679"/>
      <point x="334" y="538" type="curve" smooth="yes"/>
    </contour>
    <contour>
      <point x="380" y="213" type="curve" smooth="yes"/>
      <point x="380" y="538" type="line" smooth="yes"/>
      <point x="380" y="657"/>
      <point x="424" y="718"/>
      <point x="525" y="718" type="curve"/>
      <point x="626" y="718"/>
      <point x="669" y="657"/>
      <point x="669" y="538" type="curve" smooth="yes"/>
      <point x="669" y="213" type="line" smooth="yes"/>
      <point x="669" y="93"/>
      <point x="626" y="32"/>
      <point x="525" y="32" type="curve"/>
      <point x="424" y="32"/>
      <point x="380" y="93"/>
    </contour>
    <contour>
      <point x="515" y="212" type="curve" smooth="yes"/>
      <point x="515" y="538" type="line" smooth="yes"/>
      <point x="515" y="679"/>
      <point x="444" y="760"/>
      <point x="324" y="760" type="curve"/>
      <point x="319" y="760" type="line"/>
      <point x="145" y="760"/>
      <point x="44" y="669"/>
      <point x="44" y="479" type="curve"/>
      <point x="44" y="271" type="line" smooth="yes"/>
      <point x="44" y="81"/>
      <point x="145" y="-10"/>
      <point x="319" y="-10" type="curve"/>
      <point x="324" y="-10" type="line"/>
      <point x="444" y="-10"/>
      <point x="515" y="71"/>
    </contour>
    <contour>
      <point x="469" y="213" type="line" smooth="yes"/>
      <point x="469" y="93"/>
      <point x="425" y="32"/>
      <point x="324" y="32" type="curve"/>
      <point x="223" y="32"/>
      <point x="180" y="93"/>
      <point x="180" y="213" type="curve" smooth="yes"/>
      <point x="180" y="538" type="line" smooth="yes"/>
      <point x="180" y="657"/>
      <point x="223" y="718"/>
      <point x="324" y="718" type="curve"/>
      <point x="425" y="718"/>
      <point x="469" y="657"/>
      <point x="469" y="538" type="curve" smooth="yes"/>
    </contour>
  </outline>
</glyph>
<glyph name="P.random1" format="1">
  <advance width="536"/>
  <outline>
    <contour>
      <point x="60" y="0" type="line"/>
      <point x="139" y="0" type="line"/>
      <point x="139" y="317" type="line"/>
      <point x="278" y="317" type="line" smooth="yes"/>
      <point x="417" y="317"/>
      <point x="506" y="375"/>
      <point x="506" y="500" type="curve" smooth="yes"/>
      <point x="506" y="567" type="line" smooth="yes"/>
      <point x="506" y="691"/>
      <point x="417" y="750"/>
      <point x="278" y="750" type="curve" smooth="yes"/>
      <point x="60" y="750" type="line" smooth="yes"/>
    </contour>
    <contour>
      <point x="139" y="715" type="line"/>
      <point x="283" y="715" type="line"/>
      <point x="375" y="715"/>
      <point x="424" y="672"/>
      <point x="424" y="577" type="curve" smooth="yes"/>
      <point x="424" y="490" type="line"/>
      <point x="424" y="395"/>
      <point x="375" y="352"/>
      <point x="283" y="352" type="curve" smooth="yes"/>
      <point x="139" y="352" type="line"/>
    </contour>
  </outline>
</glyph>
<glyph name="P.random2" format="1">
  <advance width="676"/>
  <outline>
    <contour>
      <point x="41" y="0" type="line"/>
      <point x="288" y="0" type="line"/>
      <point x="288" y="298" type="line"/>
      <point x="418" y="298" type="line"/>
      <point x="575" y="298"/>
      <point x="654" y="353"/>
      <point x="654" y="470" type="curve" smooth="yes"/>
      <point x="654" y="577" type="line" smooth="yes"/>
      <point x="654" y="694"/>
      <point x="575" y="750"/>
      <point x="418" y="750" type="curve" smooth="yes"/>
      <point x="41" y="750" type="line" smooth="yes"/>
    </contour>
    <contour>
      <point x="288" y="689" type="line"/>
      <point x="346" y="689" type="line"/>
      <point x="387" y="689"/>
      <point x="406" y="670"/>
      <point x="406" y="619" type="curve" smooth="yes"/>
      <point x="406" y="428" type="line"/>
      <point x="406" y="378"/>
      <point x="387" y="358"/>
      <point x="346" y="358" type="curve" smooth="yes"/>
      <point x="288" y="358" type="line"/>
    </contour>
  </outline>
</glyph>
<glyph name="P.sc" format="1">
  <advance width="540"/>
  <outline>
    <contour>
      <point x="182" y="602" type="line"/>
      <point x="281" y="602" type="line"/>
      <point x="352" y="602"/>
      <point x="383" y="573"/>
      <point x="383" y="504" type="curve"/>
      <point x="383" y="405" type="line"/>
      <point x="383" y="336"/>
      <point x="352" y="308"/>
      <point x="281" y="308" type="curve" smooth="yes"/>
      <point x="182" y="308" type="line"/>
    </contour>
    <contour>
      <point x="303" y="264" type="line" smooth="yes"/>
      <point x="434" y="264"/>
      <point x="513" y="316"/>
      <point x="513" y="426" type="curve" smooth="yes"/>
      <point x="513" y="483" type="line"/>
      <point x="513" y="594"/>
      <point x="434" y="645"/>
      <point x="304" y="645" type="curve"/>
      <point x="54" y="645" type="line" smooth="yes"/>
      <point x="54" y="0" type="line"/>
      <point x="182" y="0" type="line"/>
      <point x="182" y="264" type="line"/>
    </contour>
  </outline>
</glyph>
<glyph name="P.title" format="1">
  <advance width="581"/>
  <outline>
    <contour>
      <point x="441" y="685" type="curve"/>
      <point x="485" y="665"/>
      <point x="511" y="628"/>
      <point x="511" y="570" type="curve" smooth="yes"/>
      <point x="511" y="491" type="line" smooth="yes"/>
      <point x="511" y="433"/>
      <point x="485" y="396"/>
      <point x="441" y="375" type="curve"/>
      <point x="454" y="399"/>
      <point x="461" y="431"/>
      <point x="461" y="470" type="curve" smooth="yes"/>
      <point x="461" y="591" type="line" smooth="yes"/>
      <point x="461" y="630"/>
      <point x="454" y="661"/>
    </contour>
    <contour>
      <point x="54" y="0" type="line"/>
      <point x="187" y="0" type="line"/>
      <point x="187" y="311" type="line"/>
      <point x="323" y="311" type="line" smooth="yes"/>
      <point x="468" y="311"/>
      <point x="554" y="368"/>
      <point x="554" y="491" type="curve" smooth="yes"/>
      <point x="554" y="570" type="line" smooth="yes"/>
      <point x="554" y="692"/>
      <point x="468" y="750"/>
      <point x="323" y="750" type="curve" smooth="yes"/>
      <point x="54" y="750" type="line"/>
    </contour>
    <contour>
      <point x="187" y="707" type="line"/>
      <point x="303" y="707" type="line" smooth="yes"/>
      <point x="379" y="707"/>
      <point x="418" y="671"/>
      <point x="418" y="591" type="curve" smooth="yes"/>
      <point x="418" y="470" type="line" smooth="yes"/>
      <point x="418" y="390"/>
      <point x="379" y="354"/>
      <point x="303" y="354" type="curve" smooth="yes"/>
      <point x="187" y="354" type="line"/>
    </contour>
    <contour>
      <point x="97" y="43" type="line"/>
      <point x="97" y="707" type="line"/>
      <point x="144" y="707" type="line"/>
      <point x="144" y="43" type="line"/>
    </contour>
  </outline>
</glyph>
<glyph name="Q.random1" format="1">
  <advance width="624"/>
  <outline>
    <contour>
      <point x="545" y="-146" type="line"/>
      <point x="545" y="-74" type="line"/>
      <point x="503" y="-74" type="line" smooth="yes"/>
      <point x="440" y="-74"/>
      <point x="416" y="-64"/>
      <point x="398" y="-38" type="curve" smooth="yes"/>
      <point x="375" y="-5" type="line"/>
      <point x="496" y="15"/>
      <point x="574" y="103"/>
      <point x="574" y="267" type="curve" smooth="yes"/>
      <point x="574" y="483" type="line" smooth="yes"/>
      <point x="574" y="672"/>
      <point x="471" y="760"/>
      <point x="317" y="760" type="curve" smooth="yes"/>
      <point x="307" y="760" type="line" smooth="yes"/>
      <point x="153" y="760"/>
      <point x="50" y="672"/>
      <point x="50" y="483" type="curve" smooth="yes"/>
      <point x="50" y="267" type="line" smooth="yes"/>
      <point x="50" y="78"/>
      <point x="153" y="-10"/>
      <point x="307" y="-10" type="curve" smooth="yes"/>
      <point x="317" y="-10" type="line" smooth="yes"/>
      <point x="323" y="-10"/>
      <point x="329" y="-10"/>
      <point x="335" y="-10" type="curve"/>
      <point x="371" y="-69" type="line" smooth="yes"/>
      <point x="406" y="-127"/>
      <point x="441" y="-146"/>
      <point x="511" y="-146" type="curve" smooth="yes"/>
    </contour>
    <contour>
      <point x="438" y="727"/>
      <point x="492" y="650"/>
      <point x="492" y="503" type="curve" smooth="yes"/>
      <point x="492" y="247" type="line" smooth="yes"/>
      <point x="492" y="100"/>
      <point x="438" y="23"/>
      <point x="312" y="23" type="curve" smooth="yes"/>
      <point x="186" y="23"/>
      <point x="132" y="100"/>
      <point x="132" y="247" type="curve" smooth="yes"/>
      <point x="132" y="503" type="line" smooth="yes"/>
      <point x="132" y="650"/>
      <point x="186" y="727"/>
      <point x="312" y="727" type="curve" smooth="yes"/>
    </contour>
  </outline>
</glyph>
<glyph name="Q.random2" format="1">
  <advance width="702"/>
  <outline>
    <contour>
      <point x="602" y="-173" type="line"/>
      <point x="602" y="-35" type="line"/>
      <point x="458" y="-35" type="line" smooth="yes"/>
      <point x="428" y="-35"/>
      <point x="418" y="-30"/>
      <point x="409" y="-16" type="curve" smooth="yes"/>
      <point x="404" y="-8" type="line"/>
      <point x="588" y="5"/>
      <point x="672" y="102"/>
      <point x="672" y="279" type="curve" smooth="yes"/>
      <point x="672" y="471" type="line" smooth="yes"/>
      <point x="672" y="663"/>
      <point x="573" y="760"/>
      <point x="356" y="760" type="curve" smooth="yes"/>
      <point x="346" y="760" type="line" smooth="yes"/>
      <point x="129" y="760"/>
      <point x="31" y="663"/>
      <point x="31" y="471" type="curve" smooth="yes"/>
      <point x="31" y="279" type="line" smooth="yes"/>
      <point x="31" y="88"/>
      <point x="128" y="-9"/>
      <point x="343" y="-10" type="curve"/>
      <point x="365" y="-71" type="line" smooth="yes"/>
      <point x="388" y="-138"/>
      <point x="436" y="-173"/>
      <point x="516" y="-173" type="curve"/>
    </contour>
    <contour>
      <point x="399" y="700"/>
      <point x="419" y="673"/>
      <point x="419" y="611" type="curve" smooth="yes"/>
      <point x="419" y="139" type="line" smooth="yes"/>
      <point x="419" y="77"/>
      <point x="399" y="50"/>
      <point x="351" y="50" type="curve" smooth="yes"/>
      <point x="303" y="50"/>
      <point x="283" y="77"/>
      <point x="283" y="139" type="curve" smooth="yes"/>
      <point x="283" y="611" type="line" smooth="yes"/>
      <point x="283" y="673"/>
      <point x="303" y="700"/>
      <point x="351" y="700" type="curve" smooth="yes"/>
    </contour>
  </outline>
</glyph>
<glyph name="Q.sc" format="1">
  <advance width="603"/>
  <outline>
    <contour>
      <point x="509" y="-141" type="line"/>
      <point x="509" y="-50" type="line"/>
      <point x="438" y="-50" type="line" smooth="yes"/>
      <point x="401" y="-50"/>
      <point x="387" y="-44"/>
      <point x="370" y="-20" type="curve" smooth="yes"/>
      <point x="361" y="-7" type="line"/>
      <point x="485" y="10"/>
      <point x="560" y="89"/>
      <point x="560" y="245" type="curve" smooth="yes"/>
      <point x="560" y="400" type="line" smooth="yes"/>
      <point x="560" y="577"/>
      <point x="464" y="655"/>
      <point x="308" y="655" type="curve" smooth="yes"/>
      <point x="298" y="655" type="line" smooth="yes"/>
      <point x="141" y="655"/>
      <point x="45" y="577"/>
      <point x="45" y="400" type="curve" smooth="yes"/>
      <point x="45" y="245" type="line" smooth="yes"/>
      <point x="45" y="68"/>
      <point x="141" y="-10"/>
      <point x="298" y="-10" type="curve" smooth="yes"/>
      <point x="308" y="-10" type="line" smooth="yes"/>
      <point x="318" y="-10" type="line"/>
      <point x="344" y="-64" type="line" smooth="yes"/>
      <point x="370" y="-119"/>
      <point x="401" y="-141"/>
      <point x="463" y="-141" type="curve"/>
    </contour>
    <contour>
      <point x="428" y="81"/>
      <point x="387" y="32"/>
      <point x="303" y="32" type="curve" smooth="yes"/>
      <point x="219" y="32"/>
      <point x="177" y="81"/>
      <point x="177" y="186" type="curve" smooth="yes"/>
      <point x="177" y="459" type="line" smooth="yes"/>
      <point x="177" y="564"/>
      <point x="219" y="613"/>
      <point x="303" y="613" type="curve" smooth="yes"/>
      <point x="387" y="613"/>
      <point x="428" y="564"/>
      <point x="428" y="459" type="curve" smooth="yes"/>
      <point x="428" y="186" type="line" smooth="yes"/>
    </contour>
  </outline>
</glyph>
<glyph name="Q.title" format="1">
  <advance width="649"/>
  <outline>
    <contour>
      <point x="563" y="-155" type="line"/>
      <point x="563" y="-62" type="line"/>
      <point x="489" y="-62" type="line" smooth="yes"/>
      <point x="436" y="-62"/>
      <point x="417" y="-53"/>
      <point x="402" y="-31" type="curve" smooth="yes"/>
      <point x="385" y="-7" type="line"/>
      <point x="525" y="11"/>
      <point x="605" y="102"/>
      <point x="605" y="271" type="curve" smooth="yes"/>
      <point x="605" y="479" type="line" smooth="yes"/>
      <point x="605" y="669"/>
      <point x="504" y="760"/>
      <point x="330" y="760" type="curve" smooth="yes"/>
      <point x="320" y="760" type="line" smooth="yes"/>
      <point x="145" y="760"/>
      <point x="44" y="669"/>
      <point x="44" y="479" type="curve" smooth="yes"/>
      <point x="44" y="271" type="line" smooth="yes"/>
      <point x="44" y="81"/>
      <point x="145" y="-10"/>
      <point x="320" y="-10" type="curve" smooth="yes"/>
      <point x="330" y="-10" type="line" smooth="yes"/>
      <point x="338" y="-10" type="line"/>
      <point x="369" y="-70" type="line" smooth="yes"/>
      <point x="400" y="-131"/>
      <point x="440" y="-155"/>
      <point x="513" y="-155" type="curve"/>
    </contour>
    <contour>
      <point x="426" y="718"/>
      <point x="469" y="657"/>
      <point x="469" y="538" type="curve" smooth="yes"/>
      <point x="469" y="213" type="line" smooth="yes"/>
      <point x="469" y="93"/>
      <point x="426" y="32"/>
      <point x="325" y="32" type="curve" smooth="yes"/>
      <point x="224" y="32"/>
      <point x="180" y="93"/>
      <point x="180" y="213" type="curve" smooth="yes"/>
      <point x="180" y="538" type="line" smooth="yes"/>
      <point x="180" y="657"/>
      <point x="224" y="718"/>
      <point x="325" y="718" type="curve" smooth="yes"/>
    </contour>
    <contour>
      <point x="160" y="81" type="curve"/>
      <point x="112" y="120"/>
      <point x="87" y="183"/>
      <point x="87" y="271" type="curve" smooth="yes"/>
      <point x="87" y="479" type="line" smooth="yes"/>
      <point x="87" y="567"/>
      <point x="113" y="630"/>
      <point x="160" y="669" type="curve"/>
      <point x="145" y="635"/>
      <point x="137" y="592"/>
      <point x="137" y="538" type="curve" smooth="yes"/>
      <point x="137" y="213" type="line" smooth="yes"/>
      <point x="137" y="159"/>
      <point x="145" y="115"/>
    </contour>
    <contour>
      <point x="490" y="668" type="curve"/>
      <point x="537" y="629"/>
      <point x="562" y="566"/>
      <point x="562" y="479" type="curve" smooth="yes"/>
      <point x="562" y="271" type="line" smooth="yes"/>
      <point x="562" y="184"/>
      <point x="537" y="121"/>
      <point x="490" y="81" type="curve"/>
      <point x="505" y="115"/>
      <point x="512" y="159"/>
      <point x="512" y="213" type="curve" smooth="yes"/>
      <point x="512" y="538" type="line" smooth="yes"/>
      <point x="512" y="592"/>
      <point x="505" y="635"/>
    </contour>
  </outline>
</glyph>
<glyph name="R.random1" format="1">
  <advance width="575"/>
  <outline>
    <contour>
      <point x="139" y="715" type="line"/>
      <point x="306" y="715" type="line"/>
      <point x="398" y="715"/>
      <point x="447" y="672"/>
      <point x="447" y="577" type="curve" smooth="yes"/>
      <point x="447" y="542" type="line"/>
      <point x="447" y="447"/>
      <point x="398" y="404"/>
      <point x="306" y="404" type="curve"/>
      <point x="139" y="404" type="line"/>
    </contour>
    <contour>
      <point x="309" y="369" type="line"/>
      <point x="401" y="369"/>
      <point x="450" y="326"/>
      <point x="450" y="231" type="curve"/>
      <point x="450" y="0" type="line"/>
      <point x="529" y="0" type="line"/>
      <point x="529" y="214" type="line" smooth="yes"/>
      <point x="529" y="311"/>
      <point x="472" y="368"/>
      <point x="373" y="388" type="curve"/>
      <point x="470" y="408"/>
      <point x="529" y="463"/>
      <point x="529" y="557" type="curve" smooth="yes"/>
      <point x="529" y="567" type="line" smooth="yes"/>
      <point x="529" y="692"/>
      <point x="440" y="750"/>
      <point x="301" y="750" type="curve" smooth="yes"/>
      <point x="60" y="750" type="line" smooth="yes"/>
      <point x="60" y="0" type="line"/>
      <point x="139" y="0" type="line"/>
      <point x="139" y="369" type="line"/>
    </contour>
    <contour>
      <point x="286" y="375" type="move" name="center"/>
    </contour>
  </outline>
</glyph>
<glyph name="R.random2" format="1">
  <advance width="691"/>
  <outline>
    <contour>
      <point x="288" y="689" type="line"/>
      <point x="351" y="689" type="line"/>
      <point x="392" y="689"/>
      <point x="411" y="670"/>
      <point x="411" y="619" type="curve" smooth="yes"/>
      <point x="411" y="489" type="line"/>
      <point x="411" y="438"/>
      <point x="392" y="419"/>
      <point x="351" y="419" type="curve" smooth="yes"/>
      <point x="288" y="419" type="line"/>
    </contour>
    <contour>
      <point x="352" y="358" type="line" smooth="yes"/>
      <point x="392" y="358"/>
      <point x="412" y="338"/>
      <point x="412" y="288" type="curve" smooth="yes"/>
      <point x="412" y="0" type="line"/>
      <point x="659" y="0" type="line"/>
      <point x="659" y="228" type="line"/>
      <point x="659" y="317"/>
      <point x="612" y="369"/>
      <point x="510" y="389" type="curve"/>
      <point x="611" y="409"/>
      <point x="659" y="460"/>
      <point x="659" y="548" type="curve" smooth="yes"/>
      <point x="659" y="577" type="line" smooth="yes"/>
      <point x="659" y="694"/>
      <point x="580" y="750"/>
      <point x="423" y="750" type="curve" smooth="yes"/>
      <point x="41" y="750" type="line" smooth="yes"/>
      <point x="41" y="0" type="line"/>
      <point x="288" y="0" type="line"/>
      <point x="288" y="358" type="line"/>
    </contour>
  </outline>
</glyph>
<glyph name="R.sc" format="1">
  <advance width="569"/>
  <outline>
    <contour>
      <point x="182" y="602" type="line"/>
      <point x="297" y="602" type="line"/>
      <point x="366" y="602"/>
      <point x="397" y="573"/>
      <point x="397" y="508" type="curve"/>
      <point x="397" y="456" type="line"/>
      <point x="397" y="386"/>
      <point x="365" y="356"/>
      <point x="297" y="356" type="curve"/>
      <point x="182" y="356" type="line"/>
    </contour>
    <contour>
      <point x="300" y="312" type="line"/>
      <point x="366" y="312"/>
      <point x="400" y="279"/>
      <point x="400" y="212" type="curve"/>
      <point x="400" y="0" type="line"/>
      <point x="528" y="0" type="line"/>
      <point x="528" y="188" type="line"/>
      <point x="528" y="267"/>
      <point x="480" y="317"/>
      <point x="388" y="335" type="curve"/>
      <point x="478" y="353"/>
      <point x="527" y="400"/>
      <point x="527" y="478" type="curve"/>
      <point x="527" y="487" type="line"/>
      <point x="527" y="592"/>
      <point x="447" y="645"/>
      <point x="320" y="645" type="curve"/>
      <point x="54" y="645" type="line" smooth="yes"/>
      <point x="54" y="0" type="line"/>
      <point x="182" y="0" type="line"/>
      <point x="182" y="312" type="line"/>
    </contour>
  </outline>
</glyph>
<glyph name="R.title" format="1">
  <advance width="612"/>
  <outline>
    <contour>
      <point x="459" y="685" type="curve"/>
      <point x="502" y="665"/>
      <point x="528" y="628"/>
      <point x="528" y="570" type="curve" smooth="yes"/>
      <point x="528" y="554" type="line" smooth="yes"/>
      <point x="528" y="504"/>
      <point x="506" y="471"/>
      <point x="468" y="450" type="curve"/>
      <point x="475" y="471"/>
      <point x="479" y="496"/>
      <point x="479" y="525" type="curve" smooth="yes"/>
      <point x="479" y="591" type="line" smooth="yes"/>
      <point x="479" y="630"/>
      <point x="472" y="661"/>
    </contour>
    <contour>
      <point x="469" y="325" type="line"/>
      <point x="475" y="310"/>
      <point x="479" y="292"/>
      <point x="480" y="272" type="curve"/>
    </contour>
    <contour>
      <point x="528" y="43" type="line"/>
      <point x="481" y="43" type="line"/>
      <point x="481" y="249" type="line" smooth="yes"/>
      <point x="481" y="257"/>
      <point x="481" y="265"/>
      <point x="480" y="272" type="curve"/>
      <point x="469" y="325" type="line"/>
      <point x="507" y="304"/>
      <point x="528" y="269"/>
      <point x="528" y="219" type="curve" smooth="yes"/>
    </contour>
    <contour>
      <point x="187" y="707" type="line"/>
      <point x="321" y="707" type="line" smooth="yes"/>
      <point x="396" y="707"/>
      <point x="436" y="671"/>
      <point x="436" y="591" type="curve" smooth="yes"/>
      <point x="436" y="525" type="line" smooth="yes"/>
      <point x="436" y="444"/>
      <point x="396" y="409"/>
      <point x="321" y="409" type="curve" smooth="yes"/>
      <point x="187" y="409" type="line"/>
    </contour>
    <contour>
      <point x="323" y="366" type="line" smooth="yes"/>
      <point x="398" y="366"/>
      <point x="438" y="330"/>
      <point x="438" y="249" type="curve" smooth="yes"/>
      <point x="438" y="0" type="line"/>
      <point x="571" y="0" type="line"/>
      <point x="571" y="219" type="line" smooth="yes"/>
      <point x="571" y="313"/>
      <point x="518" y="368"/>
      <point x="418" y="388" type="curve"/>
      <point x="516" y="408"/>
      <point x="571" y="462"/>
      <point x="571" y="554" type="curve" smooth="yes"/>
      <point x="571" y="570" type="line" smooth="yes"/>
      <point x="571" y="693"/>
      <point x="485" y="750"/>
      <point x="340" y="750" type="curve" smooth="yes"/>
      <point x="54" y="750" type="line"/>
      <point x="54" y="0" type="line"/>
      <point x="187" y="0" type="line"/>
      <point x="187" y="366" type="line"/>
    </contour>
    <contour>
      <point x="97" y="43" type="line"/>
      <point x="97" y="707" type="line"/>
      <point x="144" y="707" type="line"/>
      <point x="144" y="43" type="line"/>
    </contour>
  </outline>
</glyph>
<glyph name="S.random1" format="1">
  <advance width="547"/>
  <outline>
    <contour>
      <point x="495" y="512" type="line"/>
      <point x="495" y="576" type="line" smooth="yes"/>
      <point x="495" y="691"/>
      <point x="406" y="760"/>
      <point x="278" y="760" type="curve" smooth="yes"/>
      <point x="268" y="760" type="line" smooth="yes"/>
      <point x="138" y="760"/>
      <point x="49" y="688"/>
      <point x="49" y="568" type="curve" smooth="yes"/>
      <point x="49" y="562" type="line" smooth="yes"/>
      <point x="49" y="469"/>
      <point x="94" y="410"/>
      <point x="196" y="369" type="curve" smooth="yes"/>
      <point x="314" y="321" type="line" smooth="yes"/>
      <point x="410" y="282"/>
      <point x="439" y="241"/>
      <point x="439" y="178" type="curve" smooth="yes"/>
      <point x="439" y="154" type="line" smooth="yes"/>
      <point x="439" y="68"/>
      <point x="380" y="23"/>
      <point x="272" y="23" type="curve"/>
      <point x="157" y="23"/>
      <point x="110" y="75"/>
      <point x="110" y="161" type="curve" smooth="yes"/>
      <point x="110" y="246" type="line"/>
      <point x="35" y="246" type="line"/>
      <point x="35" y="174" type="line" smooth="yes"/>
      <point x="35" y="59"/>
      <point x="126" y="-10"/>
      <point x="267" y="-10" type="curve" smooth="yes"/>
      <point x="277" y="-10" type="line" smooth="yes"/>
      <point x="422" y="-10"/>
      <point x="512" y="62"/>
      <point x="512" y="180" type="curve" smooth="yes"/>
      <point x="512" y="198" type="line" smooth="yes"/>
      <point x="512" y="287"/>
      <point x="467" y="349"/>
      <point x="365" y="390" type="curve" smooth="yes"/>
      <point x="244" y="439" type="line" smooth="yes"/>
      <point x="148" y="478"/>
      <point x="119" y="516"/>
      <point x="119" y="580" type="curve" smooth="yes"/>
      <point x="119" y="589" type="line" smooth="yes"/>
      <point x="119" y="674"/>
      <point x="167" y="727"/>
      <point x="273" y="727" type="curve"/>
      <point x="375" y="727"/>
      <point x="422" y="675"/>
      <point x="422" y="589" type="curve" smooth="yes"/>
      <point x="422" y="512" type="line"/>
    </contour>
  </outline>
</glyph>
<glyph name="S.random2" format="1">
  <advance width="655"/>
  <outline>
    <contour>
      <point x="616" y="533" type="line"/>
      <point x="616" y="567" type="line" smooth="yes"/>
      <point x="616" y="689"/>
      <point x="532" y="760"/>
      <point x="346" y="760" type="curve" smooth="yes"/>
      <point x="332" y="760" type="line" smooth="yes"/>
      <point x="130" y="760"/>
      <point x="35" y="679"/>
      <point x="35" y="534" type="curve" smooth="yes"/>
      <point x="35" y="517" type="line" smooth="yes"/>
      <point x="35" y="387"/>
      <point x="85" y="320"/>
      <point x="220" y="282" type="curve" smooth="yes"/>
      <point x="323" y="252" type="line" smooth="yes"/>
      <point x="378" y="235"/>
      <point x="391" y="216"/>
      <point x="391" y="159" type="curve" smooth="yes"/>
      <point x="391" y="119" type="line" smooth="yes"/>
      <point x="391" y="70"/>
      <point x="369" y="50"/>
      <point x="325" y="50" type="curve"/>
      <point x="279" y="50"/>
      <point x="261" y="72"/>
      <point x="261" y="120" type="curve" smooth="yes"/>
      <point x="261" y="225" type="line"/>
      <point x="23" y="225" type="line"/>
      <point x="23" y="183" type="line" smooth="yes"/>
      <point x="23" y="60"/>
      <point x="107" y="-10"/>
      <point x="304" y="-10" type="curve" smooth="yes"/>
      <point x="339" y="-10" type="line" smooth="yes"/>
      <point x="530" y="-10"/>
      <point x="631" y="70"/>
      <point x="631" y="213" type="curve" smooth="yes"/>
      <point x="631" y="238" type="line" smooth="yes"/>
      <point x="631" y="363"/>
      <point x="582" y="432"/>
      <point x="446" y="470" type="curve" smooth="yes"/>
      <point x="326" y="505" type="line" smooth="yes"/>
      <point x="271" y="522"/>
      <point x="259" y="540"/>
      <point x="259" y="597" type="curve" smooth="yes"/>
      <point x="259" y="630" type="line" smooth="yes"/>
      <point x="259" y="678"/>
      <point x="278" y="700"/>
      <point x="321" y="700" type="curve"/>
      <point x="364" y="700"/>
      <point x="383" y="678"/>
      <point x="383" y="630" type="curve" smooth="yes"/>
      <point x="383" y="533" type="line"/>
    </contour>
  </outline>
</glyph>
<glyph name="S.sc" format="1">
  <advance width="537"/>
  <outline>
    <contour>
      <point x="495" y="450" type="line"/>
      <point x="495" y="486" type="line" smooth="yes"/>
      <point x="495" y="592"/>
      <point x="413" y="655"/>
      <point x="278" y="655" type="curve" smooth="yes"/>
      <point x="266" y="655" type="line" smooth="yes"/>
      <point x="125" y="655"/>
      <point x="43" y="586"/>
      <point x="43" y="474" type="curve" smooth="yes"/>
      <point x="43" y="463" type="line" smooth="yes"/>
      <point x="43" y="375"/>
      <point x="85" y="320"/>
      <point x="190" y="287" type="curve" smooth="yes"/>
      <point x="289" y="253" type="line" smooth="yes"/>
      <point x="362" y="227"/>
      <point x="384" y="200"/>
      <point x="384" y="147" type="curve" smooth="yes"/>
      <point x="384" y="123" type="line"/>
      <point x="384" y="66"/>
      <point x="343" y="32"/>
      <point x="267" y="32" type="curve"/>
      <point x="192" y="32"/>
      <point x="153" y="68"/>
      <point x="153" y="134" type="curve"/>
      <point x="153" y="203" type="line"/>
      <point x="31" y="203" type="line"/>
      <point x="31" y="159" type="line" smooth="yes"/>
      <point x="31" y="54"/>
      <point x="115" y="-10"/>
      <point x="257" y="-10" type="curve" smooth="yes"/>
      <point x="274" y="-10" type="line" smooth="yes"/>
      <point x="413" y="-10"/>
      <point x="506" y="55"/>
      <point x="506" y="169" type="curve" smooth="yes"/>
      <point x="506" y="187" type="line" smooth="yes"/>
      <point x="506" y="278"/>
      <point x="463" y="333"/>
      <point x="360" y="366" type="curve" smooth="yes"/>
      <point x="254" y="402" type="line"/>
      <point x="179" y="429"/>
      <point x="159" y="454"/>
      <point x="159" y="505" type="curve"/>
      <point x="159" y="518" type="line"/>
      <point x="159" y="578"/>
      <point x="193" y="613"/>
      <point x="268" y="613" type="curve"/>
      <point x="342" y="613"/>
      <point x="375" y="577"/>
      <point x="375" y="512" type="curve"/>
      <point x="375" y="450" type="line"/>
    </contour>
  </outline>
</glyph>
<glyph name="S.swash" format="1">
  <advance width="582"/>
  <outline>
    <contour>
      <point x="534" y="519" type="line"/>
      <point x="534" y="573" type="line" smooth="yes"/>
      <point x="534" y="691"/>
      <point x="446" y="760"/>
      <point x="300" y="760" type="curve" smooth="yes"/>
      <point x="289" y="760" type="line" smooth="yes"/>
      <point x="136" y="760"/>
      <point x="45" y="685"/>
      <point x="45" y="557" type="curve" smooth="yes"/>
      <point x="45" y="548" type="line" smooth="yes"/>
      <point x="45" y="443"/>
      <point x="91" y="381"/>
      <point x="204" y="341" type="curve" smooth="yes"/>
      <point x="317" y="299" type="line" smooth="yes"/>
      <point x="400" y="267"/>
      <point x="424" y="233"/>
      <point x="424" y="172" type="curve" smooth="yes"/>
      <point x="424" y="143" type="line" smooth="yes"/>
      <point x="424" y="69"/>
      <point x="377" y="32"/>
      <point x="289" y="32" type="curve"/>
      <point x="196" y="32"/>
      <point x="158" y="74"/>
      <point x="158" y="148" type="curve" smooth="yes"/>
      <point x="158" y="239" type="line"/>
      <point x="31" y="239" type="line"/>
      <point x="31" y="177" type="line" smooth="yes"/>
      <point x="31" y="59"/>
      <point x="120" y="-10"/>
      <point x="279" y="-10" type="curve" smooth="yes"/>
      <point x="297" y="-10" type="line" smooth="yes"/>
      <point x="457" y="-10"/>
      <point x="550" y="65"/>
      <point x="550" y="191" type="curve" smooth="yes"/>
      <point x="550" y="211" type="line" smooth="yes"/>
      <point x="550" y="311"/>
      <point x="504" y="376"/>
      <point x="391" y="416" type="curve" smooth="yes"/>
      <point x="270" y="460" type="line" smooth="yes"/>
      <point x="188" y="492"/>
      <point x="164" y="524"/>
      <point x="164" y="586" type="curve" smooth="yes"/>
      <point x="164" y="602" type="line" smooth="yes"/>
      <point x="164" y="675"/>
      <point x="203" y="718"/>
      <point x="289" y="718" type="curve"/>
      <point x="372" y="718"/>
      <point x="410" y="676"/>
      <point x="410" y="602" type="curve" smooth="yes"/>
      <point x="410" y="519" type="line"/>
    </contour>
  </outline>
</glyph>
<glyph name="S.title" format="1">
  <advance width="582"/>
  <outline>
    <contour>
      <point x="439" y="680" type="curve"/>
      <point x="449" y="658"/>
      <point x="453" y="632"/>
      <point x="453" y="602" type="curve" smooth="yes"/>
      <point x="453" y="562" type="line"/>
      <point x="491" y="562" type="line"/>
      <point x="491" y="573" type="line" smooth="yes"/>
      <point x="491" y="620"/>
      <point x="472" y="656"/>
    </contour>
    <contour>
      <point x="457" y="78" type="curve"/>
      <point x="489" y="104"/>
      <point x="507" y="142"/>
      <point x="507" y="191" type="curve" smooth="yes"/>
      <point x="507" y="211" type="line" smooth="yes"/>
      <point x="507" y="292"/>
      <point x="467" y="343"/>
      <point x="377" y="375" type="curve" smooth="yes"/>
      <point x="255" y="420" type="line" smooth="yes"/>
      <point x="146" y="462"/>
      <point x="121" y="507"/>
      <point x="121" y="586" type="curve" smooth="yes"/>
      <point x="121" y="602" type="line" smooth="yes"/>
      <point x="121" y="625"/>
      <point x="124" y="646"/>
      <point x="129" y="665" type="curve"/>
      <point x="103" y="638"/>
      <point x="88" y="602"/>
      <point x="88" y="557" type="curve" smooth="yes"/>
      <point x="88" y="548" type="line"/>
      <point x="88" y="462"/>
      <point x="127" y="414"/>
      <point x="218" y="382" type="curve" smooth="yes"/>
      <point x="332" y="339" type="line" smooth="yes"/>
      <point x="442" y="297"/>
      <point x="467" y="250"/>
      <point x="467" y="172" type="curve" smooth="yes"/>
      <point x="467" y="143" type="line" smooth="yes"/>
      <point x="467" y="119"/>
      <point x="464" y="97"/>
    </contour>
    <contour>
      <point x="129" y="69" type="curve"/>
      <point x="119" y="92"/>
      <point x="115" y="118"/>
      <point x="115" y="148" type="curve" smooth="yes"/>
      <point x="115" y="196" type="line"/>
      <point x="74" y="196" type="line"/>
      <point x="74" y="177" type="line"/>
      <point x="74" y="129"/>
      <point x="94" y="93"/>
    </contour>
    <contour>
      <point x="534" y="519" type="line"/>
      <point x="410" y="519" type="line"/>
      <point x="410" y="602" type="line" smooth="yes"/>
      <point x="410" y="676"/>
      <point x="372" y="718"/>
      <point x="289" y="718" type="curve" smooth="yes"/>
      <point x="203" y="718"/>
      <point x="164" y="675"/>
      <point x="164" y="602" type="curve" smooth="yes"/>
      <point x="164" y="586" type="line" smooth="yes"/>
      <point x="164" y="524"/>
      <point x="188" y="492"/>
      <point x="270" y="460" type="curve" smooth="yes"/>
      <point x="391" y="416" type="line" smooth="yes"/>
      <point x="504" y="376"/>
      <point x="550" y="311"/>
      <point x="550" y="211" type="curve" smooth="yes"/>
      <point x="550" y="191" type="line" smooth="yes"/>
      <point x="550" y="65"/>
      <point x="457" y="-10"/>
      <point x="297" y="-10" type="curve" smooth="yes"/>
      <point x="279" y="-10" type="line" smooth="yes"/>
      <point x="120" y="-10"/>
      <point x="31" y="59"/>
      <point x="31" y="177" type="curve" smooth="yes"/>
      <point x="31" y="239" type="line"/>
      <point x="158" y="239" type="line"/>
      <point x="158" y="148" type="line" smooth="yes"/>
      <point x="158" y="74"/>
      <point x="196" y="32"/>
      <point x="289" y="32" type="curve" smooth="yes"/>
      <point x="377" y="32"/>
      <point x="424" y="69"/>
      <point x="424" y="143" type="curve" smooth="yes"/>
      <point x="424" y="172" type="line" smooth="yes"/>
      <point x="424" y="233"/>
      <point x="400" y="267"/>
      <point x="317" y="299" type="curve" smooth="yes"/>
      <point x="204" y="341" type="line" smooth="yes"/>
      <point x="91" y="381"/>
      <point x="45" y="443"/>
      <point x="45" y="548" type="curve" smooth="yes"/>
      <point x="45" y="557" type="line" smooth="yes"/>
      <point x="45" y="685"/>
      <point x="136" y="760"/>
      <point x="289" y="760" type="curve" smooth="yes"/>
      <point x="300" y="760" type="line" smooth="yes"/>
      <point x="446" y="760"/>
      <point x="534" y="691"/>
      <point x="534" y="573" type="curve" smooth="yes"/>
    </contour>
  </outline>
</glyph>
<glyph name="T.random1" format="1">
  <advance width="531"/>
  <outline>
    <contour>
      <point x="15" y="715" type="line"/>
      <point x="226" y="715" type="line"/>
      <point x="226" y="0" type="line"/>
      <point x="305" y="0" type="line"/>
      <point x="305" y="715" type="line"/>
      <point x="516" y="715" type="line"/>
      <point x="516" y="750" type="line"/>
      <point x="15" y="750" type="line"/>
    </contour>
  </outline>
</glyph>
<glyph name="T.random2" format="1">
  <advance width="615"/>
  <outline>
    <contour>
      <point x="11" y="689" type="line"/>
      <point x="184" y="689" type="line"/>
      <point x="184" y="0" type="line"/>
      <point x="431" y="0" type="line"/>
      <point x="431" y="689" type="line"/>
      <point x="604" y="689" type="line"/>
      <point x="604" y="750" type="line"/>
      <point x="11" y="750" type="line"/>
    </contour>
  </outline>
</glyph>
<glyph name="T.sc" format="1">
  <advance width="493"/>
  <outline>
    <contour>
      <point x="14" y="602" type="line"/>
      <point x="182" y="602" type="line"/>
      <point x="182" y="0" type="line"/>
      <point x="310" y="0" type="line"/>
      <point x="310" y="602" type="line"/>
      <point x="479" y="602" type="line"/>
      <point x="479" y="645" type="line"/>
      <point x="14" y="645" type="line"/>
    </contour>
  </outline>
</glyph>
<glyph name="T.swash" format="1">
  <advance width="704"/>
  <outline>
    <contour>
      <point x="492" y="146" type="curve" smooth="yes"/>
      <point x="492" y="707" type="line"/>
      <point x="690" y="707" type="line"/>
      <point x="690" y="750" type="line"/>
      <point x="271" y="750" type="line" smooth="yes"/>
      <point x="134" y="750"/>
      <point x="50" y="686"/>
      <point x="50" y="540" type="curve" smooth="yes"/>
      <point x="50" y="472" type="line"/>
      <point x="174" y="472" type="line"/>
      <point x="174" y="547" type="line" smooth="yes"/>
      <point x="174" y="673"/>
      <point x="205" y="707"/>
      <point x="276" y="707" type="curve" smooth="yes"/>
      <point x="359" y="707" type="line"/>
      <point x="359" y="126" type="line" smooth="yes"/>
      <point x="359" y="50"/>
      <point x="338" y="33"/>
      <point x="302" y="33" type="curve"/>
      <point x="265" y="33"/>
      <point x="245" y="51"/>
      <point x="245" y="131" type="curve" smooth="yes"/>
      <point x="245" y="191" type="line"/>
      <point x="146" y="191" type="line"/>
      <point x="146" y="128" type="line" smooth="yes"/>
      <point x="146" y="31"/>
      <point x="208" y="-10"/>
      <point x="298" y="-10" type="curve" smooth="yes"/>
      <point x="306" y="-10" type="line" smooth="yes"/>
      <point x="392" y="-10"/>
      <point x="492" y="30"/>
    </contour>
  </outline>
</glyph>
<glyph name="T.title" format="1">
  <advance width="558"/>
  <outline>
    <contour>
      <point x="14" y="707" type="line"/>
      <point x="213" y="707" type="line"/>
      <point x="213" y="0" type="line"/>
      <point x="346" y="0" type="line"/>
      <point x="346" y="707" type="line"/>
      <point x="544" y="707" type="line"/>
      <point x="544" y="750" type="line"/>
      <point x="14" y="750" type="line"/>
    </contour>
    <contour>
      <point x="258" y="43" type="line"/>
      <point x="258" y="707" type="line"/>
      <point x="305" y="707" type="line"/>
      <point x="305" y="43" type="line"/>
    </contour>
  </outline>
</glyph>
<glyph name="U.random1" format="1">
  <advance width="574"/>
  <outline>
    <contour>
      <point x="519" y="750" type="line"/>
      <point x="481" y="750" type="line"/>
      <point x="481" y="232" type="line" smooth="yes"/>
      <point x="481" y="86"/>
      <point x="421" y="25"/>
      <point x="306" y="25" type="curve"/>
      <point x="183" y="25"/>
      <point x="134" y="78"/>
      <point x="134" y="212" type="curve" smooth="yes"/>
      <point x="134" y="750" type="line"/>
      <point x="55" y="750" type="line"/>
      <point x="55" y="222" type="line" smooth="yes"/>
      <point x="55" y="53"/>
      <point x="145" y="-10"/>
      <point x="292" y="-10" type="curve"/>
      <point x="302" y="-10" type="line"/>
      <point x="440" y="-10"/>
      <point x="519" y="63"/>
      <point x="519" y="232" type="curve" smooth="yes"/>
    </contour>
    <contour>
      <point x="301" y="370" type="move" name="center"/>
    </contour>
  </outline>
</glyph>
<glyph name="U.random2" format="1">
  <advance width="612"/>
  <outline>
    <contour>
      <point x="577" y="750" type="line"/>
      <point x="509" y="750" type="line"/>
      <point x="509" y="188" type="line"/>
      <point x="509" y="98"/>
      <point x="468" y="58"/>
      <point x="396" y="58" type="curve"/>
      <point x="318" y="58"/>
      <point x="283" y="94"/>
      <point x="283" y="184" type="curve"/>
      <point x="283" y="750" type="line"/>
      <point x="36" y="750" type="line"/>
      <point x="36" y="223" type="line" smooth="yes"/>
      <point x="36" y="58"/>
      <point x="124" y="-10"/>
      <point x="326" y="-10" type="curve"/>
      <point x="336" y="-10" type="line"/>
      <point x="505" y="-10"/>
      <point x="577" y="61"/>
      <point x="577" y="196" type="curve" smooth="yes"/>
    </contour>
    <contour>
      <point x="344" y="370" type="move" name="center"/>
    </contour>
  </outline>
</glyph>
<glyph name="U.sc" format="1">
  <advance width="541"/>
  <outline>
    <contour>
      <point x="492" y="645" type="line"/>
      <point x="447" y="645" type="line"/>
      <point x="447" y="183" type="line" smooth="yes"/>
      <point x="447" y="82"/>
      <point x="400" y="35"/>
      <point x="311" y="35" type="curve"/>
      <point x="219" y="35"/>
      <point x="177" y="76"/>
      <point x="177" y="171" type="curve"/>
      <point x="177" y="645" type="line"/>
      <point x="49" y="645" type="line"/>
      <point x="49" y="191" type="line" smooth="yes"/>
      <point x="49" y="52"/>
      <point x="132" y="-10"/>
      <point x="281" y="-10" type="curve" smooth="yes"/>
      <point x="290" y="-10" type="line" smooth="yes"/>
      <point x="418" y="-10"/>
      <point x="492" y="55"/>
      <point x="492" y="189" type="curve" smooth="yes"/>
    </contour>
    <contour>
      <point x="291" y="318" type="move" name="center"/>
    </contour>
  </outline>
</glyph>
<glyph name="U.title" format="1">
  <advance width="586"/>
  <outline>
    <contour>
      <point x="170" y="60" type="curve"/>
      <point x="149" y="93"/>
      <point x="139" y="140"/>
      <point x="139" y="203" type="curve" smooth="yes"/>
      <point x="139" y="707" type="line"/>
      <point x="92" y="707" type="line"/>
      <point x="92" y="222" type="line"/>
      <point x="92" y="139"/>
      <point x="120" y="88"/>
    </contour>
    <contour>
      <point x="538" y="750" type="line"/>
      <point x="538" y="221" type="line" smooth="yes"/>
      <point x="538" y="62"/>
      <point x="461" y="-10"/>
      <point x="313" y="-10" type="curve" smooth="yes"/>
      <point x="303" y="-10" type="line" smooth="yes"/>
      <point x="138" y="-10"/>
      <point x="49" y="55"/>
      <point x="49" y="222" type="curve" smooth="yes"/>
      <point x="49" y="750" type="line"/>
      <point x="182" y="750" type="line"/>
      <point x="182" y="203" type="line" smooth="yes"/>
      <point x="182" y="83"/>
      <point x="226" y="36"/>
      <point x="335" y="36" type="curve" smooth="yes"/>
      <point x="436" y="36"/>
      <point x="490" y="90"/>
      <point x="490" y="218" type="curve" smooth="yes"/>
      <point x="490" y="750" type="line"/>
    </contour>
  </outline>
</glyph>
<glyph name="V.random1" format="1">
  <advance width="538.0"/>
  <outline>
    <contour>
      <point x="302" y="0" type="line" smooth="yes"/>
      <point x="518" y="750" type="line"/>
      <point x="478" y="750" type="line"/>
      <point x="290" y="88" type="line"/>
      <point x="102" y="750" type="line"/>
      <point x="20" y="750" type="line"/>
      <point x="236" y="0" type="line"/>
    </contour>
  </outline>
</glyph>
<glyph name="V.random2" format="1">
  <advance width="608"/>
  <outline>
    <contour>
      <point x="413" y="0" type="line"/>
      <point x="596" y="750" type="line"/>
      <point x="530" y="750" type="line"/>
      <point x="395" y="186" type="line"/>
      <point x="267" y="750" type="line"/>
      <point x="12" y="750" type="line"/>
      <point x="188" y="0" type="line"/>
    </contour>
  </outline>
</glyph>
<glyph name="V.sc" format="1">
  <advance width="515"/>
  <outline>
    <contour>
      <point x="315" y="0" type="line"/>
      <point x="498" y="645" type="line"/>
      <point x="453" y="645" type="line"/>
      <point x="302" y="107" type="line"/>
      <point x="151" y="645" type="line"/>
      <point x="18" y="645" type="line"/>
      <point x="201" y="0" type="line"/>
    </contour>
  </outline>
</glyph>
<glyph name="V.swash" format="1">
  <advance width="561"/>
  <outline>
    <contour>
      <point x="338" y="0" type="line"/>
      <point x="543" y="750" type="line"/>
      <point x="495" y="750" type="line"/>
      <point x="324" y="116" type="line"/>
      <point x="155" y="750" type="line"/>
      <point x="18" y="750" type="line"/>
      <point x="221" y="0" type="line"/>
    </contour>
  </outline>
</glyph>
<glyph name="V.title" format="1">
  <advance width="561"/>
  <outline>
    <contour>
      <point x="338" y="0" type="line"/>
      <point x="543" y="750" type="line"/>
      <point x="495" y="750" type="line"/>
      <point x="324" y="116" type="line"/>
      <point x="155" y="750" type="line"/>
      <point x="18" y="750" type="line"/>
      <point x="221" y="0" type="line"/>
    </contour>
    <contour>
      <point x="253" y="43" type="line"/>
      <point x="73" y="707" type="line"/>
      <point x="120" y="707" type="line"/>
      <point x="300" y="43" type="line"/>
    </contour>
  </outline>
</glyph>
<glyph name="W.random1" format="1">
  <advance width="861"/>
  <outline>
    <contour>
      <point x="426" y="668" type="line"/>
      <point x="582" y="0" type="line"/>
      <point x="647" y="0" type="line" smooth="yes"/>
      <point x="821" y="750" type="line"/>
      <point x="781" y="750" type="line"/>
      <point x="635" y="108" type="line"/>
      <point x="484" y="750" type="line"/>
      <point x="412" y="750" type="line"/>
      <point x="270" y="109" type="line"/>
      <point x="125" y="750" type="line"/>
      <point x="40" y="750" type="line"/>
      <point x="214" y="0" type="line"/>
      <point x="279" y="0" type="line" smooth="yes"/>
    </contour>
    <contour>
      <point x="445" y="375" type="move" name="center"/>
    </contour>
  </outline>
</glyph>
<glyph name="W.random2" format="1">
  <advance width="948"/>
  <outline>
    <contour>
      <point x="471" y="501" type="line"/>
      <point x="563" y="0" type="line"/>
      <point x="776" y="0" type="line" smooth="yes"/>
      <point x="927" y="750" type="line"/>
      <point x="861" y="750" type="line"/>
      <point x="759" y="227" type="line"/>
      <point x="650" y="750" type="line"/>
      <point x="458" y="750" type="line"/>
      <point x="369" y="239" type="line"/>
      <point x="269" y="750" type="line"/>
      <point x="21" y="750" type="line"/>
      <point x="172" y="0" type="line"/>
      <point x="391" y="0" type="line" smooth="yes"/>
    </contour>
    <contour>
      <point x="549" y="375" type="move" name="center"/>
    </contour>
  </outline>
</glyph>
<glyph name="W.sc" format="1">
  <advance width="819"/>
  <outline>
    <contour>
      <point x="407" y="513" type="line"/>
      <point x="527" y="0" type="line"/>
      <point x="635" y="0" type="line" smooth="yes"/>
      <point x="785" y="645" type="line"/>
      <point x="740" y="645" type="line"/>
      <point x="623" y="133" type="line"/>
      <point x="501" y="645" type="line"/>
      <point x="392" y="645" type="line"/>
      <point x="282" y="136" type="line"/>
      <point x="166" y="645" type="line"/>
      <point x="34" y="645" type="line"/>
      <point x="184" y="0" type="line"/>
      <point x="297" y="0" type="line" smooth="yes"/>
    </contour>
    <contour>
      <point x="448" y="323" type="move" name="center"/>
    </contour>
  </outline>
</glyph>
<glyph name="W.title" format="1">
  <advance width="889"/>
  <outline>
    <contour>
      <point x="440" y="618" type="line"/>
      <point x="576" y="0" type="line"/>
      <point x="688" y="0" type="line" smooth="yes"/>
      <point x="855" y="750" type="line"/>
      <point x="807" y="750" type="line"/>
      <point x="675" y="143" type="line"/>
      <point x="537" y="750" type="line"/>
      <point x="427" y="750" type="line"/>
      <point x="302" y="146" type="line"/>
      <point x="171" y="750" type="line"/>
      <point x="34" y="750" type="line"/>
      <point x="201" y="0" type="line"/>
      <point x="315" y="0" type="line" smooth="yes"/>
    </contour>
    <contour>
      <point x="234" y="43" type="line"/>
      <point x="84" y="707" type="line"/>
      <point x="131" y="707" type="line"/>
      <point x="281" y="43" type="line"/>
    </contour>
    <contour>
      <point x="610" y="43" type="line"/>
      <point x="460" y="707" type="line"/>
      <point x="507" y="707" type="line"/>
      <point x="657" y="43" type="line"/>
    </contour>
    <contour>
      <point x="478" y="375" type="move" name="center"/>
    </contour>
  </outline>
</glyph>
<glyph name="X.random1" format="1">
  <advance width="530"/>
  <outline>
    <contour>
      <point x="248" y="338" type="line"/>
      <point x="426" y="0" type="line"/>
      <point x="515" y="0" type="line"/>
      <point x="300" y="407" type="line"/>
      <point x="500" y="750" type="line"/>
      <point x="463" y="750" type="line"/>
      <point x="283" y="440" type="line"/>
      <point x="119" y="750" type="line"/>
      <point x="30" y="750" type="line"/>
      <point x="230" y="370" type="line"/>
      <point x="15" y="0" type="line"/>
      <point x="52" y="0" type="line"/>
    </contour>
  </outline>
</glyph>
<glyph name="X.random2" format="1">
  <advance width="637"/>
  <outline>
    <contour>
      <point x="240" y="265" type="line"/>
      <point x="356" y="0" type="line"/>
      <point x="630" y="0" type="line"/>
      <point x="428" y="460" type="line"/>
      <point x="600" y="750" type="line"/>
      <point x="528" y="750" type="line"/>
      <point x="397" y="530" type="line"/>
      <point x="301" y="750" type="line"/>
      <point x="27" y="750" type="line"/>
      <point x="210" y="334" type="line"/>
      <point x="7" y="0" type="line"/>
      <point x="79" y="0" type="line"/>
    </contour>
  </outline>
</glyph>
<glyph name="X.sc" format="1">
  <advance width="522"/>
  <outline>
    <contour>
      <point x="225" y="266" type="line"/>
      <point x="364" y="0" type="line"/>
      <point x="509" y="0" type="line"/>
      <point x="316" y="369" type="line"/>
      <point x="489" y="645" type="line"/>
      <point x="444" y="645" type="line"/>
      <point x="296" y="408" type="line"/>
      <point x="172" y="645" type="line"/>
      <point x="27" y="645" type="line"/>
      <point x="204" y="306" type="line"/>
      <point x="13" y="0" type="line"/>
      <point x="58" y="0" type="line"/>
    </contour>
  </outline>
</glyph>
<glyph name="X.swash" format="1">
  <advance width="564"/>
  <outline>
    <contour>
      <point x="247" y="315" type="line"/>
      <point x="404" y="0" type="line"/>
      <point x="552" y="0" type="line"/>
      <point x="341" y="423" type="line"/>
      <point x="532" y="750" type="line"/>
      <point x="484" y="750" type="line"/>
      <point x="318" y="467" type="line"/>
      <point x="177" y="750" type="line"/>
      <point x="29" y="750" type="line"/>
      <point x="224" y="359" type="line"/>
      <point x="13" y="0" type="line"/>
      <point x="61" y="0" type="line"/>
    </contour>
  </outline>
</glyph>
<glyph name="X.title" format="1">
  <advance width="564"/>
  <outline>
    <contour>
      <point x="247" y="315" type="line"/>
      <point x="404" y="0" type="line"/>
      <point x="552" y="0" type="line"/>
      <point x="341" y="423" type="line"/>
      <point x="532" y="750" type="line"/>
      <point x="484" y="750" type="line"/>
      <point x="318" y="467" type="line"/>
      <point x="177" y="750" type="line"/>
      <point x="29" y="750" type="line"/>
      <point x="224" y="359" type="line"/>
      <point x="13" y="0" type="line"/>
      <point x="61" y="0" type="line"/>
    </contour>
    <contour>
      <point x="433" y="43" type="line"/>
      <point x="101" y="707" type="line"/>
      <point x="148" y="707" type="line"/>
      <point x="480" y="43" type="line"/>
    </contour>
  </outline>
</glyph>
<glyph name="Y.random1" format="1">
  <advance width="522"/>
  <outline>
    <contour>
      <point x="301" y="0" type="line"/>
      <point x="301" y="269" type="line"/>
      <point x="507" y="750" type="line"/>
      <point x="467" y="750" type="line"/>
      <point x="284" y="323" type="line"/>
      <point x="101" y="750" type="line"/>
      <point x="15" y="750" type="line"/>
      <point x="222" y="267" type="line"/>
      <point x="222" y="0" type="line"/>
    </contour>
    <contour>
      <point x="281" y="375" type="move" name="center"/>
    </contour>
  </outline>
</glyph>
<glyph name="Y.random2" format="1">
  <advance width="614"/>
  <outline>
    <contour>
      <point x="431" y="0" type="line"/>
      <point x="431" y="275" type="line"/>
      <point x="603" y="750" type="line"/>
      <point x="538" y="750" type="line"/>
      <point x="406" y="377" type="line"/>
      <point x="273" y="750" type="line"/>
      <point x="11" y="750" type="line"/>
      <point x="184" y="272" type="line"/>
      <point x="184" y="0" type="line"/>
    </contour>
    <contour>
      <point x="350" y="375" type="move" name="center"/>
    </contour>
  </outline>
</glyph>
<glyph name="Y.sc" format="1">
  <advance width="505"/>
  <outline>
    <contour>
      <point x="317" y="0" type="line"/>
      <point x="317" y="235" type="line"/>
      <point x="491" y="645" type="line"/>
      <point x="445" y="645" type="line"/>
      <point x="298" y="296" type="line"/>
      <point x="151" y="645" type="line"/>
      <point x="14" y="645" type="line"/>
      <point x="189" y="233" type="line"/>
      <point x="189" y="0" type="line"/>
    </contour>
    <contour>
      <point x="278" y="323" type="move" name="center"/>
    </contour>
  </outline>
</glyph>
<glyph name="Y.swash" format="1">
  <advance width="552"/>
  <outline>
    <contour>
      <point x="343" y="0" type="line"/>
      <point x="343" y="273" type="line"/>
      <point x="538" y="750" type="line"/>
      <point x="490" y="750" type="line"/>
      <point x="323" y="339" type="line"/>
      <point x="156" y="750" type="line"/>
      <point x="14" y="750" type="line"/>
      <point x="210" y="268" type="line"/>
      <point x="210" y="0" type="line"/>
    </contour>
    <contour>
      <point x="303" y="375" type="move" name="center"/>
    </contour>
  </outline>
</glyph>
<glyph name="Y.title" format="1">
  <advance width="552"/>
  <outline>
    <contour>
      <point x="343" y="0" type="line"/>
      <point x="343" y="273" type="line"/>
      <point x="538" y="750" type="line"/>
      <point x="490" y="750" type="line"/>
      <point x="323" y="339" type="line"/>
      <point x="156" y="750" type="line"/>
      <point x="14" y="750" type="line"/>
      <point x="210" y="268" type="line"/>
      <point x="210" y="0" type="line"/>
    </contour>
    <contour>
      <point x="300" y="282" type="line"/>
      <point x="300" y="43" type="line"/>
      <point x="253" y="43" type="line"/>
      <point x="253" y="282" type="line"/>
      <point x="78" y="707" type="line"/>
      <point x="125" y="707" type="line"/>
    </contour>
    <contour>
      <point x="303.0" y="375.0" type="move" name="center"/>
    </contour>
  </outline>
</glyph>
<glyph name="Z.random1" format="1">
  <advance width="477"/>
  <outline>
    <contour>
      <point x="25" y="0" type="line" smooth="yes"/>
      <point x="452" y="0" type="line"/>
      <point x="452" y="35" type="line"/>
      <point x="113" y="35" type="line"/>
      <point x="447" y="725" type="line"/>
      <point x="447" y="750" type="line" smooth="yes"/>
      <point x="33" y="750" type="line"/>
      <point x="33" y="715" type="line"/>
      <point x="359" y="715" type="line"/>
      <point x="25" y="25" type="line"/>
    </contour>
  </outline>
</glyph>
<glyph name="Z.random2" format="1">
  <advance width="563"/>
  <outline>
    <contour>
      <point x="25" y="0" type="line" smooth="yes"/>
      <point x="538" y="0" type="line"/>
      <point x="538" y="61" type="line"/>
      <point x="277" y="61" type="line"/>
      <point x="533" y="698" type="line"/>
      <point x="533" y="750" type="line" smooth="yes"/>
      <point x="35" y="750" type="line"/>
      <point x="35" y="689" type="line"/>
      <point x="280" y="689" type="line"/>
      <point x="25" y="52" type="line"/>
    </contour>
  </outline>
</glyph>
<glyph name="Z.sc" format="1">
  <advance width="465"/>
  <outline>
    <contour>
      <point x="25" y="0" type="line" smooth="yes"/>
      <point x="440" y="0" type="line"/>
      <point x="440" y="43" type="line"/>
      <point x="164" y="43" type="line"/>
      <point x="435" y="612" type="line"/>
      <point x="435" y="645" type="line" smooth="yes"/>
      <point x="33" y="645" type="line"/>
      <point x="33" y="602" type="line"/>
      <point x="296" y="602" type="line"/>
      <point x="25" y="34" type="line"/>
    </contour>
  </outline>
</glyph>
